fira-sans_bold-italic.sfdir
StartChar: exclam
Encoding: 33 33 2126
Width: 231
Flags: MW
HStem: -17 21G<58.5 110> -17 181<74 110> 673 20G<92 258 258 258>
VStem: 2 179<56 91.5>
LayerCount: 2
Back
Fore
SplineSet
50 255 m 1xb0
 92 693 l 1
 258 693 l 1
 176 255 l 1
 50 255 l 1xb0
102 164 m 0x70
 148 164 181 130 181 83 c 0
 181 29 138 -17 82 -17 c 0
 35 -17 2 17 2 65 c 0
 2 118 46 164 102 164 c 0x70
EndSplineSet
EndChar
StartChar: quotedbl
Encoding: 34 34 2132
Width: 430
Flags: MW
HStem: 414 279<84 245 104 187 305 388 104 285>
VStem: 84 362<414 693>
LayerCount: 2
Back
Fore
SplineSet
84 414 m 1
 104 693 l 1
 245 693 l 1
 187 414 l 1
 84 414 l 1
285 414 m 1
 305 693 l 1
 446 693 l 1
 388 414 l 1
 285 414 l 1
EndSplineSet
EndChar
StartChar: dollar
Encoding: 36 36 2206
Width: 539
GlyphClass: 2
Flags: MW
HStem: -161 267<198.5 262 198.5 269 156 262> -8 21G<179 179> 571 259<308.5 359>
VStem: 74 162<479.5 523 479.5 528> 346 162<172 219>
LayerCount: 2
Back
Fore
SplineSet
342 410 m 0x78
 444 374 508 315 508 217 c 0
 508 127 451 19 291 -5 c 1
 269 -161 l 1
 156 -161 l 1xb8
 179 -8 l 1
 91 2 26 40 -15 88 c 1x78
 75 172 l 1
 117 129 170 106 227 106 c 0
 297 106 346 140 346 199 c 0xb8
 346 239 320 263 247 290 c 0
 124 333 74 397 74 478 c 0
 74 578 146 661 275 682 c 1
 296 830 l 1
 408 830 l 1
 387 683 l 1
 454 673 508 642 553 599 c 1
 471 517 l 1
 423 557 379 571 339 571 c 0
 278 571 236 547 236 499 c 0
 236 460 260 441 342 410 c 0x78
EndSplineSet
Substitution2: "'onum' Oldstyle Figures lookup 26 subtable" dollar.osf
Substitution2: "'tnum' Tabular Numbers lookup 25 subtable" dollar.tf
AlternateSubs2: "'aalt' Access All Alternates lookup 1 subtable" dollar.tf dollar.osf
EndChar
StartChar: ampersand
Encoding: 38 38 2379
Width: 781
GlyphClass: 2
Flags: MW
HStem: -17 112<274 308.5> 609 101<333.5 373>
VStem: 52 164<152.5 195.5 152.5 207.5> 136 147<518.5 557 518.5 571> 414 147<536.5 571.5>
LayerCount: 2
Back
Fore
SplineSet
362 710 m 0xe8
 486 710 561 644 561 556 c 0
 561 480 510 427 403 361 c 1
 518 234 l 1
 542 273 564 317 582 365 c 1
 707 323 l 1
 673 256 635 199 594 150 c 1
 691 47 l 1
 561 -17 l 1
 494 59 l 1
 424 5 350 -17 267 -17 c 0
 133 -17 52 60 52 164 c 0xe8
 52 251 93 310 208 377 c 1
 158 434 136 475 136 531 c 0xd8
 136 611 193 710 362 710 c 0xe8
356 609 m 0xd8
 311 609 283 580 283 534 c 0
 283 503 296 478 325 444 c 1
 387 483 414 517 414 556 c 0
 414 587 390 609 356 609 c 0xd8
285 288 m 1xe8
 229 249 216 215 216 176 c 0
 216 129 245 95 303 95 c 0
 348 95 386 111 422 136 c 1
 285 288 l 1xe8
EndSplineSet
Substitution2: "'ss03' Style Set 3 lookup 36 subtable" ampersand.ss03
Substitution2: "'aalt' Access All Alternates lookup 0 subtable" ampersand.ss03
EndChar
StartChar: quotesingle
Encoding: 39 39 2133
Width: 229
Flags: MW
HStem: 414 279<84 245 104 187>
VStem: 84 161
LayerCount: 2
Back
Fore
SplineSet
84 414 m 1
 104 693 l 1
 245 693 l 1
 187 414 l 1
 84 414 l 1
EndSplineSet
EndChar
StartChar: parenleft
Encoding: 40 40 2150
Width: 315
Flags: MW
HStem: -157 1017<148 286>
VStem: 19.58 154.26
LayerCount: 2
Back
Fore
SplineSet
286 860 m 1
 380 789 l 1
 270 657 210 533 184 346 c 0
 158 164 182 36 254 -96 c 1
 148 -157 l 1
 68 -19 -6 113 28 354 c 0
 61 591 168 722 286 860 c 1
EndSplineSet
Substitution2: "'case' Case-Sensitive Forms lookup 29 subtable" parenleft.case
Substitution2: "'dnom' Denominators lookup 17 subtable" parenleft.dnom
Substitution2: "'numr' Numerators lookup 16 subtable" parenleft.numr
Substitution2: "'sups' Superscript lookup 15 subtable" uni207D
Substitution2: "'subs' Subscript lookup 14 subtable" uni208D
AlternateSubs2: "'aalt' Access All Alternates lookup 1 subtable" uni208D uni207D parenleft.numr parenleft.dnom parenleft.case
EndChar
StartChar: parenright
Encoding: 41 41 2151
Width: 315
Flags: MW
HStem: -160 1017<51 191>
VStem: 164.13 154.27
LayerCount: 2
Back
Fore
SplineSet
191 857 m 1
 270 719 344 587 310 346 c 0
 277 109 170 -22 51 -160 c 1
 -42 -89 l 1
 67 43 128 167 154 354 c 0
 180 537 156 664 83 796 c 1
 191 857 l 1
EndSplineSet
Substitution2: "'case' Case-Sensitive Forms lookup 29 subtable" parenright.case
Substitution2: "'dnom' Denominators lookup 17 subtable" parenright.dnom
Substitution2: "'numr' Numerators lookup 16 subtable" parenright.numr
Substitution2: "'sups' Superscript lookup 15 subtable" uni207E
Substitution2: "'subs' Subscript lookup 14 subtable" uni208E
AlternateSubs2: "'aalt' Access All Alternates lookup 1 subtable" uni208E uni207E parenright.numr parenright.dnom parenright.case
EndChar

StartChar: asterisk
Encoding: 42 42 980
Width: 439
Flags: MW
HStem: 515 20G<43 43 471 471> 722 20G<216 357 357 357>
VStem: 43 428<535 535>
LayerCount: 2
Fore
SplineSet
328 511 m 1
 413 410 l 1
 295 330 l 1
 246 456 l 1
 165 329 l 1
 67 409 l 1
 180 512 l 1
 43 535 l 1
 100 659 l 1
 220 598 l 1
 216 742 l 1
 357 742 l 1
 315 599 l 1
 446 662 l 1
 471 535 l 1
 328 511 l 1
EndSplineSet
EndChar

StartChar: plus
Encoding: 43 43 1115
Width: 520
Flags: MW
HStem: 271 122<65 196 48 213 342 474 65 325> 529 20G<234 364 364 364>
VStem: 48 443<271 393>
LayerCount: 2
Fore
SplineSet
342 393 m 1
 491 393 l 1
 474 271 l 1
 325 271 l 1
 303 115 l 1
 174 115 l 1
 196 271 l 1
 48 271 l 1
 65 393 l 1
 213 393 l 1
 234 549 l 1
 364 549 l 1
 342 393 l 1
EndSplineSet
Substitution2: "'onum' Oldstyle Figures lookup 22 subtable" plus.osf
Substitution2: "'tnum' Tabular Numbers lookup 21 subtable" plus.tf
Substitution2: "'dnom' Denominators lookup 14 subtable" plus.dnom
Substitution2: "'numr' Numerators lookup 13 subtable" plus.numr
Substitution2: "'sups' Superscript lookup 12 subtable" plussuperior
Substitution2: "'subs' Subscript lookup 11 subtable" uni208A
AlternateSubs2: "'aalt' Access All Alternates lookup 1 subtable" uni208A plussuperior plus.numr plus.dnom plus.tf plus.osf
EndChar

StartChar: comma
Encoding: 44 44 985
Width: 242
Flags: MW
HStem: 1 21G<34 34>
VStem: 5 178<68 90>
LayerCount: 2
Fore
SplineSet
104 164 m 0
 150 164 183 130 183 85 c 0
 183 51 170 24 137 -34 c 2
 54 -177 l 1
 -34 -177 l 1
 34 1 l 1
 15 15 5 36 5 62 c 0
 5 118 48 164 104 164 c 0
EndSplineSet
EndChar
StartChar: hyphen
Encoding: 45 45 2168
Width: 398
Flags: MW
HStem: 252 122<40 371 57 354>
VStem: 40 331<252 374>
LayerCount: 2
Back
Fore
SplineSet
40 252 m 1
 57 374 l 1
 371 374 l 1
 354 252 l 1
 40 252 l 1
EndSplineSet
Substitution2: "'case' Case-Sensitive Forms lookup 29 subtable" hyphen.case
Substitution2: "'aalt' Access All Alternates lookup 0 subtable" hyphen.case
EndChar
StartChar: period
Encoding: 46 46 2129
Width: 240
Flags: MW
HStem: -17 181<74 110>
VStem: 2 179<56 91.5>
LayerCount: 2
Back
Fore
SplineSet
102 164 m 0
 148 164 181 130 181 83 c 0
 181 29 138 -17 82 -17 c 0
 35 -17 2 17 2 65 c 0
 2 118 46 164 102 164 c 0
EndSplineSet
EndChar

StartChar: slash
Encoding: 47 47 996
Width: 510
Flags: MW
HStem: -112 929<156 379>
VStem: 22 490
LayerCount: 2
Fore
SplineSet
512 785 m 1
 156 -112 l 1
 22 -79 l 1
 379 817 l 1
 512 785 l 1
EndSplineSet
Substitution2: "'frac' Diagonal Fractions lookup 15 subtable" fraction
Substitution2: "'aalt' Access All Alternates lookup 0 subtable" fraction
EndChar
StartChar: zero
Encoding: 48 48 2017
Width: 576
Flags: MW
HStem: -17 117<239.5 295 239.5 371> 573 117<300.5 356.5>
VStem: 39 155<168.5 224 168.5 331.5> 402 154<451.5 507>
LayerCount: 2
Back
Fore
SplineSet
342 690 m 0
 481 690 556 599 556 434 c 0
 556 255 489 -17 253 -17 c 0
 113 -17 39 75 39 241 c 0
 39 422 106 690 342 690 c 0
334 573 m 0
 267 573 230 514 205 333 c 0
 198 281 194 240 194 208 c 0
 194 129 217 100 262 100 c 0
 328 100 364 156 390 341 c 0
 398 395 402 436 402 467 c 0
 402 547 379 573 334 573 c 0
EndSplineSet
Substitution2: "'zero' Slashed Zero lookup 32 subtable" zero.zero
Substitution2: "'onum' Oldstyle Figures lookup 26 subtable" zero.osf
Substitution2: "'tnum' Tabular Numbers lookup 25 subtable" zero.tf
Substitution2: "'frac' Diagonal Fractions lookup 19 subtable" zero.numr
Substitution2: "'dnom' Denominators lookup 17 subtable" zero.dnom
Substitution2: "'numr' Numerators lookup 16 subtable" zero.numr
Substitution2: "'sups' Superscript lookup 15 subtable" uni2070
Substitution2: "'subs' Subscript lookup 14 subtable" uni2080
AlternateSubs2: "'aalt' Access All Alternates lookup 1 subtable" uni2080 uni2070 zero.numr zero.dnom zero.tf zero.osf zero.zero
EndChar
StartChar: one
Encoding: 49 49 2018
Width: 454
Flags: MW
HStem: 0 21G<185 337 185 185>
VStem: 49 382<538 676>
LayerCount: 2
Back
Fore
SplineSet
431 676 m 1
 337 0 l 1
 185 0 l 1
 258 513 l 1
 102 424 l 1
 49 538 l 1
 293 676 l 1
 431 676 l 1
EndSplineSet
Substitution2: "'onum' Oldstyle Figures lookup 26 subtable" one.osf
Substitution2: "'tnum' Tabular Numbers lookup 25 subtable" one.tf
Substitution2: "'frac' Diagonal Fractions lookup 19 subtable" one.numr
Substitution2: "'dnom' Denominators lookup 17 subtable" one.dnom
Substitution2: "'numr' Numerators lookup 16 subtable" one.numr
Substitution2: "'sups' Superscript lookup 15 subtable" uni00B9
Substitution2: "'subs' Subscript lookup 14 subtable" uni2081
AlternateSubs2: "'aalt' Access All Alternates lookup 1 subtable" uni2081 uni00B9 one.numr one.dnom one.tf one.osf
EndChar

StartChar: two
Encoding: 50 50 881
Width: 507
Flags: MW
HStem: 0 120.5 560 20G<44 44> 569 121<240.5 283.5>
VStem: 336 161<468 519.5>
LayerCount: 2
Fore
SplineSet
287 690 m 0xb0
 424 690 497 613 497 515 c 0
 497 421 459 330 184 120 c 1
 457 121 l 1
 423 0 l 1
 -9 0 l 1
 5 114 l 1
 292 366 336 417 336 496 c 0
 336 543 306 569 261 569 c 0
 212 569 175 545 131 497 c 1xb0
 44 580 l 1xd0
 111 650 194 690 287 690 c 0xb0
EndSplineSet
Substitution2: "'onum' Oldstyle Figures lookup 22 subtable" two.osf
Substitution2: "'tnum' Tabular Numbers lookup 21 subtable" two.tf
Substitution2: "'frac' Diagonal Fractions lookup 16 subtable" two.numr
Substitution2: "'dnom' Denominators lookup 14 subtable" two.dnom
Substitution2: "'numr' Numerators lookup 13 subtable" two.numr
Substitution2: "'sups' Superscript lookup 12 subtable" twosuperior
Substitution2: "'subs' Subscript lookup 11 subtable" twoinferior
AlternateSubs2: "'aalt' Access All Alternates lookup 1 subtable" twoinferior twosuperior two.numr two.dnom two.tf two.osf
EndChar

StartChar: three
Encoding: 51 51 882
Width: 510
Flags: MW
HStem: -17 120<164 223.5 164 293.5> 298 109<191 215 158 228> 573 117<246 286.5>
VStem: 311 158<188.5 253> 338 154<498 530>
LayerCount: 2
Fore
SplineSet
290 690 m 0xe8
 424 690 492 621 492 530 c 0xe8
 492 466 455 388 338 356 c 1
 410 349 469 305 469 218 c 0
 469 127 400 -17 187 -17 c 0
 86 -17 15 23 -29 87 c 1
 66 165 l 1
 101 121 139 103 189 103 c 0
 258 103 311 150 311 227 c 0
 311 279 278 298 215 298 c 2xf0
 158 298 l 1
 191 407 l 1
 228 407 l 2
 312 407 338 470 338 510 c 0
 338 550 310 573 263 573 c 0
 212 573 168 551 123 513 c 1
 55 603 l 1
 126 660 202 690 290 690 c 0xe8
EndSplineSet
Substitution2: "'onum' Oldstyle Figures lookup 22 subtable" three.osf
Substitution2: "'tnum' Tabular Numbers lookup 21 subtable" three.tf
Substitution2: "'frac' Diagonal Fractions lookup 16 subtable" three.numr
Substitution2: "'dnom' Denominators lookup 14 subtable" three.dnom
Substitution2: "'numr' Numerators lookup 13 subtable" three.numr
Substitution2: "'sups' Superscript lookup 12 subtable" threesuperior
Substitution2: "'subs' Subscript lookup 11 subtable" threeinferior
AlternateSubs2: "'aalt' Access All Alternates lookup 1 subtable" threeinferior threesuperior three.numr three.dnom three.tf three.osf
EndChar

StartChar: four
Encoding: 52 52 883
Width: 555
Flags: MW
HStem: 0 21G<271 423 271 271> 146 118<194 291 460 518> 673 20G<270 270>
VStem: 9 526<146 264>
LayerCount: 2
Fore
SplineSet
518 146 m 1
 444 146 l 1
 423 0 l 1
 271 0 l 1
 291 146 l 1
 9 146 l 1
 24 251 l 1
 270 693 l 1
 400 643 l 1
 194 264 l 1
 309 264 l 1
 349 424 l 1
 483 424 l 1
 460 264 l 1
 535 264 l 1
 518 146 l 1
EndSplineSet
Substitution2: "'onum' Oldstyle Figures lookup 22 subtable" four.osf
Substitution2: "'tnum' Tabular Numbers lookup 21 subtable" four.tf
Substitution2: "'frac' Diagonal Fractions lookup 16 subtable" four.numr
Substitution2: "'dnom' Denominators lookup 14 subtable" four.dnom
Substitution2: "'numr' Numerators lookup 13 subtable" four.numr
Substitution2: "'sups' Superscript lookup 12 subtable" foursuperior
Substitution2: "'subs' Subscript lookup 11 subtable" fourinferior
AlternateSubs2: "'aalt' Access All Alternates lookup 1 subtable" fourinferior foursuperior four.numr four.dnom four.tf four.osf
EndChar
StartChar: five
Encoding: 53 53 2022
Width: 526
Flags: MW
HStem: -17 119<176.5 246 176.5 306> 335 108<240 375.5> 563 113<248 489 248 248>
VStem: 333 158<211.5 282>
LayerCount: 2
Back
Fore
SplineSet
522 676 m 1
 489 563 l 1
 248 563 l 1
 226 421 l 1
 261 437 296 443 326 443 c 0
 425 443 491 378 491 257 c 0
 491 146 413 -17 199 -17 c 0
 94 -17 30 27 -14 84 c 1
 81 165 l 1
 112 125 150 102 203 102 c 0
 289 102 333 173 333 250 c 0
 333 314 300 335 254 335 c 0
 226 335 202 328 169 310 c 1
 63 311 l 1
 113 676 l 1
 522 676 l 1
EndSplineSet
Substitution2: "'onum' Oldstyle Figures lookup 26 subtable" five.osf
Substitution2: "'tnum' Tabular Numbers lookup 25 subtable" five.tf
Substitution2: "'frac' Diagonal Fractions lookup 19 subtable" five.numr
Substitution2: "'dnom' Denominators lookup 17 subtable" five.dnom
Substitution2: "'numr' Numerators lookup 16 subtable" five.numr
Substitution2: "'sups' Superscript lookup 15 subtable" uni2075
Substitution2: "'subs' Subscript lookup 14 subtable" uni2085
AlternateSubs2: "'aalt' Access All Alternates lookup 1 subtable" uni2085 uni2075 five.numr five.dnom five.tf five.osf
EndChar
StartChar: six
Encoding: 54 54 2023
Width: 554
Flags: MW
HStem: -17 113<239.5 307 239.5 357> 346 109<290.5 412> 577 113<338.5 392.5>
VStem: 36 157<162 210.5 162 240> 372 156<242.5 299.5>
LayerCount: 2
Back
Fore
SplineSet
363 455 m 0
 461 455 528 390 528 273 c 0
 528 162 456 -17 258 -17 c 0
 103 -17 36 78 36 227 c 0
 36 253 38 282 42 313 c 0
 74 540 204 690 383 690 c 0
 446 690 495 670 529 643 c 1
 461 551 l 1
 437 568 409 577 376 577 c 0
 301 577 242 512 216 397 c 1
 263 438 315 455 363 455 c 0
264 96 m 0
 350 96 372 213 372 272 c 0
 372 327 350 346 309 346 c 0
 272 346 234 325 201 291 c 1
 196 254 193 223 193 198 c 0
 193 126 215 96 264 96 c 0
EndSplineSet
Substitution2: "'onum' Oldstyle Figures lookup 26 subtable" six.osf
Substitution2: "'tnum' Tabular Numbers lookup 25 subtable" six.tf
Substitution2: "'frac' Diagonal Fractions lookup 19 subtable" six.numr
Substitution2: "'dnom' Denominators lookup 17 subtable" six.dnom
Substitution2: "'numr' Numerators lookup 16 subtable" six.numr
Substitution2: "'sups' Superscript lookup 15 subtable" uni2076
Substitution2: "'subs' Subscript lookup 14 subtable" uni2086
AlternateSubs2: "'aalt' Access All Alternates lookup 1 subtable" uni2086 uni2076 six.numr six.dnom six.tf six.osf
EndChar
StartChar: seven
Encoding: 55 55 2024
Width: 458
Flags: MW
HStem: -16 21G<161 161> 557 119<69 320 52 499>
VStem: 24 475
LayerCount: 2
Back
Fore
SplineSet
499 676 m 1
 484 569 l 1
 161 -16 l 1
 24 32 l 1
 320 557 l 1
 52 557 l 1
 69 676 l 1
 499 676 l 1
EndSplineSet
Substitution2: "'onum' Oldstyle Figures lookup 26 subtable" seven.osf
Substitution2: "'tnum' Tabular Numbers lookup 25 subtable" seven.tf
Substitution2: "'frac' Diagonal Fractions lookup 19 subtable" seven.numr
Substitution2: "'dnom' Denominators lookup 17 subtable" seven.dnom
Substitution2: "'numr' Numerators lookup 16 subtable" seven.numr
Substitution2: "'sups' Superscript lookup 15 subtable" uni2077
Substitution2: "'subs' Subscript lookup 14 subtable" uni2087
AlternateSubs2: "'aalt' Access All Alternates lookup 1 subtable" uni2087 uni2077 seven.numr seven.dnom seven.tf seven.osf
EndChar
StartChar: nine
Encoding: 57 57 2026
Width: 551
Flags: MW
HStem: 234 111<168.5 290.5> 577 113<273 341>
VStem: 51 155<396 455.5 396 479> 389 158<474.5 518.5>
LayerCount: 2
Back
Fore
SplineSet
322 690 m 0
 469 690 547 602 547 473 c 0
 547 283 465 43 68 -29 c 1
 48 83 l 1
 218 123 311 178 355 294 c 1
 318 257 274 234 215 234 c 0
 122 234 51 304 51 419 c 0
 51 539 128 690 322 690 c 0
206 425 m 0
 206 367 234 345 271 345 c 0
 310 345 349 367 381 407 c 1
 386 439 389 463 389 486 c 0
 389 551 365 577 317 577 c 0
 229 577 206 486 206 425 c 0
EndSplineSet
Substitution2: "'onum' Oldstyle Figures lookup 26 subtable" nine.osf
Substitution2: "'tnum' Tabular Numbers lookup 25 subtable" nine.tf
Substitution2: "'frac' Diagonal Fractions lookup 19 subtable" nine.numr
Substitution2: "'dnom' Denominators lookup 17 subtable" nine.dnom
Substitution2: "'numr' Numerators lookup 16 subtable" nine.numr
Substitution2: "'sups' Superscript lookup 15 subtable" uni2079
Substitution2: "'subs' Subscript lookup 14 subtable" uni2089
AlternateSubs2: "'aalt' Access All Alternates lookup 1 subtable" uni2089 uni2079 nine.numr nine.dnom nine.tf nine.osf
EndChar
StartChar: colon
Encoding: 58 58 2122
Width: 240
Flags: MW
HStem: -17 21G<58.5 110> -17 181<74 110> 329 180<122 158>
VStem: 2 179<56 91.5> 51 178<401.5 436.5>
LayerCount: 2
Back
Fore
SplineSet
150 509 m 0xa8
 196 509 229 476 229 429 c 0
 229 374 186 329 130 329 c 0
 83 329 51 363 51 410 c 0
 51 463 94 509 150 509 c 0xa8
102 164 m 0x70
 148 164 181 130 181 83 c 0
 181 29 138 -17 82 -17 c 0
 35 -17 2 17 2 65 c 0
 2 118 46 164 102 164 c 0x70
EndSplineSet
EndChar

StartChar: semicolon
Encoding: 59 59 995
Width: 245
Flags: MW
HStem: 1 21G<37 37> 329 180<127.5 160.5>
VStem: 7 178<68 90> 55 178<402 436.5>
LayerCount: 2
Fore
SplineSet
154 509 m 0xd0
 200 509 233 474 233 429 c 0
 233 375 187 329 134 329 c 0
 87 329 55 365 55 410 c 0
 55 463 101 509 154 509 c 0xd0
106 164 m 0xe0
 152 164 185 130 185 85 c 0
 185 51 172 24 140 -34 c 1
 56 -177 l 1
 -32 -177 l 1
 37 1 l 1
 18 15 7 36 7 62 c 0
 7 118 51 164 106 164 c 0xe0
EndSplineSet
EndChar

StartChar: less
Encoding: 60 60 1103
Width: 510
Flags: MW
HStem: 556 20G<470 470>
VStem: 34 476<263 458>
LayerCount: 2
Fore
SplineSet
510 458 m 1
 175 332 l 1
 468 205 l 1
 403 90 l 1
 34 263 l 1
 53 402 l 1
 470 576 l 1
 510 458 l 1
EndSplineSet
Substitution2: "'onum' Oldstyle Figures lookup 22 subtable" less.osf
Substitution2: "'tnum' Tabular Numbers lookup 21 subtable" less.tf
AlternateSubs2: "'aalt' Access All Alternates lookup 1 subtable" less.tf less.osf
EndChar
StartChar: equal
Encoding: 61 61 2253
Width: 509
GlyphClass: 2
Flags: MW
HStem: 165 123<33 466 50 448> 375 123<62 495 79 478>
VStem: 33 462<165 498>
LayerCount: 2
Back
Fore
SplineSet
62 375 m 1
 79 498 l 1
 495 498 l 1
 478 375 l 1
 62 375 l 1
33 165 m 1
 50 288 l 1
 466 288 l 1
 448 165 l 1
 33 165 l 1
EndSplineSet
Substitution2: "'onum' Oldstyle Figures lookup 26 subtable" equal.osf
Substitution2: "'tnum' Tabular Numbers lookup 25 subtable" equal.tf
Substitution2: "'dnom' Denominators lookup 17 subtable" equal.dnom
Substitution2: "'numr' Numerators lookup 16 subtable" equal.numr
Substitution2: "'sups' Superscript lookup 15 subtable" uni207C
AlternateSubs2: "'aalt' Access All Alternates lookup 1 subtable" uni207C equal.numr equal.dnom equal.tf equal.osf
EndChar

StartChar: greater
Encoding: 62 62 1098
Width: 509
Flags: MW
HStem: 556 20G<125 125>
VStem: 21 474<212 402>
LayerCount: 2
Fore
SplineSet
495 402 m 1
 475 263 l 1
 58 90 l 1
 21 212 l 1
 354 335 l 1
 62 465 l 1
 125 576 l 1
 495 402 l 1
EndSplineSet
Substitution2: "'onum' Oldstyle Figures lookup 22 subtable" greater.osf
Substitution2: "'tnum' Tabular Numbers lookup 21 subtable" greater.tf
AlternateSubs2: "'aalt' Access All Alternates lookup 1 subtable" greater.tf greater.osf
EndChar

StartChar: question
Encoding: 63 63 991
Width: 472
Flags: MW
HStem: -17 21G<163.5 214> -17 181<181 214> 586 124<254.5 294>
VStem: 108 179<56 91> 126 143<274 337 273 367> 334 164<489 556>
LayerCount: 2
Fore
SplineSet
303 710 m 0xac
 435 710 498 643 498 562 c 0
 498 365 269 398 269 276 c 0
 269 270 269 261 271 254 c 1
 134 233 l 1
 129 248 126 267 126 281 c 0
 126 453 334 436 334 542 c 0
 334 570 313 586 275 586 c 0
 234 586 191 564 149 524 c 1
 60 605 l 1
 125 671 203 710 303 710 c 0xac
208 164 m 0x74
 254 164 287 128 287 83 c 0
 287 29 241 -17 187 -17 c 0
 140 -17 108 19 108 65 c 0
 108 117 154 164 208 164 c 0x74
EndSplineSet
EndChar

StartChar: at
Encoding: 64 64 1220
Width: 1010
Flags: MW
HStem: -222 117<384 507.5> 4 98<699 758.5 699 812> 8 99<455 478.5> 403 100<493 547> 595 115<412.5 651>
VStem: 41 142<101.5 270.5 101.5 292.5> 284 139<147.5 215.5 147.5 246.5> 592 88 831 139<314.5 438.5>
LayerCount: 2
Fore
SplineSet
571 710 m 0xdf80
 827 710 970 552 970 356 c 0
 970 216 902 4 722 4 c 0xdf80
 645 4 596 56 592 103 c 1
 561 48 513 8 444 8 c 0xbf80
 336 8 284 79 284 182 c 0
 284 311 348 503 552 503 c 0
 607 503 669 487 718 457 c 1
 680 163 l 2
 676 126 682 102 716 102 c 0
 801 102 831 265 831 364 c 0
 831 513 741 595 561 595 c 0
 264 595 183 355 183 186 c 0
 183 17 286 -105 482 -105 c 0
 544 -105 618 -89 670 -70 c 1
 695 -181 l 1
 629 -205 545 -222 470 -222 c 0
 206 -222 41 -54 41 183 c 0
 41 402 186 710 571 710 c 0xdf80
470 107 m 0xbf80
 510 107 534 140 546 161 c 1
 580 395 l 1
 566 401 555 403 539 403 c 0
 447 403 423 261 423 170 c 0
 423 125 440 107 470 107 c 0xbf80
EndSplineSet
EndChar
StartChar: B
Encoding: 66 66 36
Width: 607
GlyphClass: 2
Flags: MW
HStem: 0 119<204 248> 307 109<246 304 231 306> 577 116<268 327 327 329 268 268>
VStem: 408 166<200.5 260> 423 166<489 540>
AnchorPoint: "Anchor-14" 0 0 basechar 0
AnchorPoint: "Anchor-13" 0 0 basechar 0
AnchorPoint: "Anchor-12" 338 693 basechar 0
AnchorPoint: "Anchor-11" 0 0 basechar 0
AnchorPoint: "Anchor-10" 0 0 basechar 0
LayerCount: 2
Back
Fore
SplineSet
437 366 m 1xf0
 508 353 574 319 574 221 c 0xf0
 574 100 495 0 248 0 c 2
 27 0 l 1
 124 693 l 1
 327 693 l 2
 485 693 589 651 589 535 c 0xe8
 589 435 514 385 437 366 c 1xf0
306 416 m 2xe8
 390 416 423 460 423 518 c 0
 423 562 389 577 329 577 c 2
 268 577 l 1
 246 416 l 1
 306 416 l 2xe8
262 119 m 2xf0
 380 119 408 168 408 233 c 0
 408 287 367 307 304 307 c 2
 231 307 l 1
 204 119 l 1
 262 119 l 2xf0
EndSplineSet
Substitution2: "'c2sc' Capitals to Small Capitals lookup 27 subtable" b.sc
Substitution2: "'aalt' Access All Alternates lookup 0 subtable" b.sc
Position2: "'cpsp' Capital Spacing lookup 0 subtable" dx=5 dy=0 dh=10 dv=0
EndChar
StartChar: D
Encoding: 68 68 50
Width: 642
GlyphClass: 2
Flags: MW
HStem: 0 119<205 234> 574 119<269 312 312 322 269 269>
VStem: 461 166<363 489.5>
AnchorPoint: "Anchor-14" 333 347 basechar 0
AnchorPoint: "Anchor-13" 0 0 basechar 0
AnchorPoint: "Anchor-12" 351 693 basechar 0
AnchorPoint: "Anchor-11" 0 0 basechar 0
AnchorPoint: "Anchor-10" 252 0 basechar 0
LayerCount: 2
Back
Fore
SplineSet
312 693 m 2
 477 693 627 644 627 430 c 0
 627 205 530 0 234 0 c 2
 27 0 l 1
 124 693 l 1
 312 693 l 2
322 574 m 2
 269 574 l 1
 205 119 l 1
 258 119 l 2
 421 119 461 296 461 430 c 0
 461 549 402 574 322 574 c 2
EndSplineSet
Substitution2: "'c2sc' Capitals to Small Capitals lookup 27 subtable" d.sc
Substitution2: "'aalt' Access All Alternates lookup 0 subtable" d.sc
Position2: "'cpsp' Capital Spacing lookup 0 subtable" dx=5 dy=0 dh=10 dv=0
EndChar
StartChar: E
Encoding: 69 69 65
Width: 518
GlyphClass: 2
Flags: MW
HStem: 0 118<206 446> 295 115<246 441 231 456> 576 117<269 510 269 269>
VStem: 28 516
AnchorPoint: "Anchor-14" 0 0 basechar 0
AnchorPoint: "Anchor-13" 0 0 basechar 0
AnchorPoint: "Anchor-12" 336 693 basechar 0
AnchorPoint: "Anchor-11" 416 0 basechar 0
AnchorPoint: "Anchor-10" 237 0 basechar 0
LayerCount: 2
Back
Fore
SplineSet
544 693 m 1
 510 576 l 1
 269 576 l 1
 246 410 l 1
 456 410 l 1
 441 295 l 1
 231 295 l 1
 206 118 l 1
 463 118 l 1
 446 0 l 1
 28 0 l 1
 125 693 l 1
 544 693 l 1
EndSplineSet
Substitution2: "'c2sc' Capitals to Small Capitals lookup 27 subtable" e.sc
Substitution2: "'aalt' Access All Alternates lookup 0 subtable" e.sc
Position2: "'cpsp' Capital Spacing lookup 0 subtable" dx=5 dy=0 dh=10 dv=0
EndChar

StartChar: F
Encoding: 70 70 34
Width: 479
GlyphClass: 2
Flags: MW
HStem: 0 21G<27 188 27 27> 275 117<243 427 227 443> 576 117<269 498 269 269>
VStem: 27 504
LayerCount: 2
Fore
SplineSet
498 576 m 1
 269 576 l 1
 243 392 l 1
 443 392 l 1
 427 275 l 1
 227 275 l 1
 188 0 l 1
 27 0 l 1
 124 693 l 1
 531 693 l 1
 498 576 l 1
EndSplineSet
Substitution2: "'c2sc' Capitals to Small Capitals lookup 23 subtable" f.sc
Substitution2: "'aalt' Access All Alternates lookup 0 subtable" f.sc
Position2: "'cpsp' Capital Spacing lookup 0 subtable" dx=5 dy=0 dh=10 dv=0
EndChar

StartChar: G
Encoding: 71 71 35
Width: 635
GlyphClass: 2
Flags: MW
HStem: -17 120<280 334.5 280 351> 283 116<349 436 348 609> 591 119<333 442>
VStem: 38 166<193 319.5 193 362.5>
AnchorPoint: "Anchor-11" 305 0 basechar 0
AnchorPoint: "Anchor-10" 0 0 basechar 0
AnchorPoint: "Anchor-9" 406 693 basechar 0
AnchorPoint: "Anchor-8" 0 0 basechar 0
LayerCount: 2
Fore
SplineSet
417 710 m 0
 516 710 587 674 636 622 c 1
 542 538 l 1
 503 575 469 591 415 591 c 0
 251 591 204 394 204 245 c 0
 204 141 243 103 317 103 c 0
 352 103 383 111 414 127 c 1
 436 283 l 1
 348 283 l 1
 349 399 l 1
 609 399 l 1
 562 56 l 1
 487 9 395 -17 307 -17 c 0
 128 -17 38 79 38 259 c 0
 38 466 143 710 417 710 c 0
EndSplineSet
Substitution2: "'c2sc' Capitals to Small Capitals lookup 23 subtable" g.sc
Substitution2: "'aalt' Access All Alternates lookup 0 subtable" g.sc
Position2: "'cpsp' Capital Spacing lookup 0 subtable" dx=5 dy=0 dh=10 dv=0
EndChar
StartChar: H
Encoding: 72 72 107
Width: 656
GlyphClass: 2
Flags: MW
HStem: 0 21G<27 188 27 27 394 555 394 394> 297 128<247 434 230 453> 673 20G<125 285 285 285 491 652 652 652>
VStem: 27 625
AnchorPoint: "Anchor-14" 340 347 basechar 0
AnchorPoint: "Anchor-13" 0 0 basechar 0
AnchorPoint: "Anchor-12" 388 693 basechar 0
AnchorPoint: "Anchor-11" 0 0 basechar 0
AnchorPoint: "Anchor-10" 294 0 basechar 0
LayerCount: 2
Back
Fore
SplineSet
394 0 m 1
 434 297 l 1
 230 297 l 1
 188 0 l 1
 27 0 l 1
 125 693 l 1
 285 693 l 1
 247 425 l 1
 453 425 l 1
 491 693 l 1
 652 693 l 1
 555 0 l 1
 394 0 l 1
EndSplineSet
Substitution2: "'c2sc' Capitals to Small Capitals lookup 27 subtable" h.sc
Substitution2: "'aalt' Access All Alternates lookup 0 subtable" h.sc
Position2: "'cpsp' Capital Spacing lookup 0 subtable" dx=5 dy=0 dh=10 dv=0
EndChar

StartChar: I
Encoding: 73 73 43
Width: 290
GlyphClass: 2
Flags: MW
HStem: 0 21G<27 189 27 27> 673 20G<124 286 286 286>
VStem: 27 259
AnchorPoint: "Anchor-11" 0 0 basechar 0
AnchorPoint: "Anchor-10" -12 534 basechar 0
AnchorPoint: "Anchor-9" 205 693 basechar 0
AnchorPoint: "Anchor-8" 171 0 basechar 0
LayerCount: 2
Fore
SplineSet
189 0 m 1
 27 0 l 1
 124 693 l 1
 286 693 l 1
 189 0 l 1
EndSplineSet
Substitution2: "'c2sc' Capitals to Small Capitals lookup 23 subtable" i.sc
Substitution2: "'aalt' Access All Alternates lookup 0 subtable" i.sc
Position2: "'cpsp' Capital Spacing lookup 0 subtable" dx=5 dy=0 dh=10 dv=0
EndChar

StartChar: J
Encoding: 74 74 54
Width: 310
GlyphClass: 2
Flags: MW
HStem: 673 20G<148 309 309 309>
VStem: -59 368
AnchorPoint: "Anchor-11" 0 0 basechar 0
AnchorPoint: "Anchor-10" 0 0 basechar 0
AnchorPoint: "Anchor-9" 228 693 basechar 0
AnchorPoint: "Anchor-8" 0 0 basechar 0
LayerCount: 2
Fore
SplineSet
227 104 m 2
 202 -72 90 -132 -30 -170 c 1
 -59 -53 l 1
 34 -18 55 30 66 113 c 2
 148 693 l 1
 309 693 l 1
 227 104 l 2
EndSplineSet
Substitution2: "'c2sc' Capitals to Small Capitals lookup 23 subtable" j.sc
Substitution2: "'aalt' Access All Alternates lookup 0 subtable" j.sc
Position2: "'cpsp' Capital Spacing lookup 0 subtable" dx=5 dy=0 dh=10 dv=0
EndChar
StartChar: K
Encoding: 75 75 137
Width: 623
GlyphClass: 2
Flags: MW
HStem: 0 21G<27 189 27 27 414 414 414 598> 673 20G<124 286 286 286 505 678 678 678>
VStem: 27 651
AnchorPoint: "Anchor-14" 0 0 basechar 0
AnchorPoint: "Anchor-13" 0 0 basechar 0
AnchorPoint: "Anchor-12" 385 693 basechar 0
AnchorPoint: "Anchor-11" 0 0 basechar 0
AnchorPoint: "Anchor-10" 283 0 basechar 0
LayerCount: 2
Back
Fore
SplineSet
286 693 m 1
 189 0 l 1
 27 0 l 1
 124 693 l 1
 286 693 l 1
678 693 m 1
 414 372 l 1
 598 0 l 1
 414 0 l 1
 246 370 l 1
 505 693 l 1
 678 693 l 1
EndSplineSet
Substitution2: "'c2sc' Capitals to Small Capitals lookup 27 subtable" k.sc
Substitution2: "'aalt' Access All Alternates lookup 0 subtable" k.sc
Position2: "'cpsp' Capital Spacing lookup 0 subtable" dx=5 dy=0 dh=10 dv=0
EndChar
StartChar: L
Encoding: 76 76 141
Width: 506
GlyphClass: 2
Flags: MW
HStem: 0 130<207 438> 673 20G<124 285 285 285>
VStem: 27 445<0 130>
AnchorPoint: "Anchor-14" 411 399 basechar 0
AnchorPoint: "Anchor-13" 307 693 basechar 0
AnchorPoint: "Anchor-12" 205 693 basechar 0
AnchorPoint: "Anchor-11" 0 0 basechar 0
AnchorPoint: "Anchor-10" 233 0 basechar 0
LayerCount: 2
Back
Fore
SplineSet
285 693 m 1
 207 130 l 1
 472 130 l 1
 438 0 l 1
 27 0 l 1
 124 693 l 1
 285 693 l 1
EndSplineSet
Substitution2: "'c2sc' Capitals to Small Capitals lookup 27 subtable" l.sc
Substitution2: "'aalt' Access All Alternates lookup 0 subtable" l.sc
Position2: "'cpsp' Capital Spacing lookup 0 subtable" dx=5 dy=0 dh=10 dv=0
EndChar

StartChar: N
Encoding: 78 78 65
Width: 653
GlyphClass: 2
Flags: MW
HStem: 0 21G<27 170 27 27 348 552 348 348> 0 136<457 457 457 552 348 457> 557 136<220 220> 673 20G<124 327 327 327 506 649 649 649>
VStem: 27 622
AnchorPoint: "Anchor-11" 291 0 basechar 0
AnchorPoint: "Anchor-10" 0 0 basechar 0
AnchorPoint: "Anchor-9" 391 693 basechar 0
AnchorPoint: "Anchor-8" 0 0 basechar 0
LayerCount: 2
Fore
SplineSet
552 0 m 1x98
 348 0 l 1
 220 557 l 1xa8
 223 471 224 381 205 246 c 2
 170 0 l 1
 27 0 l 1
 124 693 l 1
 327 693 l 1
 457 136 l 1x58
 452 232 451 304 467 421 c 2
 506 693 l 1
 649 693 l 1
 552 0 l 1x98
EndSplineSet
Substitution2: "'c2sc' Capitals to Small Capitals lookup 23 subtable" n.sc
Substitution2: "'aalt' Access All Alternates lookup 0 subtable" n.sc
Position2: "'cpsp' Capital Spacing lookup 0 subtable" dx=5 dy=0 dh=10 dv=0
EndChar
StartChar: P
Encoding: 80 80 211
Width: 591
GlyphClass: 2
Flags: MW
HStem: 0 21G<28 189 28 28> 231 118<238 296 296 297 221 296> 576 117<269 329 269 269>
VStem: 435 167<461 521.5>
AnchorPoint: "Anchor-14" 0 0 basechar 0
AnchorPoint: "Anchor-13" 0 0 basechar 0
AnchorPoint: "Anchor-12" 356 693 basechar 0
AnchorPoint: "Anchor-11" 0 0 basechar 0
AnchorPoint: "Anchor-10" 258 0 basechar 0
LayerCount: 2
Back
Fore
SplineSet
345 693 m 2
 505 693 602 629 602 500 c 0
 602 373 522 231 297 231 c 2
 221 231 l 1
 189 0 l 1
 28 0 l 1
 125 693 l 1
 345 693 l 2
296 349 m 2
 408 349 435 430 435 492 c 0
 435 551 398 576 329 576 c 2
 269 576 l 1
 238 349 l 1
 296 349 l 2
EndSplineSet
Substitution2: "'c2sc' Capitals to Small Capitals lookup 27 subtable" p.sc
Substitution2: "'aalt' Access All Alternates lookup 0 subtable" p.sc
Position2: "'cpsp' Capital Spacing lookup 0 subtable" dx=5 dy=0 dh=10 dv=0
EndChar
StartChar: Q
Encoding: 81 81 216
Width: 680
GlyphClass: 2
Flags: MW
HStem: -17 59 -17 120<280 367.5> 590 120<313.5 425>
VStem: 39 166<197.5 309 197.5 359.5> 499 166<385.5 497>
LayerCount: 2
Back
Fore
SplineSet
665 426 m 0x78
 665 287 617 115 468 42 c 1
 562 39 613 15 659 -22 c 1xb8
 546 -148 l 1
 493 -77 431 -17 304 -17 c 0
 135 -17 39 87 39 267 c 0
 39 452 125 710 401 710 c 0
 569 710 665 607 665 426 c 0x78
205 249 m 0
 205 146 245 103 315 103 c 0
 466 103 499 324 499 447 c 0
 499 547 461 590 389 590 c 0
 238 590 205 369 205 249 c 0
EndSplineSet
Substitution2: "'c2sc' Capitals to Small Capitals lookup 27 subtable" q.sc
Substitution2: "'aalt' Access All Alternates lookup 0 subtable" q.sc
Position2: "'cpsp' Capital Spacing lookup 0 subtable" dx=5 dy=0 dh=10 dv=0
EndChar

StartChar: T
Encoding: 84 84 96
Width: 530
GlyphClass: 2
Flags: MW
HStem: 0 21G<147 309 147 147> 567 126<68 227 50 591 388 556 388 388>
VStem: 50 541<567 693>
AnchorPoint: "Anchor-11" 228 0 basechar 0
AnchorPoint: "Anchor-10" 0 0 basechar 0
AnchorPoint: "Anchor-9" 325 693 basechar 0
AnchorPoint: "Anchor-8" 0 0 basechar 0
LayerCount: 2
Fore
SplineSet
556 567 m 1
 388 567 l 1
 309 0 l 1
 147 0 l 1
 227 567 l 1
 50 567 l 1
 68 693 l 1
 591 693 l 1
 556 567 l 1
EndSplineSet
Substitution2: "'c2sc' Capitals to Small Capitals lookup 23 subtable" t.sc
Substitution2: "'aalt' Access All Alternates lookup 0 subtable" t.sc
Position2: "'cpsp' Capital Spacing lookup 0 subtable" dx=5 dy=0 dh=10 dv=0
EndChar

StartChar: U
Encoding: 85 85 101
Width: 641
GlyphClass: 2
Flags: MW
HStem: -17 122<259 332.5 259 371.5> 673 20G<114 275 275 275 485 647 647 647>
VStem: 45.96 161.96
AnchorPoint: "Anchor-11" 0 0 basechar 0
AnchorPoint: "Anchor-10" 0 0 basechar 0
AnchorPoint: "Anchor-9" 381 693 basechar 0
AnchorPoint: "Anchor-8" 404 0 basechar 0
LayerCount: 2
Fore
SplineSet
582 229 m 2
 562 88 460 -17 283 -17 c 0
 104 -17 29 86 49 232 c 2
 114 693 l 1
 275 693 l 1
 211 235 l 2
 198 147 223 105 295 105 c 0
 370 105 408 150 421 238 c 2
 485 693 l 1
 647 693 l 1
 582 229 l 2
EndSplineSet
Substitution2: "'c2sc' Capitals to Small Capitals lookup 23 subtable" u.sc
Substitution2: "'aalt' Access All Alternates lookup 0 subtable" u.sc
Position2: "'cpsp' Capital Spacing lookup 0 subtable" dx=5 dy=0 dh=10 dv=0
EndChar
StartChar: V
Encoding: 86 86 282
Width: 561
GlyphClass: 2
Flags: MW
HStem: 0 21G<148 348 148 148> 0 128<265 265 265 348 148 265> 673 20G<47 215 215 215 467 635 635 635>
VStem: 47 588<693 693>
LayerCount: 2
Back
Fore
SplineSet
635 693 m 1xb0
 348 0 l 1
 148 0 l 1
 47 693 l 1
 215 693 l 1
 265 128 l 1x70
 467 693 l 1
 635 693 l 1xb0
EndSplineSet
Substitution2: "'c2sc' Capitals to Small Capitals lookup 27 subtable" v.sc
Substitution2: "'aalt' Access All Alternates lookup 0 subtable" v.sc
Position2: "'cpsp' Capital Spacing lookup 0 subtable" dx=5 dy=0 dh=10 dv=0
EndChar

StartChar: W
Encoding: 87 87 113
Width: 837
GlyphClass: 2
Flags: MW
HStem: 0 124<218 218 218 290> 529 164<455 455> 673 20G<71 230 230 230 393 563 563 563 731 886 886 886>
VStem: 78.5 145.5 460.5 107
AnchorPoint: "Anchor-11" 0 0 basechar 0
AnchorPoint: "Anchor-10" 0 0 basechar 0
AnchorPoint: "Anchor-9" 480 693 basechar 0
AnchorPoint: "Anchor-8" 0 0 basechar 0
LayerCount: 2
Fore
SplineSet
675 0 m 1xb8
 466 0 l 1
 455 529 l 1xd8
 290 0 l 1
 86 0 l 1
 71 693 l 1
 230 693 l 1
 218 124 l 1
 393 693 l 1
 563 693 l 1
 572 124 l 1
 731 693 l 1
 886 693 l 1
 675 0 l 1xb8
EndSplineSet
Substitution2: "'c2sc' Capitals to Small Capitals lookup 23 subtable" w.sc
Substitution2: "'aalt' Access All Alternates lookup 0 subtable" w.sc
Position2: "'cpsp' Capital Spacing lookup 0 subtable" dx=5 dy=0 dh=10 dv=0
EndChar
StartChar: Y
Encoding: 89 89 293
Width: 584
GlyphClass: 2
Flags: MW
HStem: 0 21G<174 336 174 174> 673 20G<53 225 225 225 478 652 652 652>
VStem: 53 599<693 693>
AnchorPoint: "Anchor-14" 0 0 basechar 0
AnchorPoint: "Anchor-13" 0 0 basechar 0
AnchorPoint: "Anchor-12" 353 693 basechar 0
AnchorPoint: "Anchor-11" 0 0 basechar 0
AnchorPoint: "Anchor-10" 255 0 basechar 0
LayerCount: 2
Back
Fore
SplineSet
652 693 m 1
 372 260 l 1
 336 0 l 1
 174 0 l 1
 211 259 l 1
 53 693 l 1
 225 693 l 1
 309 388 l 1
 478 693 l 1
 652 693 l 1
EndSplineSet
Substitution2: "'c2sc' Capitals to Small Capitals lookup 27 subtable" y.sc
Substitution2: "'aalt' Access All Alternates lookup 0 subtable" y.sc
Position2: "'cpsp' Capital Spacing lookup 0 subtable" dx=5 dy=0 dh=10 dv=0
EndChar

StartChar: Z
Encoding: 90 90 124
Width: 534
GlyphClass: 2
Flags: MW
HStem: 0 130.5 566 127<108 360 90 563>
VStem: -20 583
AnchorPoint: "Anchor-11" 0 0 basechar 0
AnchorPoint: "Anchor-10" 0 0 basechar 0
AnchorPoint: "Anchor-9" 331 693 basechar 0
AnchorPoint: "Anchor-8" 0 0 basechar 0
LayerCount: 2
Fore
SplineSet
546 569 m 1
 189 130 l 1
 490 131 l 1
 455 0 l 1
 -20 0 l 1
 -4 123 l 1
 360 566 l 1
 90 566 l 1
 108 693 l 1
 563 693 l 1
 546 569 l 1
EndSplineSet
Substitution2: "'c2sc' Capitals to Small Capitals lookup 23 subtable" z.sc
Substitution2: "'aalt' Access All Alternates lookup 0 subtable" z.sc
Position2: "'cpsp' Capital Spacing lookup 0 subtable" dx=5 dy=0 dh=10 dv=0
EndChar
StartChar: bracketleft
Encoding: 91 91 2148
Width: 314
Flags: MW
HStem: -123 117<140 237> 705 118<240 354 240 240>
VStem: -24 394
LayerCount: 2
Back
Fore
SplineSet
370 823 m 1
 354 705 l 1
 240 705 l 1
 140 -6 l 1
 254 -6 l 1
 237 -123 l 1
 -24 -123 l 1
 110 823 l 1
 370 823 l 1
EndSplineSet
Substitution2: "'case' Case-Sensitive Forms lookup 29 subtable" bracketleft.case
Substitution2: "'aalt' Access All Alternates lookup 0 subtable" bracketleft.case
EndChar

StartChar: backslash
Encoding: 92 92 981
Width: 510
Flags: MW
HStem: -112 928<250 283>
VStem: 145 245
LayerCount: 2
Fore
SplineSet
390 -81 m 1
 250 -112 l 1
 145 785 l 1
 283 816 l 1
 390 -81 l 1
EndSplineSet
EndChar
StartChar: bracketright
Encoding: 93 93 2149
Width: 314
Flags: MW
HStem: -123 118<-15 98 -15 229 -32 98> 705 118<102 199 85 362>
VStem: -32 394
LayerCount: 2
Back
Fore
SplineSet
362 823 m 1
 229 -123 l 1
 -32 -123 l 1
 -15 -5 l 1
 98 -5 l 1
 199 705 l 1
 85 705 l 1
 102 823 l 1
 362 823 l 1
EndSplineSet
Substitution2: "'case' Case-Sensitive Forms lookup 29 subtable" bracketright.case
Substitution2: "'aalt' Access All Alternates lookup 0 subtable" bracketright.case
EndChar
StartChar: asciicircum
Encoding: 94 94 2389
Width: 549
GlyphClass: 2
Flags: MW
HStem: 527 317<53 426 53 426 416 426 285 568 416 416>
VStem: 53 515<527 527>
LayerCount: 2
Back
Fore
SplineSet
426 844 m 1
 568 527 l 1
 416 527 l 1
 339 726 l 1
 209 527 l 1
 53 527 l 1
 285 844 l 1
 426 844 l 1
EndSplineSet
EndChar
StartChar: underscore
Encoding: 95 95 2137
Width: 510
Flags: MW
HStem: -171 124<-53 458 -36 440>
VStem: -53 511<-171 -47>
LayerCount: 2
Back
Fore
SplineSet
-53 -171 m 1
 -36 -47 l 1
 458 -47 l 1
 440 -171 l 1
 -53 -171 l 1
EndSplineSet
EndChar
StartChar: grave
Encoding: 96 96 2524
Width: 333
Flags: MW
HStem: 682 20G<365 365>
VStem: 93 272<702 717>
LayerCount: 2
Back
Fore
SplineSet
170 835 m 1
 365 702 l 1
 313 622 l 1
 93 717 l 1
 170 835 l 1
EndSplineSet
Substitution2: "'case' Case-Sensitive Forms lookup 29 subtable" grave.case
Substitution2: "'smcp' Lowercase to Small Capitals lookup 28 subtable" grave.sc
Substitution2: "'c2sc' Capitals to Small Capitals lookup 27 subtable" grave.sc
AlternateSubs2: "'aalt' Access All Alternates lookup 1 subtable" grave.sc grave.case
EndChar
StartChar: b
Encoding: 98 98 371
Width: 581
GlyphClass: 2
Flags: MW
HStem: -17 115<247.5 310.5 247.5 368> 432 116<312 445.5> 739 20G<284 284>
VStem: 395 160<288 375>
AnchorPoint: "Anchor-14" 0 0 basechar 0
AnchorPoint: "Anchor-13" 0 0 basechar 0
AnchorPoint: "Anchor-12" 389 742 basechar 0
AnchorPoint: "Anchor-11" 0 0 basechar 0
AnchorPoint: "Anchor-10" 253 0 basechar 0
LayerCount: 2
Back
Fore
SplineSet
284 759 m 1
 246 486 l 1
 286 525 339 548 392 548 c 0
 499 548 555 473 555 341 c 0
 555 188 491 -17 245 -17 c 0
 167 -17 99 -1 27 27 c 1
 127 742 l 1
 284 759 l 1
331 432 m 0
 293 432 260 409 231 371 c 1
 194 111 l 1
 215 103 234 98 261 98 c 0
 360 98 395 238 395 338 c 0
 395 412 367 432 331 432 c 0
EndSplineSet
Substitution2: "'smcp' Lowercase to Small Capitals lookup 28 subtable" b.sc
Substitution2: "'aalt' Access All Alternates lookup 0 subtable" b.sc
EndChar

StartChar: d
Encoding: 100 100 153
Width: 591
GlyphClass: 2
Flags: MW
HStem: -17 116<233.5 234> 0 21G<355 493 355 355> 433 115<269.5 314 194 335.5> 722 20G<597 597> 739 20G<443 443>
VStem: 31 161<158.5 240 158.5 269.5>
LayerCount: 2
Fore
SplineSet
597 742 m 1x74
 493 0 l 1
 355 0 l 1x6c
 356 76 l 1
 322 25 270 -17 198 -17 c 0
 85 -17 31 64 31 197 c 0
 31 342 98 548 290 548 c 0
 338 548 379 527 406 497 c 1
 443 759 l 1xac
 597 742 l 1x74
319 433 m 0
 220 433 192 284 192 196 c 0
 192 121 216 99 251 99 c 0
 295 99 332 144 364 197 c 1xac
 392 394 l 1
 373 420 352 433 319 433 c 0
EndSplineSet
Substitution2: "'smcp' Lowercase to Small Capitals lookup 24 subtable" d.sc
Substitution2: "'aalt' Access All Alternates lookup 0 subtable" d.sc
EndChar

StartChar: e
Encoding: 101 101 157
Width: 535
GlyphClass: 2
Flags: MW
HStem: -17 116<252 299> 443 105<276 334>
VStem: 27 156 367 157<371.5 406>
AnchorPoint: "Anchor-11" 252 0 basechar 0
AnchorPoint: "Anchor-10" 0 0 basechar 0
AnchorPoint: "Anchor-9" 315 531 basechar 0
AnchorPoint: "Anchor-8" 392 9 basechar 0
LayerCount: 2
Fore
SplineSet
524 403 m 0
 524 254 350 210 183 193 c 1
 187 122 226 99 278 99 c 0
 323 99 364 115 413 148 c 1
 469 54 l 1
 411 12 340 -17 258 -17 c 0
 103 -17 27 73 27 208 c 0
 27 352 105 548 328 548 c 0
 457 548 524 483 524 403 c 0
190 289 m 1
 323 299 367 349 367 394 c 0
 367 418 355 443 313 443 c 0
 239 443 204 365 190 289 c 1
EndSplineSet
Substitution2: "'smcp' Lowercase to Small Capitals lookup 24 subtable" e.sc
Substitution2: "'aalt' Access All Alternates lookup 0 subtable" e.sc
EndChar
StartChar: f
Encoding: 102 102 447
Width: 346
GlyphClass: 2
Flags: MW
HStem: -222 21G<-41 -41> 421 110<38 102 23 117 273 364> 642 117<332 366.5>
VStem: -80 570
AnchorPoint: "Anchor-14" 0 0 basechar 0
AnchorPoint: "Anchor-13" 0 0 basechar 0
AnchorPoint: "Anchor-12" 324 742 basechar 0
AnchorPoint: "Anchor-11" 0 0 basechar 0
AnchorPoint: "Anchor-10" 91 -210 basechar 0
LayerCount: 2
Back
Fore
SplineSet
355 642 m 0
 309 642 285 621 278 570 c 2
 273 531 l 1
 396 531 l 1
 364 421 l 1
 257 421 l 1
 206 58 l 2
 182 -115 87 -176 -41 -222 c 1
 -80 -108 l 1
 -5 -79 37 -45 50 52 c 2
 102 421 l 1
 23 421 l 1
 38 531 l 1
 117 531 l 1
 124 580 l 2
 138 682 213 759 342 759 c 0
 406 759 454 739 490 715 c 1
 435 620 l 1
 408 638 378 642 355 642 c 0
EndSplineSet
Substitution2: "'smcp' Lowercase to Small Capitals lookup 28 subtable" f.sc
Substitution2: "'locl' Localized Forms in Latin lookup 11 subtable" f.loclEWE
AlternateSubs2: "'aalt' Access All Alternates lookup 1 subtable" f.loclEWE f.sc
EndChar

StartChar: g
Encoding: 103 103 168
Width: 575
GlyphClass: 2
Flags: MW
HStem: -223 120<180.5 232.5 180.5 290> 0 117<142.5 268> 436 112<276.5 341.5>
VStem: 25 161<174 257 174 279.5>
AnchorPoint: "Anchor-11" 0 0 basechar 0
AnchorPoint: "Anchor-10" 0 0 basechar 0
AnchorPoint: "Anchor-9" 331 531 basechar 0
AnchorPoint: "Anchor-8" 0 0 basechar 0
LayerCount: 2
Fore
SplineSet
333 548 m 0
 404 548 479 532 551 492 c 1
 486 41 l 2
 459 -146 374 -223 206 -223 c 0
 141 -223 64 -200 7 -164 c 1
 59 -61 l 1
 108 -88 158 -103 203 -103 c 0
 262 -103 317 -85 332 18 c 2
 339 69 l 1
 304 29 256 0 200 0 c 0
 85 0 25 84 25 206 c 0
 25 353 106 548 333 548 c 0
330 436 m 0
 223 436 186 304 186 210 c 0
 186 138 214 117 248 117 c 0
 288 117 322 148 353 191 c 1
 389 426 l 1
 368 433 353 436 330 436 c 0
EndSplineSet
Substitution2: "'smcp' Lowercase to Small Capitals lookup 24 subtable" g.sc
Substitution2: "'aalt' Access All Alternates lookup 0 subtable" g.sc
EndChar
StartChar: k
Encoding: 107 107 505
Width: 566
GlyphClass: 2
Flags: MW
HStem: 0 21G<23 179 23 23 345 516 345 345> 438 110<337.5 463> 739 20G<285 285>
VStem: 403 159<380 408.5>
AnchorPoint: "Anchor-14" 0 0 basechar 0
AnchorPoint: "Anchor-13" 0 0 basechar 0
AnchorPoint: "Anchor-12" 372 742 basechar 0
AnchorPoint: "Anchor-11" 0 0 basechar 0
AnchorPoint: "Anchor-10" 259 0 basechar 0
LayerCount: 2
Back
Fore
SplineSet
285 759 m 1
 243 462 l 1
 296 523 355 548 419 548 c 0
 507 548 562 496 562 421 c 0
 562 339 515 275 418 236 c 1
 516 0 l 1
 345 0 l 1
 249 256 l 1
 366 294 403 338 403 394 c 0
 403 423 387 438 358 438 c 0
 317 438 268 406 224 329 c 1
 179 0 l 1
 23 0 l 1
 127 742 l 1
 285 759 l 1
EndSplineSet
Substitution2: "'smcp' Lowercase to Small Capitals lookup 28 subtable" k.sc
Substitution2: "'aalt' Access All Alternates lookup 0 subtable" k.sc
EndChar

StartChar: l
Encoding: 108 108 194
Width: 289
GlyphClass: 2
Flags: MW
HStem: -17 21G<114.5 176> 739 20G<280 280>
VStem: 35.52 158.48
AnchorPoint: "Anchor-11" 135 0 basechar 0
AnchorPoint: "Anchor-10" 0 0 basechar 0
AnchorPoint: "Anchor-9" 200 742 basechar 0
AnchorPoint: "Anchor-8" 0 0 basechar 0
LayerCount: 2
Fore
SplineSet
194 145 m 2
 190 117 198 108 215 108 c 0
 222 108 232 111 241 114 c 1
 259 3 l 1
 230 -10 193 -17 159 -17 c 0
 70 -17 24 37 38 139 c 2
 123 742 l 1
 280 759 l 1
 194 145 l 2
EndSplineSet
Substitution2: "'smcp' Lowercase to Small Capitals lookup 24 subtable" l.sc
Substitution2: "'aalt' Access All Alternates lookup 0 subtable" l.sc
EndChar

StartChar: m
Encoding: 109 109 200
Width: 831
GlyphClass: 2
Flags: MW
HStem: 0 21G<24 179 24 24 303 458 303 303 583 738 583 583> 419 129<307 426.5> 511 20G<98 233 233 233>
VStem: 637.14 157.29
LayerCount: 2
Fore
SplineSet
675 548 m 0xd0
 759 548 806 487 792 386 c 2
 738 0 l 1
 583 0 l 1
 635 351 l 2
 644 407 626 419 604 419 c 0
 570 419 533 370 501 300 c 1
 458 0 l 1
 303 0 l 1
 355 351 l 2
 364 407 346 419 324 419 c 0xd0
 290 419 250 368 220 294 c 1
 179 0 l 1
 24 0 l 1
 98 531 l 1
 233 531 l 1xb0
 230 445 l 1
 273 509 332 548 395 548 c 0
 458 548 502 513 513 449 c 1
 555 510 616 548 675 548 c 0xd0
EndSplineSet
Substitution2: "'smcp' Lowercase to Small Capitals lookup 24 subtable" m.sc
Substitution2: "'aalt' Access All Alternates lookup 0 subtable" m.sc
EndChar
StartChar: n
Encoding: 110 110 535
Width: 568
GlyphClass: 2
Flags: MW
HStem: 0 21G<24 179 24 24 319 475 319 319> 419 129<318 453.5> 511 20G<98 233 233 233> 528 20G<375.5 453.5>
VStem: 24 506.75 369 161.75
AnchorPoint: "Anchor-14" 0 0 basechar 0
AnchorPoint: "Anchor-13" 0 0 basechar 0
AnchorPoint: "Anchor-12" 324 531 basechar 0
AnchorPoint: "Anchor-11" 0 0 basechar 0
AnchorPoint: "Anchor-10" 250 0 basechar 0
LayerCount: 2
Back
Fore
SplineSet
411 548 m 0x94
 496 548 543 487 528 384 c 2
 475 0 l 1
 319 0 l 1
 369 351 l 2
 376 405 361 419 338 419 c 0xc4
 298 419 258 367 220 292 c 1
 179 0 l 1
 24 0 l 1
 98 531 l 1
 233 531 l 1xa8
 230 438 l 1
 275 504 340 548 411 548 c 0x94
EndSplineSet
Substitution2: "'smcp' Lowercase to Small Capitals lookup 28 subtable" n.sc
Substitution2: "'aalt' Access All Alternates lookup 0 subtable" n.sc
EndChar

StartChar: p
Encoding: 112 112 220
Width: 587
GlyphClass: 2
Flags: MW
HStem: -223 21G<-7 -7> -17 115<251.5 311 248.5 379.5> -3 21G<177 177> 432 99<98 350> 432 116<313 446>
VStem: 396 159<288 375>
LayerCount: 2
Fore
SplineSet
392 548 m 0xcc
 500 548 555 473 555 341 c 0
 555 188 485 -17 274 -17 c 0xcc
 229 -17 199 -10 177 -3 c 1
 150 -206 l 1
 -7 -223 l 1
 98 531 l 1
 235 531 l 1xb4
 235 472 l 1
 289 530 343 548 392 548 c 0xcc
332 432 m 0
 294 432 261 409 231 371 c 1
 195 111 l 1
 215 103 235 98 262 98 c 0
 360 98 396 238 396 338 c 0
 396 412 368 432 332 432 c 0
EndSplineSet
Substitution2: "'smcp' Lowercase to Small Capitals lookup 24 subtable" p.sc
Substitution2: "'aalt' Access All Alternates lookup 0 subtable" p.sc
EndChar
StartChar: q
Encoding: 113 113 599
Width: 574
GlyphClass: 2
Flags: MW
HStem: -223 21G<296 296> -17 116<141 269> 436 112<276.5 340>
VStem: 26 161<157.5 246.5 157.5 273>
AnchorPoint: "Anchor-14" 0 0 basechar 0
AnchorPoint: "Anchor-13" 0 0 basechar 0
AnchorPoint: "Anchor-12" 332 531 basechar 0
AnchorPoint: "Anchor-11" 0 0 basechar 0
AnchorPoint: "Anchor-10" 204 -210 basechar 0
LayerCount: 2
Back
Fore
SplineSet
332 548 m 0
 403 548 478 532 550 492 c 1
 452 -206 l 1
 296 -223 l 1
 334 47 l 1
 313 19 261 -17 197 -17 c 0
 85 -17 26 66 26 194 c 0
 26 352 108 548 332 548 c 0
328 436 m 0
 225 436 187 298 187 195 c 0
 187 120 213 99 250 99 c 0
 288 99 320 127 350 173 c 1
 388 426 l 1
 367 433 352 436 328 436 c 0
EndSplineSet
Substitution2: "'smcp' Lowercase to Small Capitals lookup 28 subtable" q.sc
Substitution2: "'aalt' Access All Alternates lookup 0 subtable" q.sc
EndChar

StartChar: r
Encoding: 114 114 223
Width: 392
GlyphClass: 2
Flags: MW
HStem: 0 21G<24 179 24 24> 393 138<98 353> 511 20G<98 233 233 233> 518 20G<434 434> 526 20G<353.5 391.5>
VStem: 24 410
AnchorPoint: "Anchor-11" 102 0 basechar 0
AnchorPoint: "Anchor-10" 0 0 basechar 0
AnchorPoint: "Anchor-9" 267 531 basechar 0
AnchorPoint: "Anchor-8" 0 0 basechar 0
LayerCount: 2
Fore
SplineSet
381 546 m 0x8c
 402 546 417 543 434 538 c 1x94
 389 386 l 1
 373 390 361 393 345 393 c 0xc4
 279 393 243 330 214 246 c 1
 179 0 l 1
 24 0 l 1
 98 531 l 1
 233 531 l 1xa4
 231 432 l 1
 267 505 326 546 381 546 c 0x8c
EndSplineSet
Substitution2: "'smcp' Lowercase to Small Capitals lookup 24 subtable" r.sc
Substitution2: "'aalt' Access All Alternates lookup 0 subtable" r.sc
EndChar

StartChar: t
Encoding: 116 116 234
Width: 376
GlyphClass: 2
Flags: MW
HStem: -17 126<209 262.5> 421 110<38 96 23 118 266 355>
VStem: 57.67 159.33
AnchorPoint: "Anchor-11" 192 0 basechar 0
AnchorPoint: "Anchor-10" 0 0 basechar 0
AnchorPoint: "Anchor-9" 0 0 basechar 0
AnchorPoint: "Anchor-8" 0 0 basechar 0
LayerCount: 2
Fore
SplineSet
217 176 m 2
 210 125 222 109 253 109 c 0
 272 109 292 114 313 126 c 1
 355 22 l 1
 310 -4 254 -17 209 -17 c 0
 92 -16 44 52 61 176 c 2
 96 421 l 1
 23 421 l 1
 38 531 l 1
 118 531 l 1
 151 649 l 1
 285 664 l 1
 266 531 l 1
 386 531 l 1
 355 421 l 1
 251 421 l 1
 217 176 l 2
EndSplineSet
Substitution2: "'smcp' Lowercase to Small Capitals lookup 24 subtable" t.sc
Substitution2: "'aalt' Access All Alternates lookup 0 subtable" t.sc
EndChar

StartChar: v
Encoding: 118 118 250
Width: 503
GlyphClass: 2
Flags: MW
HStem: 0 21G<124 311 124 124> 0 120<234 234 234 311 124 234> 511 20G<31 198 198 198 383 547 547 547>
VStem: 31 516<531 531>
LayerCount: 2
Fore
SplineSet
311 0 m 1xb0
 124 0 l 1
 31 531 l 1
 198 531 l 1
 234 120 l 1x70
 383 531 l 1
 547 531 l 1
 311 0 l 1xb0
EndSplineSet
Substitution2: "'smcp' Lowercase to Small Capitals lookup 24 subtable" v.sc
Substitution2: "'aalt' Access All Alternates lookup 0 subtable" v.sc
EndChar
StartChar: x
Encoding: 120 120 698
Width: 504
GlyphClass: 2
Flags: MW
HStem: 0 21G<-48 121 -48 -48 304 476 304 304> 511 20G<43 215 215 215 359 525 525 525>
VStem: -48 573<0 531>
AnchorPoint: "Anchor-14" 0 0 basechar 0
AnchorPoint: "Anchor-13" 0 0 basechar 0
AnchorPoint: "Anchor-12" 286 531 basechar 0
AnchorPoint: "Anchor-11" 0 0 basechar 0
AnchorPoint: "Anchor-10" 213 0 basechar 0
LayerCount: 2
Back
Fore
SplineSet
525 531 m 1
 348 279 l 1
 476 0 l 1
 304 0 l 1
 239 195 l 1
 121 0 l 1
 -48 0 l 1
 159 283 l 1
 43 531 l 1
 215 531 l 1
 264 361 l 1
 359 531 l 1
 525 531 l 1
EndSplineSet
Substitution2: "'smcp' Lowercase to Small Capitals lookup 28 subtable" x.sc
Substitution2: "'sups' Superscript lookup 15 subtable" uni02E3
AlternateSubs2: "'aalt' Access All Alternates lookup 1 subtable" uni02E3 x.sc
EndChar
StartChar: y
Encoding: 121 121 699
Width: 507
GlyphClass: 2
Flags: MW
HStem: -222 21G<-13 -13> 0 21G<116 116> 511 20G<31 193 193 193 388 551 551 551>
VStem: -17 568
AnchorPoint: "Anchor-14" 0 0 basechar 0
AnchorPoint: "Anchor-13" 0 0 basechar 0
AnchorPoint: "Anchor-12" 291 531 basechar 0
AnchorPoint: "Anchor-11" 0 0 basechar 0
AnchorPoint: "Anchor-10" 199 -210 basechar 0
LayerCount: 2
Back
Fore
SplineSet
551 531 m 1
 316 -2 l 2
 257 -136 152 -213 -13 -222 c 1
 -17 -111 l 1
 88 -98 132 -67 172 1 c 1
 116 0 l 1
 31 531 l 1
 193 531 l 1
 228 102 l 1
 388 531 l 1
 551 531 l 1
EndSplineSet
Substitution2: "'smcp' Lowercase to Small Capitals lookup 28 subtable" y.sc
Substitution2: "'aalt' Access All Alternates lookup 0 subtable" y.sc
EndChar
StartChar: z
Encoding: 122 122 712
Width: 449
GlyphClass: 2
Flags: MW
HStem: 0 120<184 382> 412 119<69 256 52 465>
VStem: -26 491
AnchorPoint: "Anchor-14" 0 0 basechar 0
AnchorPoint: "Anchor-13" 0 0 basechar 0
AnchorPoint: "Anchor-12" 267 531 basechar 0
AnchorPoint: "Anchor-11" 0 0 basechar 0
AnchorPoint: "Anchor-10" 178 0 basechar 0
LayerCount: 2
Back
Fore
SplineSet
465 531 m 1
 450 420 l 1
 184 120 l 1
 413 120 l 1
 382 0 l 1
 -26 0 l 1
 -11 112 l 1
 256 412 l 1
 52 412 l 1
 69 531 l 1
 465 531 l 1
EndSplineSet
Substitution2: "'smcp' Lowercase to Small Capitals lookup 28 subtable" z.sc
Substitution2: "'aalt' Access All Alternates lookup 0 subtable" z.sc
EndChar

StartChar: braceleft
Encoding: 123 123 1005
Width: 314
Flags: MW
HStem: -140 110<218 235> 285 129<26 35> 730 110<326.5 356>
VStem: 34.67 148.33 64.95 147.59
LayerCount: 2
Fore
SplineSet
356 730 m 1xe8
 297 730 279 712 272 668 c 2
 246 482 l 2
 234 393 193 365 126 348 c 1
 185 334 223 308 210 214 c 2xe8
 183 28 l 2
 177 -15 189 -30 247 -30 c 1
 235 -140 l 1xf0
 76 -140 22 -82 37 27 c 2
 62 206 l 2
 71 264 62 285 8 285 c 1
 26 414 l 1
 77 414 96 440 104 498 c 2
 129 677 l 2
 144 786 192 840 370 840 c 1
 356 730 l 1xe8
EndSplineSet
Substitution2: "'case' Case-Sensitive Forms lookup 25 subtable" braceleft.case
Substitution2: "'aalt' Access All Alternates lookup 0 subtable" braceleft.case
EndChar

StartChar: bar
Encoding: 124 124 1218
Width: 366
Flags: MW
HStem: -105 915<187 204 59 332>
VStem: 59 273
LayerCount: 2
Fore
SplineSet
204 -105 m 1
 59 -105 l 1
 187 810 l 1
 332 810 l 1
 204 -105 l 1
EndSplineSet
EndChar

StartChar: braceright
Encoding: 125 125 1006
Width: 314
Flags: MW
HStem: -140 110<-19 10.5 -19 56.5> 286 129<303 311> 730 110<102 119>
VStem: 125.4 147.22 154 148.31
LayerCount: 2
Fore
SplineSet
-19 -30 m 1xf0
 40 -30 59 -12 65 32 c 2
 91 218 l 2
 104 307 144 335 212 352 c 1
 152 366 115 392 128 486 c 2xf0
 154 672 l 2
 160 715 148 730 90 730 c 1
 102 840 l 1xe8
 261 840 315 782 300 673 c 2
 275 494 l 2
 267 436 276 415 330 415 c 1
 311 286 l 1
 260 286 242 260 234 202 c 2
 209 23 l 2
 193 -86 145 -140 -32 -140 c 1
 -19 -30 l 1xf0
EndSplineSet
Substitution2: "'case' Case-Sensitive Forms lookup 25 subtable" braceright.case
Substitution2: "'aalt' Access All Alternates lookup 0 subtable" braceright.case
EndChar

StartChar: asciitilde
Encoding: 126 126 1089
Width: 504
Flags: MW
HStem: 232 118<323.5 365 323.5 370> 293 117<154.5 195.5>
VStem: 18 484<285 355>
LayerCount: 2
Fore
SplineSet
192 410 m 0x60
 281 410 300 350 347 350 c 0
 383 350 402 374 421 404 c 1
 502 355 l 1
 464 294 411 232 329 232 c 0xa0
 239 232 218 293 173 293 c 0
 136 293 118 266 98 236 c 1
 18 285 l 1
 56 346 109 410 192 410 c 0x60
EndSplineSet
Substitution2: "'onum' Oldstyle Figures lookup 22 subtable" asciitilde.osf
Substitution2: "'tnum' Tabular Numbers lookup 21 subtable" asciitilde.tf
AlternateSubs2: "'aalt' Access All Alternates lookup 1 subtable" asciitilde.tf asciitilde.osf
EndChar
StartChar: exclamdown
Encoding: 161 161 2127
Width: 229
Flags: MW
HStem: -205 21G<-32 133 -32 -32> 329 180<120 156>
VStem: 49 179<401.5 436.5>
LayerCount: 2
Back
Fore
SplineSet
148 509 m 0
 194 509 228 476 228 429 c 0
 228 374 184 329 128 329 c 0
 81 329 49 363 49 410 c 0
 49 463 92 509 148 509 c 0
176 235 m 1
 133 -205 l 1
 -32 -205 l 1
 50 235 l 1
 176 235 l 1
EndSplineSet
Substitution2: "'case' Case-Sensitive Forms lookup 29 subtable" exclamdown.case
Substitution2: "'aalt' Access All Alternates lookup 0 subtable" exclamdown.case
EndChar
StartChar: cent
Encoding: 162 162 2204
Width: 470
GlyphClass: 2
Flags: MW
HStem: -15 21G<288 288> -7 21G<177 177> 427 264<275 342> 525 20G<366 366>
VStem: 27 163<168.5 251 168.5 273>
LayerCount: 2
Back
Fore
SplineSet
378 145 m 1x58
 436 44 l 1
 391 12 343 -9 288 -15 c 1x98
 267 -161 l 1
 154 -161 l 1
 177 -7 l 1
 81 19 27 99 27 212 c 0
 27 334 91 503 254 541 c 1
 275 691 l 1
 386 691 l 1x68
 366 545 l 1
 416 537 459 516 494 480 c 1x58
 417 390 l 1
 388 417 359 427 325 427 c 0x68
 217 427 190 296 190 206 c 0
 190 131 223 108 273 108 c 0
 311 108 339 121 378 145 c 1x58
EndSplineSet
Substitution2: "'onum' Oldstyle Figures lookup 26 subtable" cent.osf
Substitution2: "'tnum' Tabular Numbers lookup 25 subtable" cent.tf
AlternateSubs2: "'aalt' Access All Alternates lookup 1 subtable" cent.tf cent.osf
EndChar
StartChar: sterling
Encoding: 163 163 2213
Width: 541
GlyphClass: 2
Flags: MW
HStem: 0 119.5 311 82<60 115 48 126 279 449> 572 118<355 399.5>
VStem: -10 574
LayerCount: 2
Back
Fore
SplineSet
373 690 m 0
 462 690 523 655 564 589 c 1
 463 523 l 1
 442 560 418 572 381 572 c 0
 329 572 300 543 292 486 c 2
 279 393 l 1
 461 393 l 1
 449 311 l 1
 268 311 l 1
 258 239 l 2
 250 183 234 148 179 119 c 1
 480 120 l 1
 446 0 l 1
 -10 0 l 1
 4 114 l 1
 83 137 96 171 104 235 c 2
 115 311 l 1
 48 311 l 1
 60 393 l 1
 126 393 l 1
 140 490 l 2
 156 610 236 690 373 690 c 0
EndSplineSet
Substitution2: "'onum' Oldstyle Figures lookup 26 subtable" sterling.osf
Substitution2: "'tnum' Tabular Numbers lookup 25 subtable" sterling.tf
AlternateSubs2: "'aalt' Access All Alternates lookup 1 subtable" sterling.tf sterling.osf
EndChar

StartChar: yen
Encoding: 165 165 1068
Width: 559
Flags: MW
HStem: 0 198<165 193 63 320 165 165> 116 82<63 182 51 193 348 467> 270 82<84 180 84 204 73 180 405 489>
VStem: 50 574<676 676>
LayerCount: 2
Fore
SplineSet
405 352 m 1xb0
 500 352 l 1
 489 270 l 1
 359 270 l 1
 348 198 l 1
 479 198 l 1xb0
 467 116 l 1
 337 116 l 1x70
 320 0 l 1
 165 0 l 1xb0
 182 116 l 1
 51 116 l 1x70
 63 198 l 1
 193 198 l 1
 204 270 l 1
 73 270 l 1
 84 352 l 1
 180 352 l 1
 50 676 l 1
 212 676 l 1
 298 395 l 1
 461 676 l 1
 624 676 l 1
 405 352 l 1xb0
EndSplineSet
Substitution2: "'onum' Oldstyle Figures lookup 22 subtable" yen.osf
Substitution2: "'tnum' Tabular Numbers lookup 21 subtable" yen.tf
AlternateSubs2: "'aalt' Access All Alternates lookup 1 subtable" yen.tf yen.osf
EndChar

StartChar: brokenbar
Encoding: 166 166 1219
Width: 367
Flags: MW
HStem: -105 915<187 204 59 332>
VStem: 59 273
LayerCount: 2
Fore
SplineSet
281 443 m 1
 135 443 l 1
 187 810 l 1
 332 810 l 1
 281 443 l 1
204 -105 m 1
 59 -105 l 1
 110 262 l 1
 256 262 l 1
 204 -105 l 1
EndSplineSet
EndChar
StartChar: section
Encoding: 167 167 2383
Width: 540
GlyphClass: 2
Flags: MW
HStem: -83 109<183.5 238.5 183.5 291.5> 580 109<311 363>
VStem: 54 140<300.5 320.5> 111 149<514.5 542.5 514.5 575> 291 150<62 91.5> 358 138<284.5 304.5>
LayerCount: 2
Back
Fore
SplineSet
362 459 m 0xd4
 445 432 496 392 496 318 c 0xd4
 496 251 455 210 394 177 c 1
 426 150 441 120 441 81 c 0
 441 -2 377 -83 206 -83 c 0
 129 -83 64 -58 19 -25 c 1
 80 67 l 1
 120 39 162 26 205 26 c 0
 272 26 291 48 291 76 c 0
 291 107 272 119 187 148 c 0
 105 174 54 214 54 289 c 0xe8
 54 352 98 395 156 427 c 1
 125 455 111 487 111 523 c 0
 111 627 203 689 338 689 c 0
 412 689 481 662 529 628 c 1
 465 541 l 1
 426 567 384 580 342 580 c 0
 280 580 260 556 260 529 c 0
 260 500 279 487 362 459 c 0xd4
257 247 m 0xe4
 280 239 300 230 318 222 c 1
 344 246 358 270 358 291 c 0
 358 318 338 339 280 361 c 0
 260 367 243 374 227 381 c 1
 202 356 194 333 194 314 c 0
 194 287 210 266 257 247 c 0xe4
EndSplineSet
Substitution2: "'onum' Oldstyle Figures lookup 26 subtable" section.osf
Substitution2: "'tnum' Tabular Numbers lookup 25 subtable" section.tf
AlternateSubs2: "'aalt' Access All Alternates lookup 1 subtable" section.tf section.osf
EndChar
StartChar: dieresis
Encoding: 168 168 2522
Width: 447
Flags: MW
HStem: 641 158<159.5 187.5 387.5 416>
VStem: 94 159 322 158
LayerCount: 2
Back
Fore
SplineSet
182 799 m 0
 228 799 259 762 253 717 c 0
 247 674 210 641 165 641 c 0
 119 641 88 678 94 724 c 0
 100 766 137 799 182 799 c 0
410 799 m 0
 457 799 487 762 480 717 c 0
 475 674 439 641 393 641 c 0
 348 641 316 678 322 724 c 0
 328 766 365 799 410 799 c 0
EndSplineSet
Substitution2: "'case' Case-Sensitive Forms lookup 29 subtable" dieresis.case
Substitution2: "'smcp' Lowercase to Small Capitals lookup 28 subtable" dieresis.sc
Substitution2: "'c2sc' Capitals to Small Capitals lookup 27 subtable" dieresis.sc
AlternateSubs2: "'aalt' Access All Alternates lookup 1 subtable" dieresis.sc dieresis.case
EndChar

StartChar: ordfeminine
Encoding: 170 170 415
Width: 490
GlyphClass: 2
Flags: MW
HStem: 0 122<23 409 6 425> 264 100<146 250.5> 453 75<280 286 286 308> 593 100<271 284>
VStem: 62 144<387 413.5 387 419> 321 138<570 572>
LayerCount: 2
Fore
SplineSet
294 693 m 0
 408 693 459 653 459 575 c 0
 459 565 458 552 456 540 c 2
 437 403 l 1
 433 382 433 367 457 358 c 1
 418 267 l 1
 369 270 337 286 318 323 c 1
 282 279 233 264 185 264 c 0
 107 264 62 317 62 383 c 0
 62 455 111 528 280 528 c 2
 318 528 l 1
 319 538 l 2
 320 547 321 553 321 558 c 0
 321 586 304 593 264 593 c 0
 237 593 195 585 151 571 c 1
 130 663 l 1
 186 683 248 693 294 693 c 0
286 453 m 2
 227 453 206 430 206 397 c 0
 206 377 216 364 238 364 c 0
 263 364 284 377 300 395 c 1
 308 453 l 1
 286 453 l 2
23 122 m 1
 425 122 l 1
 409 0 l 1
 6 0 l 1
 23 122 l 1
EndSplineSet
EndChar
StartChar: guillemotleft
Encoding: 171 171 2177
Width: 618
Flags: MW
HStem: 13 543<186 258 258 455>
VStem: 30 586<234 491>
LayerCount: 2
Back
Fore
SplineSet
258 556 m 1
 348 491 l 1
 192 285 l 1
 289 78 l 1
 186 13 l 1
 30 234 l 1
 43 334 l 1
 258 556 l 1
527 556 m 1
 616 491 l 1
 460 285 l 1
 558 78 l 1
 455 13 l 1
 299 234 l 1
 312 334 l 1
 527 556 l 1
EndSplineSet
Substitution2: "'case' Case-Sensitive Forms lookup 29 subtable" guillemotleft.case
Substitution2: "'aalt' Access All Alternates lookup 0 subtable" guillemotleft.case
EndChar

StartChar: logicalnot
Encoding: 172 172 1105
Width: 520
Flags: MW
HStem: 267 123<64 346 47 491>
VStem: 47 444<267 390>
LayerCount: 2
Fore
SplineSet
452 114 m 1
 324 114 l 1
 346 267 l 1
 47 267 l 1
 64 390 l 1
 491 390 l 1
 452 114 l 1
EndSplineSet
Substitution2: "'onum' Oldstyle Figures lookup 22 subtable" logicalnot.osf
Substitution2: "'tnum' Tabular Numbers lookup 21 subtable" logicalnot.tf
AlternateSubs2: "'aalt' Access All Alternates lookup 1 subtable" logicalnot.tf logicalnot.osf
EndChar
StartChar: uni00AD
Encoding: 173 173 2169
Width: 398
Flags: MW
HStem: 252 122<40 371 57 354>
VStem: 40 331<252 374>
LayerCount: 2
Back
Fore
SplineSet
40 252 m 1
 57 374 l 1
 371 374 l 1
 354 252 l 1
 40 252 l 1
EndSplineSet
Substitution2: "'case' Case-Sensitive Forms lookup 29 subtable" uni00AD.case
Substitution2: "'aalt' Access All Alternates lookup 0 subtable" uni00AD.case
EndChar

StartChar: registered
Encoding: 174 174 1224
Width: 637
Flags: MW
HStem: 212 67<261.5 377 261.5 397.5> 454 58<286 308 286 316> 580 54<286 299 299 314 286 286> 692 67<261.5 377>
VStem: 44 78<425.5 543 425.5 562> 215 71<352 454 512 580> 359 73<535 559> 515 78<425.5 543>
LayerCount: 2
Fore
SplineSet
319 759 m 0
 476 759 593 640 593 484 c 0
 593 329 476 212 319 212 c 0
 162 212 44 329 44 484 c 0
 44 640 162 759 319 759 c 0
319 279 m 0
 435 279 515 367 515 484 c 0
 515 602 435 692 319 692 c 0
 204 692 122 602 122 484 c 0
 122 367 204 279 319 279 c 0
432 546 m 0
 432 508 408 482 374 469 c 1
 448 352 l 1
 366 352 l 1
 308 454 l 1
 286 454 l 1
 286 352 l 1
 215 352 l 1
 215 634 l 1
 299 634 l 2
 387 634 432 606 432 546 c 0
286 512 m 1
 316 512 l 2
 341 512 359 522 359 548 c 0
 359 570 343 580 314 580 c 2
 286 580 l 1
 286 512 l 1
EndSplineSet
EndChar
StartChar: macron
Encoding: 175 175 2526
Width: 360
Flags: MW
HStem: 655 110<100 385 84 400>
VStem: 84 316<655 765>
LayerCount: 2
Back
Fore
SplineSet
385 655 m 1
 84 655 l 1
 100 765 l 1
 400 765 l 1
 385 655 l 1
EndSplineSet
Substitution2: "'case' Case-Sensitive Forms lookup 29 subtable" macron.case
Substitution2: "'smcp' Lowercase to Small Capitals lookup 28 subtable" macron.sc
Substitution2: "'c2sc' Capitals to Small Capitals lookup 27 subtable" macron.sc
AlternateSubs2: "'aalt' Access All Alternates lookup 1 subtable" macron.sc macron.case
EndChar
StartChar: plusminus
Encoding: 177 177 2275
Width: 520
GlyphClass: 2
Flags: MW
HStem: 0 122<16 449 33 431> 343 122<75 206 58 224 352 484 75 335>
VStem: 16 485<0 465>
LayerCount: 2
Back
Fore
SplineSet
374 622 m 1
 352 465 l 1
 501 465 l 1
 484 343 l 1
 335 343 l 1
 313 188 l 1
 184 188 l 1
 206 343 l 1
 58 343 l 1
 75 465 l 1
 224 465 l 1
 245 622 l 1
 374 622 l 1
16 0 m 1
 33 122 l 1
 449 122 l 1
 431 0 l 1
 16 0 l 1
EndSplineSet
Substitution2: "'onum' Oldstyle Figures lookup 26 subtable" plusminus.osf
Substitution2: "'tnum' Tabular Numbers lookup 25 subtable" plusminus.tf
AlternateSubs2: "'aalt' Access All Alternates lookup 1 subtable" plusminus.tf plusminus.osf
EndChar

StartChar: twosuperior
Encoding: 178 178 972
Width: 390
Flags: MW
HStem: 321 88.5 664 88<185 212.5>
VStem: 239 120
LayerCount: 2
Fore
SplineSet
218 752 m 0
 324 752 369 688 359 620 c 0
 351 562 319 519 168 409 c 1
 339 410 l 1
 315 321 l 1
 22 321 l 1
 32 405 l 1
 193 536 233 571 239 617 c 0
 243 646 227 664 198 664 c 0
 167 664 145 650 117 620 c 1
 53 676 l 1
 95 721 152 752 218 752 c 0
EndSplineSet
EndChar
StartChar: uni00B3
Encoding: 179 179 2111
Width: 390
Flags: MW
HStem: 309 88<144 177 144 215.5> 501 80<157 172 132 181> 523 20G 665 87<191 216>
VStem: 229 118 245 116
LayerCount: 2
Back
Fore
SplineSet
221 752 m 0xd4
 322 752 369 701 361 639 c 0xd4
 354 591 320 558 255 543 c 1xb8
 314 539 356 506 347 434 c 0
 337 368 272 309 159 309 c 0
 87 309 39 337 10 378 c 1
 79 435 l 1
 103 407 129 397 159 397 c 0
 195 397 224 416 229 452 c 0
 234 487 215 501 172 501 c 2
 132 501 l 1
 157 581 l 1xd8
 181 581 l 2
 218 581 240 597 245 627 c 0
 249 651 231 665 201 665 c 0
 169 665 139 651 112 629 c 1
 61 694 l 1
 107 733 161 752 221 752 c 0xd4
EndSplineSet
EndChar

StartChar: acute
Encoding: 180 180 1252
Width: 330
Flags: MW
HStem: 622 213<121 321>
VStem: 90 276<703 717>
LayerCount: 2
Fore
SplineSet
366 717 m 1
 121 622 l 1
 90 703 l 1
 321 835 l 1
 366 717 l 1
EndSplineSet
Substitution2: "'case' Case-Sensitive Forms lookup 25 subtable" acute.case
Substitution2: "'smcp' Lowercase to Small Capitals lookup 24 subtable" acute.sc
Substitution2: "'c2sc' Capitals to Small Capitals lookup 23 subtable" acute.sc
Substitution2: "'locl' Localized Forms in Latin lookup 7 subtable" acute.loclPLK
AlternateSubs2: "'aalt' Access All Alternates lookup 1 subtable" acute.loclPLK acute.sc acute.case
EndChar

StartChar: uni00B5
Encoding: 181 181 1106
Width: 572
Flags: MW
HStem: -220 21G<-7 -7> -16 21G<347 347> -8 110<227.5 244> -1 21G<491 491> 511 20G<98 253 253 253 386 541 541 541>
VStem: 337 147.75
LayerCount: 2
Fore
SplineSet
492 181 m 2x9c
 481 100 484 40 491 -1 c 1x9c
 347 -16 l 1xcc
 338 13 337 34 337 68 c 1
 306 21 269 -8 219 -8 c 0
 188 -8 167 0 154 14 c 1
 161 -15 164 -45 154 -115 c 2
 141 -205 l 1
 -7 -220 l 1
 98 531 l 1
 253 531 l 1
 201 161 l 2
 195 115 215 102 240 102 c 0
 271 102 305 120 336 167 c 1xac
 386 531 l 1
 541 531 l 1
 492 181 l 2x9c
EndSplineSet
EndChar
StartChar: paragraph
Encoding: 182 182 2380
Width: 778
GlyphClass: 2
Flags: MW
HStem: -223 21G<232 232 458 458> 583 110<480 571 480 480>
VStem: 92.56 629.44
LayerCount: 2
Back
Fore
SplineSet
390 693 m 1
 722 693 l 1
 596 -205 l 1
 458 -223 l 1
 571 583 l 1
 480 583 l 1
 370 -205 l 1
 232 -223 l 1
 300 263 l 1
 145 268 78 357 95 481 c 0
 114 614 220 697 389 693 c 1
 388 692 l 1
 390 693 l 1
EndSplineSet
EndChar
StartChar: cedilla
Encoding: 184 184 2520
Width: 316
Flags: MW
HStem: -262 86<52 79.5 52 127.5> -112 128<62 62.5>
VStem: 116 113
LayerCount: 2
Back
Fore
SplineSet
149 16 m 1
 138 -48 l 1
 200 -55 229 -89 229 -138 c 0
 229 -191 187 -262 68 -262 c 0
 21 -262 -16 -247 -40 -230 c 1
 5 -159 l 1
 22 -170 40 -176 64 -176 c 0
 95 -176 115 -166 116 -143 c 0
 117 -120 94 -112 31 -112 c 1
 62 16 l 1
 149 16 l 1
EndSplineSet
Substitution2: "'case' Case-Sensitive Forms lookup 29 subtable" cedilla.case
Substitution2: "'smcp' Lowercase to Small Capitals lookup 28 subtable" cedilla.sc
Substitution2: "'c2sc' Capitals to Small Capitals lookup 27 subtable" cedilla.sc
AlternateSubs2: "'aalt' Access All Alternates lookup 1 subtable" cedilla.sc cedilla.case
EndChar

StartChar: onesuperior
Encoding: 185 185 971
Width: 390
Flags: MW
HStem: 722 20G<217 322 322 322>
VStem: 54 268<653 742>
LayerCount: 2
Fore
SplineSet
263 321 m 1
 149 321 l 1
 193 632 l 1
 96 575 l 1
 54 653 l 1
 217 742 l 1
 322 742 l 1
 263 321 l 1
EndSplineSet
EndChar
StartChar: ordmasculine
Encoding: 186 186 1057
Width: 490
GlyphClass: 2
Flags: MW
HStem: 0 122<0 433 17 416> 264 102<239.5 294.5 239.5 344> 591 102<256.5 311>
VStem: 62 143<409.5 463.5 409.5 492> 345 143<497 549.5>
LayerCount: 2
Back
Fore
SplineSet
298 693 m 0
 415 693 488 631 488 518 c 0
 488 414 435 264 253 264 c 0
 136 264 62 327 62 439 c 0
 62 545 117 693 298 693 c 0
294 591 m 0
 219 591 205 494 205 433 c 0
 205 386 222 366 257 366 c 0
 332 366 345 468 345 526 c 0
 345 573 328 591 294 591 c 0
0 0 m 1
 17 122 l 1
 433 122 l 1
 416 0 l 1
 0 0 l 1
EndSplineSet
EndChar

StartChar: guillemotright
Encoding: 187 187 1037
Width: 616
Flags: MW
HStem: 13 543<96 169 169 362>
VStem: 7 584<78 334>
LayerCount: 2
Fore
SplineSet
326 334 m 1
 312 234 l 1
 96 13 l 1
 7 78 l 1
 164 285 l 1
 66 491 l 1
 169 556 l 1
 326 334 l 1
591 334 m 1
 578 234 l 1
 362 13 l 1
 273 78 l 1
 430 285 l 1
 332 491 l 1
 435 556 l 1
 591 334 l 1
EndSplineSet
Substitution2: "'case' Case-Sensitive Forms lookup 25 subtable" guillemotright.case
Substitution2: "'aalt' Access All Alternates lookup 0 subtable" guillemotright.case
EndChar
StartChar: onequarter
Encoding: 188 188 2066
Width: 940
Flags: MW
HStem: 0 170<723 748 677 833 723 723> 84 86<677 734 857 889> 673 20G<210 315 315 315> 739 20G<695 695>
VStem: 47 855<170 604>
LayerCount: 2
Back
Fore
SplineSet
695 759 m 1xb8
 780 714 l 1
 264 -85 l 1
 179 -40 l 1
 695 759 l 1xb8
256 272 m 1
 142 272 l 1
 186 583 l 1
 89 526 l 1
 47 604 l 1
 210 693 l 1
 315 693 l 1
 256 272 l 1
902 170 m 1
 889 84 l 1
 845 84 l 1x78
 833 0 l 1
 723 0 l 1xb8
 734 84 l 1
 546 84 l 1
 557 162 l 1x78
 713 431 l 1
 806 395 l 1
 677 170 l 1
 748 170 l 1
 782 265 l 1
 870 265 l 1
 857 170 l 1
 902 170 l 1
EndSplineSet
EndChar

StartChar: onehalf
Encoding: 189 189 925
Width: 940
Flags: MW
HStem: 0 88.5 343 88<726 753.5> 673 20G<210 315 315 315> 739 20G<695 695>
VStem: 47 854.15 780 120
LayerCount: 2
Fore
SplineSet
780 714 m 1xf8
 264 -85 l 1
 179 -40 l 1
 695 759 l 1
 780 714 l 1xf8
256 272 m 1
 142 272 l 1
 186 583 l 1
 89 526 l 1
 47 604 l 1
 210 693 l 1
 315 693 l 1
 256 272 l 1
759 431 m 0xf4
 865 431 910 367 900 299 c 0
 892 241 860 198 709 88 c 1
 880 89 l 1
 856 0 l 1
 563 0 l 1
 573 84 l 1
 734 215 774 250 780 296 c 0
 784 325 768 343 739 343 c 0
 708 343 686 329 658 299 c 1
 594 355 l 1
 636 400 693 431 759 431 c 0xf4
EndSplineSet
EndChar
StartChar: threequarters
Encoding: 190 190 2067
Width: 940
Flags: MW
HStem: 0 170<723 748 677 833 723 723> 84 86<677 734 857 889> 260 88<137 170 137 208.5> 452 42 452 80<150 165 125 174> 616 87<184 209> 739 20G<695 695>
VStem: 222 118 238 116
LayerCount: 2
Back
Fore
SplineSet
695 759 m 1xaf
 780 714 l 1
 264 -85 l 1
 179 -40 l 1
 695 759 l 1xaf
340 385 m 0
 330 319 265 260 152 260 c 0
 80 260 32 288 3 329 c 1
 72 386 l 1
 96 358 122 348 152 348 c 0
 188 348 217 367 222 403 c 0
 227 438 208 452 165 452 c 2
 125 452 l 1
 150 532 l 1xaf
 174 532 l 2
 211 532 233 548 238 578 c 0
 242 602 224 616 194 616 c 0
 162 616 132 602 105 580 c 1
 54 645 l 1
 100 684 154 703 214 703 c 0
 315 703 362 652 354 590 c 0xae80
 347 542 313 509 248 494 c 1xb7
 307 490 349 457 340 385 c 0
902 170 m 1
 889 84 l 1
 845 84 l 1x6f
 833 0 l 1
 723 0 l 1xaf
 734 84 l 1
 546 84 l 1
 557 162 l 1x6f
 713 431 l 1
 806 395 l 1
 677 170 l 1
 748 170 l 1
 782 265 l 1
 870 265 l 1
 857 170 l 1
 902 170 l 1
EndSplineSet
EndChar

StartChar: questiondown
Encoding: 191 191 992
Width: 472
Flags: MW
HStem: -223 125<172 211.5 172 213> 328 180<251.5 285>
VStem: -33 165<-68.5 -1 -68.5 24> 179 179<400.5 435> 197 142<212 213.5 120 215>
LayerCount: 2
Fore
SplineSet
258 328 m 0xf0
 212 328 179 363 179 408 c 0
 179 462 225 508 278 508 c 0
 325 508 358 472 358 427 c 0
 358 374 312 328 258 328 c 0xf0
163 -223 m 0
 31 -223 -33 -156 -33 -75 c 0
 -33 123 196 90 197 212 c 0
 197 218 196 226 194 234 c 1
 332 255 l 1
 337 239 339 221 339 206 c 0xe8
 339 34 132 52 132 -54 c 0
 132 -83 153 -98 191 -98 c 0
 232 -98 275 -77 317 -36 c 1
 405 -117 l 1
 341 -184 263 -223 163 -223 c 0
EndSplineSet
Substitution2: "'case' Case-Sensitive Forms lookup 25 subtable" questiondown.case
Substitution2: "'aalt' Access All Alternates lookup 0 subtable" questiondown.case
EndChar
StartChar: Aacute
Encoding: 193 193 3
Width: 581
GlyphClass: 2
Flags: MW
HStem: 0 21G<-51 117 -51 -51 387 557 387 387> 149 119<216 362 216 373 172 362> 583 110<332 332> 673 20G<253 448 448 448>
VStem: -51 608<0 0>
AnchorPoint: "Anchor-14" 0 0 basechar 0
AnchorPoint: "Anchor-13" 0 0 basechar 0
AnchorPoint: "Anchor-12" 376 957 basechar 0
AnchorPoint: "Anchor-11" 491 0 basechar 0
AnchorPoint: "Anchor-10" 252 0 basechar 0
LayerCount: 2
Back
Fore
SplineSet
514 838 m 1xd8
 273 747 l 1
 234 827 l 1
 457 957 l 1
 514 838 l 1xd8
387 0 m 1
 373 149 l 1
 172 149 l 1
 117 0 l 1
 -51 0 l 1
 253 693 l 1
 448 693 l 1
 557 0 l 1
 387 0 l 1
216 268 m 1
 362 268 l 1
 332 583 l 1xe8
 216 268 l 1
EndSplineSet
Substitution2: "'c2sc' Capitals to Small Capitals lookup 27 subtable" aacute.sc
Substitution2: "'aalt' Access All Alternates lookup 0 subtable" aacute.sc
Position2: "'cpsp' Capital Spacing lookup 0 subtable" dx=5 dy=0 dh=10 dv=0
EndChar
StartChar: Acircumflex
Encoding: 194 194 11
Width: 581
GlyphClass: 2
Flags: MW
HStem: 0 21G<-51 117 -51 -51 387 557 387 387> 149 119<216 362 216 373 172 362> 583 110<332 332> 673 20G<253 448 448 448>
VStem: -51 608<0 0>
AnchorPoint: "Anchor-14" 0 0 basechar 0
AnchorPoint: "Anchor-13" 473 830 basechar 0
AnchorPoint: "Anchor-12" 380 949 basechar 0
AnchorPoint: "Anchor-11" 491 0 basechar 0
AnchorPoint: "Anchor-10" 252 0 basechar 0
LayerCount: 2
Back
Fore
SplineSet
369 839 m 1xd8
 227 755 l 1
 176 820 l 1
 333 949 l 1
 428 949 l 1
 549 820 l 1
 488 755 l 1
 369 839 l 1xd8
387 0 m 1
 373 149 l 1
 172 149 l 1
 117 0 l 1
 -51 0 l 1
 253 693 l 1
 448 693 l 1
 557 0 l 1
 387 0 l 1
216 268 m 1
 362 268 l 1
 332 583 l 1xe8
 216 268 l 1
EndSplineSet
Substitution2: "'c2sc' Capitals to Small Capitals lookup 27 subtable" acircumflex.sc
Substitution2: "'aalt' Access All Alternates lookup 0 subtable" acircumflex.sc
Position2: "'cpsp' Capital Spacing lookup 0 subtable" dx=5 dy=0 dh=10 dv=0
EndChar
StartChar: Atilde
Encoding: 195 195 32
Width: 581
GlyphClass: 2
Flags: MW
HStem: 0 21G<-51 117 -51 -51 387 557 387 387> 149 119<216 362 216 373 172 362> 583 110<332 332> 673 20G<253 448 448 448> 761 112<415 441.5 415 451> 806 112<302.5 330>
VStem: -51 614
AnchorPoint: "Anchor-14" 0 0 basechar 0
AnchorPoint: "Anchor-13" 0 0 basechar 0
AnchorPoint: "Anchor-12" 374 919 basechar 0
AnchorPoint: "Anchor-11" 491 0 basechar 0
AnchorPoint: "Anchor-10" 252 0 basechar 0
LayerCount: 2
Back
Fore
SplineSet
315 806 m 0xd6
 290 806 274 789 254 760 c 1
 182 802 l 1
 215 865 264 918 322 918 c 0xd6
 379 918 400 873 430 873 c 0
 453 873 469 889 490 918 c 1
 563 877 l 1
 528 810 478 761 424 761 c 0xda
 372 761 345 806 315 806 c 0xd6
253 693 m 1
 448 693 l 1
 557 0 l 1
 387 0 l 1
 373 149 l 1
 172 149 l 1
 117 0 l 1
 -51 0 l 1
 253 693 l 1
216 268 m 1
 362 268 l 1
 332 583 l 1xe6
 216 268 l 1
EndSplineSet
Substitution2: "'c2sc' Capitals to Small Capitals lookup 27 subtable" atilde.sc
Substitution2: "'aalt' Access All Alternates lookup 0 subtable" atilde.sc
Position2: "'cpsp' Capital Spacing lookup 0 subtable" dx=5 dy=0 dh=10 dv=0
EndChar
StartChar: Adieresis
Encoding: 196 196 18
Width: 581
GlyphClass: 2
Flags: MW
HStem: 0 21G<-51 117 -51 -51 387 557 387 387> 149 119<216 362 216 373 172 362> 583 110<332 332> 673 20G<253 448 448 448> 767 158<241.5 269.5 469.5 498>
VStem: 176 159 404 158
AnchorPoint: "Anchor-14" 0 0 basechar 0
AnchorPoint: "Anchor-13" 0 0 basechar 0
AnchorPoint: "Anchor-12" 377 925 basechar 0
AnchorPoint: "Anchor-11" 491 0 basechar 0
AnchorPoint: "Anchor-10" 252 0 basechar 0
LayerCount: 2
Back
Fore
SplineSet
247 767 m 0xde
 201 767 170 804 176 850 c 0
 182 892 219 925 264 925 c 0
 310 925 341 888 335 843 c 0
 329 800 292 767 247 767 c 0xde
492 925 m 0
 539 925 569 888 562 843 c 0
 557 800 521 767 475 767 c 0
 430 767 398 804 404 850 c 0
 410 892 447 925 492 925 c 0
253 693 m 1
 448 693 l 1
 557 0 l 1
 387 0 l 1
 373 149 l 1
 172 149 l 1
 117 0 l 1
 -51 0 l 1
 253 693 l 1
216 268 m 1
 362 268 l 1
 332 583 l 1xe4
 216 268 l 1
EndSplineSet
Substitution2: "'c2sc' Capitals to Small Capitals lookup 27 subtable" adieresis.sc
Substitution2: "'aalt' Access All Alternates lookup 0 subtable" adieresis.sc
Position2: "'cpsp' Capital Spacing lookup 0 subtable" dx=5 dy=0 dh=10 dv=0
EndChar
StartChar: Aring
Encoding: 197 197 29
Width: 581
GlyphClass: 2
Flags: MW
HStem: 0 21G<-51 117 -51 -51 387 557 387 387> 149 119<216 362 216 373 172 362> 583 110<332 332> 673 20G<253 448 448 448> 731 81<355 385 355 406> 913 80<366 396>
VStem: 238 91<839 867.5 839 886> 422 91<856.5 885.5>
AnchorPoint: "Anchor-14" 0 0 basechar 0
AnchorPoint: "Anchor-13" 0 0 basechar 0
AnchorPoint: "Anchor-12" 391 993 basechar 0
AnchorPoint: "Anchor-11" 491 0 basechar 0
AnchorPoint: "Anchor-10" 252 0 basechar 0
LayerCount: 2
Back
Fore
SplineSet
360 731 m 0xdf
 283 731 238 781 238 849 c 0
 238 923 300 993 391 993 c 0
 469 993 513 942 513 875 c 0
 513 800 452 731 360 731 c 0xdf
384 913 m 0
 348 913 329 882 329 853 c 0
 329 825 343 812 367 812 c 0
 403 812 422 841 422 872 c 0
 422 899 408 913 384 913 c 0
387 0 m 1
 373 149 l 1
 172 149 l 1
 117 0 l 1
 -51 0 l 1
 253 693 l 1
 448 693 l 1
 557 0 l 1
 387 0 l 1
216 268 m 1
 362 268 l 1
 332 583 l 1xef
 216 268 l 1
EndSplineSet
Substitution2: "'c2sc' Capitals to Small Capitals lookup 27 subtable" aring.sc
Substitution2: "'aalt' Access All Alternates lookup 0 subtable" aring.sc
Position2: "'cpsp' Capital Spacing lookup 0 subtable" dx=5 dy=0 dh=10 dv=0
EndChar

StartChar: AE
Encoding: 198 198 11
Width: 832
GlyphClass: 2
Flags: MW
HStem: 0 118<553 763> 149 119<242 398 242 403 186 398> 293 115<542 760 542 542> 576 117<524 524 524 791>
VStem: 391.5 138 406 141.5
AnchorPoint: "Anchor-11" 0 0 basechar 0
AnchorPoint: "Anchor-10" 0 0 basechar 0
AnchorPoint: "Anchor-9" 537 693 basechar 0
AnchorPoint: "Anchor-8" 0 0 basechar 0
LayerCount: 2
Fore
SplineSet
524 576 m 1xb8
 535 408 l 1xb8
 775 408 l 1
 760 293 l 1
 542 293 l 1xb4
 553 118 l 1
 780 118 l 1
 763 0 l 1
 409 0 l 1
 403 149 l 1
 186 149 l 1xf4
 116 0 l 1
 -58 0 l 1
 299 693 l 1
 824 693 l 1
 791 576 l 1
 524 576 l 1xb8
398 268 m 1xf8
 385 573 l 1
 242 268 l 1
 398 268 l 1xf8
EndSplineSet
Substitution2: "'c2sc' Capitals to Small Capitals lookup 23 subtable" ae.sc
Substitution2: "'aalt' Access All Alternates lookup 0 subtable" ae.sc
Position2: "'cpsp' Capital Spacing lookup 0 subtable" dx=5 dy=0 dh=10 dv=0
EndChar

StartChar: Ccedilla
Encoding: 199 199 17
Width: 565
GlyphClass: 2
Flags: MW
HStem: -262 86<233.5 259.5 233.5 310> -16 126<325 325> -11 21G<238 238> 589 121<324.5 421>
VStem: 39 167<213 330 213 364> 299 112
AnchorPoint: "Anchor-11" 299 0 basechar 0
AnchorPoint: "Anchor-10" 0 0 basechar 0
AnchorPoint: "Anchor-9" 408 693 basechar 0
AnchorPoint: "Anchor-8" 0 0 basechar 0
LayerCount: 2
Fore
SplineSet
531 71 m 1xdc
 482 28 410 -11 325 -16 c 1
 320 -48 l 1xdc
 382 -55 411 -89 411 -136 c 0
 411 -190 370 -262 250 -262 c 0
 203 -262 166 -247 142 -230 c 1
 187 -159 l 1
 204 -170 222 -176 245 -176 c 0
 274 -176 298 -166 299 -143 c 0
 300 -120 276 -112 213 -112 c 1
 238 -11 l 1xbc
 114 14 39 110 39 269 c 0
 39 459 134 710 395 710 c 0
 485 710 552 681 600 628 c 1
 511 540 l 1
 478 572 444 589 398 589 c 0
 251 589 206 391 206 269 c 0
 206 157 253 110 328 110 c 0
 383 110 426 138 469 169 c 1
 531 71 l 1xdc
EndSplineSet
Substitution2: "'c2sc' Capitals to Small Capitals lookup 23 subtable" ccedilla.sc
Substitution2: "'aalt' Access All Alternates lookup 0 subtable" ccedilla.sc
Position2: "'cpsp' Capital Spacing lookup 0 subtable" dx=5 dy=0 dh=10 dv=0
EndChar

StartChar: Egrave
Encoding: 200 200 31
Width: 517
GlyphClass: 2
Flags: MW
HStem: 0 118<205 446> 295 115<245 440 230 455> 576 117<269 509 269 269>
VStem: 27 516
AnchorPoint: "Anchor-11" 237 0 basechar 0
AnchorPoint: "Anchor-10" -12 534 basechar 0
AnchorPoint: "Anchor-9" 335 693 basechar 0
AnchorPoint: "Anchor-8" 416 0 basechar 0
LayerCount: 2
Fore
SplineSet
499 828 m 1
 454 748 l 1
 221 839 l 1
 286 958 l 1
 499 828 l 1
509 576 m 1
 269 576 l 1
 245 410 l 1
 455 410 l 1
 440 295 l 1
 230 295 l 1
 205 118 l 1
 462 118 l 1
 446 0 l 1
 27 0 l 1
 124 693 l 1
 543 693 l 1
 509 576 l 1
EndSplineSet
Substitution2: "'c2sc' Capitals to Small Capitals lookup 23 subtable" egrave.sc
Substitution2: "'aalt' Access All Alternates lookup 0 subtable" egrave.sc
Position2: "'cpsp' Capital Spacing lookup 0 subtable" dx=5 dy=0 dh=10 dv=0
EndChar

StartChar: Ecircumflex
Encoding: 202 202 28
Width: 517
GlyphClass: 2
Flags: MW
HStem: 0 118<205 446> 295 115<245 440 230 455> 576 117<269 509 269 269>
VStem: 27 517
AnchorPoint: "Anchor-11" 237 0 basechar 0
AnchorPoint: "Anchor-10" -12 534 basechar 0
AnchorPoint: "Anchor-9" 335 693 basechar 0
AnchorPoint: "Anchor-8" 416 0 basechar 0
LayerCount: 2
Fore
SplineSet
364 839 m 1
 222 755 l 1
 171 820 l 1
 328 949 l 1
 423 949 l 1
 544 820 l 1
 483 755 l 1
 364 839 l 1
509 576 m 1
 269 576 l 1
 245 410 l 1
 455 410 l 1
 440 295 l 1
 230 295 l 1
 205 118 l 1
 462 118 l 1
 446 0 l 1
 27 0 l 1
 124 693 l 1
 543 693 l 1
 509 576 l 1
EndSplineSet
Substitution2: "'c2sc' Capitals to Small Capitals lookup 23 subtable" ecircumflex.sc
Substitution2: "'aalt' Access All Alternates lookup 0 subtable" ecircumflex.sc
Position2: "'cpsp' Capital Spacing lookup 0 subtable" dx=5 dy=0 dh=10 dv=0
EndChar

StartChar: Edieresis
Encoding: 203 203 29
Width: 517
GlyphClass: 2
Flags: MW
HStem: 0 118<205 446> 295 115<245 440 230 455> 576 117<269 509 269 269> 767 158<229.5 256 458 484.5>
VStem: 164 158 392 158
AnchorPoint: "Anchor-11" 237 0 basechar 0
AnchorPoint: "Anchor-10" -12 534 basechar 0
AnchorPoint: "Anchor-9" 357 857 basechar 0
AnchorPoint: "Anchor-8" 416 0 basechar 0
LayerCount: 2
Fore
SplineSet
251 925 m 0
 297 925 329 888 322 843 c 0
 316 800 278 767 234 767 c 0
 189 767 157 804 164 850 c 1
 169 892 208 925 251 925 c 0
479 925 m 0
 526 925 557 888 550 843 c 0
 544 800 507 767 462 767 c 0
 417 767 385 804 392 850 c 1
 397 892 437 925 479 925 c 0
509 576 m 1
 269 576 l 1
 245 410 l 1
 455 410 l 1
 440 295 l 1
 230 295 l 1
 205 118 l 1
 462 118 l 1
 446 0 l 1
 27 0 l 1
 124 693 l 1
 543 693 l 1
 509 576 l 1
EndSplineSet
Substitution2: "'c2sc' Capitals to Small Capitals lookup 23 subtable" edieresis.sc
Substitution2: "'aalt' Access All Alternates lookup 0 subtable" edieresis.sc
Position2: "'cpsp' Capital Spacing lookup 0 subtable" dx=5 dy=0 dh=10 dv=0
EndChar
StartChar: Igrave
Encoding: 204 204 126
Width: 290
GlyphClass: 2
Flags: MW
HStem: 0 21G<27 188 27 27> 673 20G<124 285 285 285>
VStem: 27 339
AnchorPoint: "Anchor-14" 0 0 basechar 0
AnchorPoint: "Anchor-13" 0 0 basechar 0
AnchorPoint: "Anchor-12" 229 958 basechar 0
AnchorPoint: "Anchor-11" 162 0 basechar 0
AnchorPoint: "Anchor-10" 107 0 basechar 0
LayerCount: 2
Back
Fore
SplineSet
153 958 m 1
 366 828 l 1
 321 748 l 1
 88 839 l 1
 153 958 l 1
285 693 m 1
 188 0 l 1
 27 0 l 1
 124 693 l 1
 285 693 l 1
EndSplineSet
Substitution2: "'c2sc' Capitals to Small Capitals lookup 27 subtable" igrave.sc
Substitution2: "'aalt' Access All Alternates lookup 0 subtable" igrave.sc
Position2: "'cpsp' Capital Spacing lookup 0 subtable" dx=5 dy=0 dh=10 dv=0
EndChar
StartChar: Iacute
Encoding: 205 205 117
Width: 290
GlyphClass: 2
Flags: MW
HStem: 0 21G<27 188 27 27> 673 20G<124 285 285 285>
VStem: 27 341
AnchorPoint: "Anchor-14" 0 0 basechar 0
AnchorPoint: "Anchor-13" 0 0 basechar 0
AnchorPoint: "Anchor-12" 230 957 basechar 0
AnchorPoint: "Anchor-11" 162 0 basechar 0
AnchorPoint: "Anchor-10" 107 0 basechar 0
LayerCount: 2
Back
Fore
SplineSet
311 957 m 1
 368 838 l 1
 127 747 l 1
 88 827 l 1
 311 957 l 1
285 693 m 1
 188 0 l 1
 27 0 l 1
 124 693 l 1
 285 693 l 1
EndSplineSet
Substitution2: "'c2sc' Capitals to Small Capitals lookup 27 subtable" iacute.sc
Substitution2: "'aalt' Access All Alternates lookup 0 subtable" iacute.sc
Position2: "'cpsp' Capital Spacing lookup 0 subtable" dx=5 dy=0 dh=10 dv=0
EndChar

StartChar: Icircumflex
Encoding: 206 206 47
Width: 290
GlyphClass: 2
Flags: MW
HStem: 0 21G<27 189 27 27> 673 20G<124 286 286 286>
VStem: 27 387
AnchorPoint: "Anchor-11" 0 0 basechar 0
AnchorPoint: "Anchor-10" -12 534 basechar 0
AnchorPoint: "Anchor-9" 205 693 basechar 0
AnchorPoint: "Anchor-8" 171 0 basechar 0
LayerCount: 2
Fore
SplineSet
234 839 m 1
 92 755 l 1
 41 820 l 1
 198 949 l 1
 293 949 l 1
 414 820 l 1
 353 755 l 1
 234 839 l 1
189 0 m 1
 27 0 l 1
 124 693 l 1
 286 693 l 1
 189 0 l 1
EndSplineSet
Substitution2: "'c2sc' Capitals to Small Capitals lookup 23 subtable" icircumflex.sc
Substitution2: "'aalt' Access All Alternates lookup 0 subtable" icircumflex.sc
Position2: "'cpsp' Capital Spacing lookup 0 subtable" dx=5 dy=0 dh=10 dv=0
EndChar

StartChar: Idieresis
Encoding: 207 207 48
Width: 290
GlyphClass: 2
Flags: MW
HStem: 0 21G<27 189 27 27> 673 20G<124 286 286 286> 767 158<99.5 126 328 354.5>
VStem: 34 158 262 158
AnchorPoint: "Anchor-11" 0 0 basechar 0
AnchorPoint: "Anchor-10" -12 534 basechar 0
AnchorPoint: "Anchor-9" 227 857 basechar 0
AnchorPoint: "Anchor-8" 171 0 basechar 0
LayerCount: 2
Fore
SplineSet
121 925 m 0
 167 925 199 888 192 843 c 0
 186 800 148 767 104 767 c 0
 59 767 27 804 34 850 c 1
 39 892 78 925 121 925 c 0
349 925 m 0
 396 925 427 888 420 843 c 0
 414 800 377 767 332 767 c 0
 287 767 255 804 262 850 c 1
 267 892 307 925 349 925 c 0
189 0 m 1
 27 0 l 1
 124 693 l 1
 286 693 l 1
 189 0 l 1
EndSplineSet
Substitution2: "'c2sc' Capitals to Small Capitals lookup 23 subtable" idieresis.sc
Substitution2: "'aalt' Access All Alternates lookup 0 subtable" idieresis.sc
Position2: "'cpsp' Capital Spacing lookup 0 subtable" dx=5 dy=0 dh=10 dv=0
EndChar
StartChar: Eth
Encoding: 208 208 54
Width: 651
GlyphClass: 2
Flags: MW
HStem: 0 119<214 243> 304 98<29 80 16 93 254 373> 574 119<278 322 322 331 278 278>
VStem: 470 166<363 489.5>
AnchorPoint: "Anchor-14" 342 347 basechar 0
AnchorPoint: "Anchor-13" 0 0 basechar 0
AnchorPoint: "Anchor-12" 361 693 basechar 0
AnchorPoint: "Anchor-11" 0 0 basechar 0
AnchorPoint: "Anchor-10" 261 0 basechar 0
LayerCount: 2
Back
Fore
SplineSet
322 693 m 2
 486 693 636 644 636 430 c 0
 636 205 539 0 243 0 c 2
 37 0 l 1
 80 304 l 1
 16 304 l 1
 29 402 l 1
 93 402 l 1
 134 693 l 1
 322 693 l 2
267 119 m 2
 430 119 470 296 470 430 c 0
 470 549 411 574 331 574 c 2
 278 574 l 1
 254 402 l 1
 387 402 l 1
 373 304 l 1
 240 304 l 1
 214 119 l 1
 267 119 l 2
EndSplineSet
Substitution2: "'c2sc' Capitals to Small Capitals lookup 27 subtable" eth.sc
Substitution2: "'aalt' Access All Alternates lookup 0 subtable" eth.sc
Position2: "'cpsp' Capital Spacing lookup 0 subtable" dx=5 dy=0 dh=10 dv=0
EndChar
StartChar: Ntilde
Encoding: 209 209 169
Width: 653
GlyphClass: 2
Flags: MW
HStem: 0 21G<27 170 27 27 348 552 348 348> 0 136<457 457 457 552 348 457> 557 136<220 220> 673 20G<124 327 327 327 506 649 649 649> 761 112<455 481.5 455 491> 806 112<342.5 370>
VStem: 27 622
AnchorPoint: "Anchor-14" 0 0 basechar 0
AnchorPoint: "Anchor-13" 0 0 basechar 0
AnchorPoint: "Anchor-12" 414 919 basechar 0
AnchorPoint: "Anchor-11" 0 0 basechar 0
AnchorPoint: "Anchor-10" 291 0 basechar 0
LayerCount: 2
Back
Fore
SplineSet
464 761 m 0x9a
 412 761 385 806 355 806 c 0
 330 806 314 789 294 760 c 1
 222 802 l 1
 255 865 304 918 362 918 c 0x96
 419 918 440 873 470 873 c 0
 493 873 509 889 530 918 c 1
 603 877 l 1
 568 810 518 761 464 761 c 0x9a
649 693 m 1x56
 552 0 l 1
 348 0 l 1
 220 557 l 1xa6
 223 471 224 381 205 246 c 2
 170 0 l 1
 27 0 l 1
 124 693 l 1
 327 693 l 1
 457 136 l 1
 452 232 451 304 467 421 c 2
 506 693 l 1
 649 693 l 1x56
EndSplineSet
Substitution2: "'c2sc' Capitals to Small Capitals lookup 27 subtable" ntilde.sc
Substitution2: "'aalt' Access All Alternates lookup 0 subtable" ntilde.sc
Position2: "'cpsp' Capital Spacing lookup 0 subtable" dx=5 dy=0 dh=10 dv=0
EndChar
StartChar: Oacute
Encoding: 211 211 172
Width: 681
GlyphClass: 2
Flags: MW
HStem: -17 120<280 390.5 280 442> 590 120<313.5 425>
VStem: 39 166<200.5 312 200.5 359.5> 499 166<382 493.5>
AnchorPoint: "Anchor-14" 0 0 basechar 0
AnchorPoint: "Anchor-13" 629 693 basechar 0
AnchorPoint: "Anchor-12" 427 957 basechar 0
AnchorPoint: "Anchor-11" 0 0 basechar 0
AnchorPoint: "Anchor-10" 303 0 basechar 0
LayerCount: 2
Back
Fore
SplineSet
508 957 m 1
 565 838 l 1
 324 747 l 1
 285 827 l 1
 508 957 l 1
401 710 m 0
 569 710 665 607 665 426 c 0
 665 240 580 -17 304 -17 c 0
 135 -17 39 87 39 267 c 0
 39 452 125 710 401 710 c 0
389 590 m 0
 238 590 205 369 205 255 c 0
 205 146 245 103 315 103 c 0
 466 103 499 324 499 440 c 0
 499 547 461 590 389 590 c 0
EndSplineSet
Substitution2: "'c2sc' Capitals to Small Capitals lookup 27 subtable" oacute.sc
Substitution2: "'locl' Localized Forms in Latin lookup 7 subtable" Oacute.loclPLK
AlternateSubs2: "'aalt' Access All Alternates lookup 1 subtable" Oacute.loclPLK oacute.sc
Position2: "'cpsp' Capital Spacing lookup 0 subtable" dx=5 dy=0 dh=10 dv=0
EndChar

StartChar: Ocircumflex
Encoding: 212 212 74
Width: 681
GlyphClass: 2
Flags: MW
HStem: -17 120<280 390.5 280 442> 590 120<313.5 425>
VStem: 39 166<197.5 309 197.5 359.5> 499 166<385.5 497>
AnchorPoint: "Anchor-11" 0 0 basechar 0
AnchorPoint: "Anchor-10" 16 534 basechar 0
AnchorPoint: "Anchor-9" 402 693 basechar 0
AnchorPoint: "Anchor-8" 0 0 basechar 0
LayerCount: 2
Fore
SplineSet
431 839 m 1
 289 755 l 1
 238 820 l 1
 395 949 l 1
 490 949 l 1
 611 820 l 1
 550 755 l 1
 431 839 l 1
401 710 m 0
 569 710 665 607 665 426 c 0
 665 240 580 -17 304 -17 c 0
 135 -17 39 87 39 267 c 0
 39 452 125 710 401 710 c 0
389 590 m 0
 238 590 205 369 205 249 c 0
 205 146 245 103 315 103 c 0
 466 103 499 324 499 447 c 0
 499 547 461 590 389 590 c 0
EndSplineSet
Substitution2: "'c2sc' Capitals to Small Capitals lookup 23 subtable" ocircumflex.sc
Substitution2: "'aalt' Access All Alternates lookup 0 subtable" ocircumflex.sc
Position2: "'cpsp' Capital Spacing lookup 0 subtable" dx=5 dy=0 dh=10 dv=0
EndChar
StartChar: Otilde
Encoding: 213 213 207
Width: 681
GlyphClass: 2
Flags: MW
HStem: -17 120<280 390.5 280 442> 590 120<313.5 425> 761 112<466 492.5 466 502> 806 112<353.5 381>
VStem: 39 166<200.5 312 200.5 359.5> 499 166<382 493.5>
AnchorPoint: "Anchor-14" 0 0 basechar 0
AnchorPoint: "Anchor-13" 629 693 basechar 0
AnchorPoint: "Anchor-12" 425 919 basechar 0
AnchorPoint: "Anchor-11" 0 0 basechar 0
AnchorPoint: "Anchor-10" 303 0 basechar 0
LayerCount: 2
Back
Fore
SplineSet
475 761 m 0xec
 423 761 396 806 366 806 c 0
 341 806 325 789 305 760 c 1
 233 802 l 1
 266 865 315 918 373 918 c 0xdc
 430 918 451 873 481 873 c 0
 504 873 520 889 541 918 c 1
 614 877 l 1
 579 810 529 761 475 761 c 0xec
401 710 m 0
 569 710 665 607 665 426 c 0
 665 240 580 -17 304 -17 c 0
 135 -17 39 87 39 267 c 0
 39 452 125 710 401 710 c 0
389 590 m 0
 238 590 205 369 205 255 c 0
 205 146 245 103 315 103 c 0
 466 103 499 324 499 440 c 0
 499 547 461 590 389 590 c 0
EndSplineSet
Substitution2: "'c2sc' Capitals to Small Capitals lookup 27 subtable" otilde.sc
Substitution2: "'aalt' Access All Alternates lookup 0 subtable" otilde.sc
Position2: "'cpsp' Capital Spacing lookup 0 subtable" dx=5 dy=0 dh=10 dv=0
EndChar
StartChar: Odieresis
Encoding: 214 214 183
Width: 681
GlyphClass: 2
Flags: MW
HStem: -17 120<280 390.5 280 442> 590 120<313.5 425> 767 158<292.5 320.5 520.5 549>
VStem: 39 166<200.5 312 200.5 359.5> 227 159 455 158 499 166<382 493.5>
AnchorPoint: "Anchor-14" 0 0 basechar 0
AnchorPoint: "Anchor-13" 629 693 basechar 0
AnchorPoint: "Anchor-12" 428 925 basechar 0
AnchorPoint: "Anchor-11" 0 0 basechar 0
AnchorPoint: "Anchor-10" 303 0 basechar 0
LayerCount: 2
Back
Fore
SplineSet
315 925 m 0xfc
 361 925 392 888 386 843 c 0
 380 800 343 767 298 767 c 0
 252 767 221 804 227 850 c 0
 233 892 270 925 315 925 c 0xfc
543 925 m 0
 590 925 620 888 613 843 c 0
 608 800 572 767 526 767 c 0
 481 767 449 804 455 850 c 0
 461 892 498 925 543 925 c 0
401 710 m 0xd2
 569 710 665 607 665 426 c 0
 665 240 580 -17 304 -17 c 0
 135 -17 39 87 39 267 c 0
 39 452 125 710 401 710 c 0xd2
389 590 m 0
 238 590 205 369 205 255 c 0
 205 146 245 103 315 103 c 0
 466 103 499 324 499 440 c 0
 499 547 461 590 389 590 c 0
EndSplineSet
Substitution2: "'c2sc' Capitals to Small Capitals lookup 27 subtable" odieresis.sc
Substitution2: "'aalt' Access All Alternates lookup 0 subtable" odieresis.sc
Position2: "'cpsp' Capital Spacing lookup 0 subtable" dx=5 dy=0 dh=10 dv=0
EndChar
StartChar: multiply
Encoding: 215 215 2268
Width: 509
GlyphClass: 2
Flags: MW
HStem: 103 407<118 173 173 348>
VStem: 43 434<190 423>
LayerCount: 2
Back
Fore
SplineSet
402 510 m 1
 477 423 l 1
 343 306 l 1
 444 190 l 1
 348 103 l 1
 249 221 l 1
 118 103 l 1
 43 190 l 1
 176 306 l 1
 76 423 l 1
 173 510 l 1
 271 392 l 1
 402 510 l 1
EndSplineSet
Substitution2: "'onum' Oldstyle Figures lookup 26 subtable" multiply.osf
Substitution2: "'tnum' Tabular Numbers lookup 25 subtable" multiply.tf
AlternateSubs2: "'aalt' Access All Alternates lookup 1 subtable" multiply.tf multiply.osf
EndChar
StartChar: Udieresis
Encoding: 220 220 260
Width: 641
GlyphClass: 2
Flags: MW
HStem: -17 122<259 332.5 259 371.5> 673 20G<114 275 275 275 485 647 647 647> 767 158<271.5 299.5 499.5 528>
VStem: 45.96 161.96 206 159 434 158
AnchorPoint: "Anchor-14" 0 0 basechar 0
AnchorPoint: "Anchor-13" 657 693 basechar 0
AnchorPoint: "Anchor-12" 407 925 basechar 0
AnchorPoint: "Anchor-11" 404 0 basechar 0
AnchorPoint: "Anchor-10" 284 0 basechar 0
LayerCount: 2
Back
Fore
SplineSet
294 925 m 0xec
 340 925 371 888 365 843 c 0
 359 800 322 767 277 767 c 0
 231 767 200 804 206 850 c 0
 212 892 249 925 294 925 c 0xec
522 925 m 0
 569 925 599 888 592 843 c 0
 587 800 551 767 505 767 c 0
 460 767 428 804 434 850 c 0
 440 892 477 925 522 925 c 0
647 693 m 1
 582 229 l 2
 562 88 460 -17 283 -17 c 0
 104 -17 29 86 49 232 c 2
 114 693 l 1
 275 693 l 1
 211 235 l 2
 198 147 223 105 295 105 c 0xf0
 370 105 408 150 421 238 c 2
 485 693 l 1
 647 693 l 1
EndSplineSet
Substitution2: "'c2sc' Capitals to Small Capitals lookup 27 subtable" udieresis.sc
Substitution2: "'aalt' Access All Alternates lookup 0 subtable" udieresis.sc
Position2: "'cpsp' Capital Spacing lookup 0 subtable" dx=5 dy=0 dh=10 dv=0
EndChar

StartChar: Thorn
Encoding: 222 222 84
Width: 591
GlyphClass: 2
Flags: MW
HStem: 0 21G<27 188 27 27> 114 119<221 279 221 279 204 279> 468 117<270 313 254 328> 673 20G<124 285 285 285>
VStem: 419 167<350 411.5>
AnchorPoint: "Anchor-11" 0 0 basechar 0
AnchorPoint: "Anchor-10" 0 0 basechar 0
AnchorPoint: "Anchor-9" 127 433 basechar 0
AnchorPoint: "Anchor-8" 0 0 basechar 0
LayerCount: 2
Fore
SplineSet
328 585 m 2
 489 585 586 522 586 386 c 0
 586 269 517 114 279 114 c 2
 204 114 l 1
 188 0 l 1
 27 0 l 1
 124 693 l 1
 285 693 l 1
 270 585 l 1
 328 585 l 2
279 233 m 2
 391 233 419 318 419 382 c 0
 419 441 382 468 313 468 c 2
 254 468 l 1
 221 233 l 1
 279 233 l 2
EndSplineSet
Substitution2: "'c2sc' Capitals to Small Capitals lookup 23 subtable" thorn.sc
Substitution2: "'aalt' Access All Alternates lookup 0 subtable" thorn.sc
Position2: "'cpsp' Capital Spacing lookup 0 subtable" dx=5 dy=0 dh=10 dv=0
EndChar
StartChar: germandbls
Encoding: 223 223 629
Width: 590
GlyphClass: 2
Flags: MW
HStem: -222 21G<-65 -65> -17 121<316.5 355.5 316.5 417> 647 112<316 357>
VStem: 276 140<388.5 449> 392 148<559.5 618> 401 160<164 224.5>
LayerCount: 2
Back
Fore
SplineSet
416 423 m 0xf0
 416 354 561 339 561 186 c 0
 561 94 496 -17 338 -17 c 0
 289 -17 244 -3 214 13 c 1
 272 117 l 1
 288 109 308 104 325 104 c 0
 386 104 401 150 401 178 c 0xe4
 401 271 276 283 276 388 c 0xf0
 276 510 392 513 392 604 c 0
 392 632 372 647 342 647 c 0
 290 647 259 609 250 536 c 2
 183 58 l 2
 159 -115 64 -176 -65 -222 c 1
 -104 -108 l 1
 -32 -80 12 -50 25 38 c 2
 94 535 l 2
 113 675 205 759 354 759 c 0
 477 759 540 696 540 616 c 0xe8
 540 503 416 491 416 423 c 0xf0
EndSplineSet
Substitution2: "'smcp' Lowercase to Small Capitals lookup 28 subtable" germandbls.sc
Substitution2: "'aalt' Access All Alternates lookup 0 subtable" germandbls.sc
EndChar

StartChar: acircumflex
Encoding: 226 226 137
Width: 572
GlyphClass: 2
Flags: MW
HStem: -17 116<229.5 233.5> -14 21G<479 479> 436 112<274 337.5>
VStem: 25 161<157.5 246.5 157.5 270>
AnchorPoint: "Anchor-11" 0 0 basechar 0
AnchorPoint: "Anchor-10" 0 0 basechar 0
AnchorPoint: "Anchor-9" 341 531 basechar 0
AnchorPoint: "Anchor-8" 487 -14 basechar 0
LayerCount: 2
Fore
SplineSet
176 685 m 1x70
 334 822 l 1
 429 822 l 1
 549 685 l 1
 486 620 l 1
 368 712 l 1
 226 620 l 1
 176 685 l 1x70
330 548 m 0
 400 548 475 532 548 492 c 1
 497 152 l 2
 496 144 495 136 495 130 c 0
 495 105 505 95 523 88 c 1
 479 -14 l 1x70
 420 -9 371 17 356 74 c 1
 319 21 268 -17 199 -17 c 0xb0
 84 -17 25 66 25 194 c 0
 25 346 105 548 330 548 c 0
326 436 m 0
 222 436 186 298 186 195 c 0
 186 120 212 99 247 99 c 0
 285 99 317 127 347 173 c 1xb0
 385 426 l 1
 365 433 349 436 326 436 c 0
EndSplineSet
Substitution2: "'smcp' Lowercase to Small Capitals lookup 24 subtable" acircumflex.sc
Substitution2: "'aalt' Access All Alternates lookup 0 subtable" acircumflex.sc
EndChar

StartChar: atilde
Encoding: 227 227 143
Width: 572
GlyphClass: 2
Flags: MW
HStem: -17 116<229.5 233.5> -14 21G<479 479> 436 112<274 337.5> 635 112<410 436.5 410 446> 680 112<297.5 325> 731 20G<558 558>
VStem: 25 161<157.5 246.5 157.5 270>
AnchorPoint: "Anchor-11" 0 0 basechar 0
AnchorPoint: "Anchor-10" 0 0 basechar 0
AnchorPoint: "Anchor-9" 341 531 basechar 0
AnchorPoint: "Anchor-8" 487 -14 basechar 0
LayerCount: 2
Fore
SplineSet
419 635 m 0x72
 367 635 340 680 310 680 c 0
 285 680 269 663 249 634 c 1
 177 676 l 1x6a
 210 739 259 792 317 792 c 0
 374 792 395 747 425 747 c 0
 448 747 464 763 485 792 c 1x72
 558 751 l 1x66
 523 684 473 635 419 635 c 0x72
330 548 m 0xa6
 400 548 475 532 548 492 c 1
 497 152 l 2
 496 144 495 136 495 130 c 0
 495 105 505 95 523 88 c 1
 479 -14 l 1x66
 420 -9 371 17 356 74 c 1
 319 21 268 -17 199 -17 c 0
 84 -17 25 66 25 194 c 0
 25 346 105 548 330 548 c 0xa6
326 436 m 0
 222 436 186 298 186 195 c 0
 186 120 212 99 247 99 c 0
 285 99 317 127 347 173 c 1
 385 426 l 1
 365 433 349 436 326 436 c 0
EndSplineSet
Substitution2: "'smcp' Lowercase to Small Capitals lookup 24 subtable" atilde.sc
Substitution2: "'aalt' Access All Alternates lookup 0 subtable" atilde.sc
EndChar
StartChar: adieresis
Encoding: 228 228 351
Width: 572
GlyphClass: 2
Flags: MW
HStem: -17 116<230 234> -14 21G<479 479> 436 112<274.5 338> 641 158<241.5 270 470 498>
VStem: 26 161<157.5 246.5 157.5 270> 177 158 405 158
AnchorPoint: "Anchor-14" 0 0 basechar 0
AnchorPoint: "Anchor-13" 0 0 basechar 0
AnchorPoint: "Anchor-12" 372 799 basechar 0
AnchorPoint: "Anchor-11" 487 -14 basechar 0
AnchorPoint: "Anchor-10" 277 0 basechar 0
LayerCount: 2
Back
Fore
SplineSet
264 799 m 0x76
 310 799 342 762 335 717 c 0
 329 674 293 641 247 641 c 0
 202 641 170 678 177 724 c 0
 182 766 219 799 264 799 c 0x76
492 799 m 0
 539 799 570 762 563 717 c 0
 557 674 521 641 475 641 c 0
 430 641 398 678 405 724 c 0
 410 766 448 799 492 799 c 0
330 548 m 0
 401 548 476 532 548 492 c 1
 498 152 l 2
 497 144 496 136 496 130 c 0
 496 105 505 95 524 88 c 1
 479 -14 l 1x78
 421 -9 372 17 356 74 c 1
 320 21 269 -17 199 -17 c 0
 84 -17 26 66 26 194 c 0xb8
 26 346 106 548 330 548 c 0
326 436 m 0xb8
 223 436 187 298 187 195 c 0
 187 120 212 99 248 99 c 0
 285 99 318 127 348 173 c 1
 386 426 l 1
 365 433 350 436 326 436 c 0xb8
EndSplineSet
Substitution2: "'smcp' Lowercase to Small Capitals lookup 28 subtable" adieresis.sc
Substitution2: "'aalt' Access All Alternates lookup 0 subtable" adieresis.sc
EndChar

StartChar: aring
Encoding: 229 229 142
Width: 572
GlyphClass: 2
Flags: MW
HStem: -17 116<229.5 233.5> -14 21G<479 479> 436 112<274 337.5> 605 81<349 375.5 349 395.5> 787 80<365 391.5>
VStem: 25 161<157.5 246.5 157.5 270> 234 90 416 90
AnchorPoint: "Anchor-11" 0 0 basechar 0
AnchorPoint: "Anchor-10" 0 0 basechar 0
AnchorPoint: "Anchor-9" 341 531 basechar 0
AnchorPoint: "Anchor-8" 487 -14 basechar 0
LayerCount: 2
Fore
SplineSet
386 867 m 0x7f
 471 867 516 805 506 732 c 0
 497 664 437 605 354 605 c 0
 269 605 224 667 234 740 c 0
 243 809 303 867 386 867 c 0x7f
379 787 m 0
 351 787 329 769 324 732 c 0
 319 702 336 686 362 686 c 0
 389 686 410 704 416 740 c 0
 420 770 404 787 379 787 c 0
330 548 m 0
 400 548 475 532 548 492 c 1
 497 152 l 2
 496 144 495 136 495 130 c 0
 495 105 505 95 523 88 c 1
 479 -14 l 1x7f
 420 -9 371 17 356 74 c 1
 319 21 268 -17 199 -17 c 0xbf
 84 -17 25 66 25 194 c 0
 25 346 105 548 330 548 c 0
326 436 m 0
 222 436 186 298 186 195 c 0
 186 120 212 99 247 99 c 0
 285 99 317 127 347 173 c 1xbf
 385 426 l 1
 365 433 349 436 326 436 c 0
EndSplineSet
Substitution2: "'smcp' Lowercase to Small Capitals lookup 24 subtable" aring.sc
Substitution2: "'aalt' Access All Alternates lookup 0 subtable" aring.sc
EndChar

StartChar: ccedilla
Encoding: 231 231 150
Width: 469
GlyphClass: 2
Flags: MW
HStem: -262 86<185.5 211.5 185.5 262> -16 21G<277 277> -16 124<277 277> -11 21G<190 190> 427 121<270 341.5>
VStem: 26 163<168.5 251 168.5 281> 251 112
AnchorPoint: "Anchor-11" 238 0 basechar 0
AnchorPoint: "Anchor-10" 0 0 basechar 0
AnchorPoint: "Anchor-9" 322 531 basechar 0
AnchorPoint: "Anchor-8" 0 0 basechar 0
LayerCount: 2
Fore
SplineSet
435 44 m 1xae
 388 10 337 -12 277 -16 c 1
 272 -48 l 1xce
 334 -55 363 -89 363 -136 c 0
 363 -190 322 -262 202 -262 c 0
 155 -262 118 -247 94 -230 c 1
 139 -159 l 1
 156 -170 174 -176 197 -176 c 0
 226 -176 250 -166 251 -143 c 0
 252 -120 228 -112 165 -112 c 1
 190 -11 l 1x9e
 85 12 26 94 26 212 c 0
 26 350 108 548 323 548 c 0
 391 548 449 525 493 480 c 1
 417 390 l 1
 387 417 359 427 324 427 c 0
 216 427 189 296 189 206 c 0
 189 131 222 108 272 108 c 0
 310 108 339 121 378 145 c 1
 435 44 l 1xae
EndSplineSet
Substitution2: "'smcp' Lowercase to Small Capitals lookup 24 subtable" ccedilla.sc
Substitution2: "'aalt' Access All Alternates lookup 0 subtable" ccedilla.sc
EndChar
StartChar: eacute
Encoding: 233 233 410
Width: 535
GlyphClass: 2
Flags: MW
HStem: -17 116<252 299> 443 105<276 334>
VStem: 27 157 367 157<371.5 406>
AnchorPoint: "Anchor-14" 0 0 basechar 0
AnchorPoint: "Anchor-13" 0 0 basechar 0
AnchorPoint: "Anchor-12" 345 835 basechar 0
AnchorPoint: "Anchor-11" 392 9 basechar 0
AnchorPoint: "Anchor-10" 252 0 basechar 0
LayerCount: 2
Back
Fore
SplineSet
481 717 m 1
 236 622 l 1
 205 703 l 1
 436 835 l 1
 481 717 l 1
524 403 m 0
 524 254 350 209 184 193 c 1
 188 123 226 99 278 99 c 0
 323 99 364 115 413 148 c 1
 469 54 l 1
 411 12 340 -17 258 -17 c 0
 103 -17 27 73 27 208 c 0
 27 352 105 548 328 548 c 0
 457 548 524 483 524 403 c 0
191 289 m 1
 323 299 367 349 367 394 c 0
 367 418 355 443 313 443 c 0
 239 443 204 365 191 289 c 1
EndSplineSet
Substitution2: "'smcp' Lowercase to Small Capitals lookup 28 subtable" eacute.sc
Substitution2: "'aalt' Access All Alternates lookup 0 subtable" eacute.sc
EndChar
StartChar: ecircumflex
Encoding: 234 234 414
Width: 535
GlyphClass: 2
Flags: MW
HStem: -17 116<252 299> 443 105<276 334>
VStem: 27 157 367 157<371.5 406>
AnchorPoint: "Anchor-14" 0 0 basechar 0
AnchorPoint: "Anchor-13" 0 0 basechar 0
AnchorPoint: "Anchor-12" 352 822 basechar 0
AnchorPoint: "Anchor-11" 392 9 basechar 0
AnchorPoint: "Anchor-10" 252 0 basechar 0
LayerCount: 2
Back
Fore
SplineSet
340 712 m 1
 198 620 l 1
 148 685 l 1
 306 822 l 1
 401 822 l 1
 521 685 l 1
 458 620 l 1
 340 712 l 1
524 403 m 0
 524 254 350 209 184 193 c 1
 188 123 226 99 278 99 c 0
 323 99 364 115 413 148 c 1
 469 54 l 1
 411 12 340 -17 258 -17 c 0
 103 -17 27 73 27 208 c 0
 27 352 105 548 328 548 c 0
 457 548 524 483 524 403 c 0
191 289 m 1
 323 299 367 349 367 394 c 0
 367 418 355 443 313 443 c 0
 239 443 204 365 191 289 c 1
EndSplineSet
Substitution2: "'smcp' Lowercase to Small Capitals lookup 28 subtable" ecircumflex.sc
Substitution2: "'aalt' Access All Alternates lookup 0 subtable" ecircumflex.sc
EndChar

StartChar: igrave
Encoding: 236 236 183
Width: 278
GlyphClass: 2
Flags: MW
HStem: 0 21G<24 180 24 24> 511 20G<98 254 254 254> 682 20G<347 347>
VStem: 24 323
AnchorPoint: "Anchor-11" 0 0 basechar 0
AnchorPoint: "Anchor-10" 0 0 basechar 0
AnchorPoint: "Anchor-9" 176 531 basechar 0
AnchorPoint: "Anchor-8" 165 0 basechar 0
LayerCount: 2
Fore
SplineSet
347 702 m 1
 295 622 l 1
 75 717 l 1
 152 835 l 1
 347 702 l 1
180 0 m 1
 24 0 l 1
 98 531 l 1
 254 531 l 1
 180 0 l 1
EndSplineSet
Substitution2: "'smcp' Lowercase to Small Capitals lookup 24 subtable" igrave.sc
Substitution2: "'aalt' Access All Alternates lookup 0 subtable" igrave.sc
EndChar

StartChar: iacute
Encoding: 237 237 178
Width: 278
GlyphClass: 2
Flags: MW
HStem: 0 21G<24 180 24 24> 511 20G<98 254 254 254>
VStem: 24 306
AnchorPoint: "Anchor-11" 0 0 basechar 0
AnchorPoint: "Anchor-10" 0 0 basechar 0
AnchorPoint: "Anchor-9" 176 531 basechar 0
AnchorPoint: "Anchor-8" 165 0 basechar 0
LayerCount: 2
Fore
SplineSet
330 717 m 1
 85 622 l 1
 54 703 l 1
 285 835 l 1
 330 717 l 1
180 0 m 1
 24 0 l 1
 98 531 l 1
 254 531 l 1
 180 0 l 1
EndSplineSet
Substitution2: "'smcp' Lowercase to Small Capitals lookup 24 subtable" iacute.sc
Substitution2: "'aalt' Access All Alternates lookup 0 subtable" iacute.sc
EndChar

StartChar: icircumflex
Encoding: 238 238 180
Width: 278
GlyphClass: 2
Flags: MW
HStem: 0 21G<24 180 24 24> 511 20G<98 254 254 254>
VStem: 11 373<685 685>
AnchorPoint: "Anchor-11" 0 0 basechar 0
AnchorPoint: "Anchor-10" 0 0 basechar 0
AnchorPoint: "Anchor-9" 176 531 basechar 0
AnchorPoint: "Anchor-8" 165 0 basechar 0
LayerCount: 2
Fore
SplineSet
11 685 m 1
 169 822 l 1
 264 822 l 1
 384 685 l 1
 321 620 l 1
 203 712 l 1
 61 620 l 1
 11 685 l 1
180 0 m 1
 24 0 l 1
 98 531 l 1
 254 531 l 1
 180 0 l 1
EndSplineSet
Substitution2: "'smcp' Lowercase to Small Capitals lookup 24 subtable" icircumflex.sc
Substitution2: "'aalt' Access All Alternates lookup 0 subtable" icircumflex.sc
EndChar

StartChar: idieresis
Encoding: 239 239 181
Width: 278
GlyphClass: 2
Flags: MW
HStem: 0 21G<24 180 24 24> 511 20G<98 254 254 254> 641 158<69.5 96 298 324.5>
VStem: 4 158 232 158
AnchorPoint: "Anchor-11" 0 0 basechar 0
AnchorPoint: "Anchor-10" 0 0 basechar 0
AnchorPoint: "Anchor-9" 197 731 basechar 0
AnchorPoint: "Anchor-8" 165 0 basechar 0
LayerCount: 2
Fore
SplineSet
91 799 m 0
 137 799 169 762 162 717 c 0
 156 674 118 641 74 641 c 0
 29 641 -3 678 4 724 c 1
 9 766 48 799 91 799 c 0
319 799 m 0
 366 799 397 762 390 717 c 0
 384 674 347 641 302 641 c 0
 257 641 225 678 232 724 c 1
 237 766 277 799 319 799 c 0
180 0 m 1
 24 0 l 1
 98 531 l 1
 254 531 l 1
 180 0 l 1
EndSplineSet
Substitution2: "'smcp' Lowercase to Small Capitals lookup 24 subtable" idieresis.sc
Substitution2: "'aalt' Access All Alternates lookup 0 subtable" idieresis.sc
EndChar

StartChar: eth
Encoding: 240 240 154
Width: 569
GlyphClass: 2
Flags: MW
HStem: -17 115<231.5 287 231.5 325.5> 369 110<248.5 292 180 314.5> 554 20G<157 157> 738 20G<178 178>
VStem: 23 159<157.5 225 157.5 258> 383 159
LayerCount: 2
Fore
SplineSet
406 668 m 1
 503 591 542 495 542 375 c 0
 542 342 540 309 534 273 c 0
 511 111 407 -17 244 -17 c 0
 117 -17 23 59 23 194 c 0
 23 322 96 479 264 479 c 0
 320 479 359 462 391 432 c 1
 381 494 360 540 312 584 c 1
 249 528 l 1
 157 574 l 1
 221 633 l 1
 190 643 162 650 136 654 c 1
 178 758 l 1
 224 750 265 740 315 719 c 1
 399 798 l 1
 470 727 l 1
 406 668 l 1
254 98 m 0
 320 98 359 157 375 260 c 0
 378 282 381 305 383 327 c 1
 362 355 334 369 295 369 c 0
 202 369 182 260 182 190 c 0
 182 125 209 98 254 98 c 0
EndSplineSet
Substitution2: "'smcp' Lowercase to Small Capitals lookup 24 subtable" eth.sc
Substitution2: "'aalt' Access All Alternates lookup 0 subtable" eth.sc
EndChar

StartChar: ntilde
Encoding: 241 241 207
Width: 568
GlyphClass: 2
Flags: MW
HStem: 0 21G<24 179 24 24 319 475 319 319> 419 129<318 452> 511 20G<98 233 233 233> 528 20G<376.5 452> 635 112<394 420.5 394 430> 680 112<281.5 309> 731 20G<542 542>
VStem: 373.18 158.24
AnchorPoint: "Anchor-11" 247 0 basechar 0
AnchorPoint: "Anchor-10" 89 531 basechar 0
AnchorPoint: "Anchor-9" 326 531 basechar 0
AnchorPoint: "Anchor-8" 0 0 basechar 0
LayerCount: 2
Fore
SplineSet
403 635 m 0x99
 351 635 324 680 294 680 c 0
 269 680 253 663 233 634 c 1
 161 676 l 1x95
 194 739 243 792 301 792 c 0
 358 792 379 747 409 747 c 0
 432 747 448 763 469 792 c 1x99
 542 751 l 1x93
 507 684 457 635 403 635 c 0x99
408 548 m 0x93
 496 548 543 487 529 386 c 2
 475 0 l 1
 319 0 l 1
 371 351 l 2
 380 407 363 419 336 419 c 0xc3
 300 419 258 367 220 292 c 1
 179 0 l 1
 24 0 l 1
 98 531 l 1
 233 531 l 1xa3
 230 438 l 1
 275 504 345 548 408 548 c 0x93
EndSplineSet
Substitution2: "'smcp' Lowercase to Small Capitals lookup 24 subtable" ntilde.sc
Substitution2: "'aalt' Access All Alternates lookup 0 subtable" ntilde.sc
EndChar
StartChar: ocircumflex
Encoding: 244 244 556
Width: 574
GlyphClass: 2
Flags: MW
HStem: -17 116<236.5 313 236.5 361.5> 432 116<260.5 337.5>
VStem: 28 159<164 239.5 164 283> 386 160
AnchorPoint: "Anchor-14" 0 0 basechar 0
AnchorPoint: "Anchor-13" 531 531 basechar 0
AnchorPoint: "Anchor-12" 355 822 basechar 0
AnchorPoint: "Anchor-11" 0 0 basechar 0
AnchorPoint: "Anchor-10" 253 0 basechar 0
LayerCount: 2
Back
Fore
SplineSet
201 620 m 1
 151 685 l 1
 309 822 l 1
 404 822 l 1
 524 685 l 1
 461 620 l 1
 343 712 l 1
 201 620 l 1
324 548 m 0
 465 548 547 461 546 322 c 0
 545 176 473 -17 250 -17 c 0
 109 -17 28 68 28 209 c 0
 28 357 100 548 324 548 c 0
313 432 m 0
 208 432 187 280 187 199 c 0
 187 129 212 99 261 99 c 0
 365 99 386 251 386 332 c 0
 387 402 362 432 313 432 c 0
EndSplineSet
Substitution2: "'smcp' Lowercase to Small Capitals lookup 28 subtable" ocircumflex.sc
Substitution2: "'aalt' Access All Alternates lookup 0 subtable" ocircumflex.sc
EndChar

StartChar: otilde
Encoding: 245 245 218
Width: 574
GlyphClass: 2
Flags: MW
HStem: -17 116<236.5 313 236.5 361.5> 432 116<260.5 337.5> 635 112<387 413.5 387 423> 680 112<274.5 302> 731 20G<535 535>
VStem: 28 159<164 239.5 164 283> 386 160
AnchorPoint: "Anchor-11" 0 0 basechar 0
AnchorPoint: "Anchor-10" 0 0 basechar 0
AnchorPoint: "Anchor-9" 319 531 basechar 0
AnchorPoint: "Anchor-8" 0 0 basechar 0
LayerCount: 2
Fore
SplineSet
396 635 m 0xe6
 344 635 317 680 287 680 c 0
 262 680 246 663 226 634 c 1
 154 676 l 1xd6
 187 739 236 792 294 792 c 0
 351 792 372 747 402 747 c 0
 425 747 441 763 462 792 c 1xe6
 535 751 l 1xce
 500 684 450 635 396 635 c 0xe6
324 548 m 0xce
 465 548 547 461 546 322 c 0
 545 176 473 -17 250 -17 c 0
 109 -17 28 68 28 209 c 0
 28 357 100 548 324 548 c 0xce
313 432 m 0
 208 432 187 280 187 199 c 0
 187 129 212 99 261 99 c 0
 365 99 386 251 386 332 c 1
 387 402 362 432 313 432 c 0
EndSplineSet
Substitution2: "'smcp' Lowercase to Small Capitals lookup 24 subtable" otilde.sc
Substitution2: "'aalt' Access All Alternates lookup 0 subtable" otilde.sc
EndChar
StartChar: odieresis
Encoding: 246 246 563
Width: 574
GlyphClass: 2
Flags: MW
HStem: -17 116<236.5 313 236.5 361.5> 432 116<260.5 337.5> 641 158<216.5 245 445 473>
VStem: 28 159<164 239.5 164 283> 152 158 380 158 386 160
AnchorPoint: "Anchor-14" 0 0 basechar 0
AnchorPoint: "Anchor-13" 531 531 basechar 0
AnchorPoint: "Anchor-12" 347 799 basechar 0
AnchorPoint: "Anchor-11" 0 0 basechar 0
AnchorPoint: "Anchor-10" 253 0 basechar 0
LayerCount: 2
Back
Fore
SplineSet
239 799 m 0xec
 285 799 317 762 310 717 c 0
 304 674 268 641 222 641 c 0
 177 641 145 678 152 724 c 0
 157 766 194 799 239 799 c 0xec
467 799 m 0
 514 799 545 762 538 717 c 0
 532 674 496 641 450 641 c 0
 405 641 373 678 380 724 c 0
 385 766 423 799 467 799 c 0
324 548 m 0xf2
 465 548 547 461 546 322 c 0
 545 176 473 -17 250 -17 c 0
 109 -17 28 68 28 209 c 0
 28 357 100 548 324 548 c 0xf2
313 432 m 0
 208 432 187 280 187 199 c 0
 187 129 212 99 261 99 c 0
 365 99 386 251 386 332 c 0
 387 402 362 432 313 432 c 0
EndSplineSet
Substitution2: "'smcp' Lowercase to Small Capitals lookup 28 subtable" odieresis.sc
Substitution2: "'aalt' Access All Alternates lookup 0 subtable" odieresis.sc
EndChar

StartChar: divide
Encoding: 247 247 1091
Width: 509
Flags: MW
HStem: 1 21G<192.5 243> 1 180<209.5 243> 271 122<65 463 48 480> 483 181<277 310.5>
VStem: 137 179<74 108.5> 204 179<557 591.5>
LayerCount: 2
Fore
SplineSet
304 664 m 0xb4
 350 664 383 629 383 584 c 0
 383 530 337 483 284 483 c 0
 237 483 204 519 204 565 c 0
 204 618 250 664 304 664 c 0xb4
65 393 m 1
 480 393 l 1
 463 271 l 1
 48 271 l 1
 65 393 l 1
236 181 m 0x78
 283 181 316 146 316 101 c 0
 316 47 270 1 216 1 c 0
 169 1 137 37 137 82 c 0
 137 135 183 181 236 181 c 0x78
EndSplineSet
Substitution2: "'onum' Oldstyle Figures lookup 22 subtable" divide.osf
Substitution2: "'tnum' Tabular Numbers lookup 21 subtable" divide.tf
AlternateSubs2: "'aalt' Access All Alternates lookup 1 subtable" divide.tf divide.osf
EndChar

StartChar: oslash
Encoding: 248 248 216
Width: 574
GlyphClass: 2
Flags: MW
HStem: -17 116<260.5 314 260.5 361.5> 432 116<260.5 315>
VStem: 26 154<186.5 239.5 186.5 283> 394 153<249 344>
AnchorPoint: "Anchor-11" 0 0 basechar 0
AnchorPoint: "Anchor-10" 0 0 basechar 0
AnchorPoint: "Anchor-9" 317 556 basechar 0
AnchorPoint: "Anchor-8" 0 0 basechar 0
LayerCount: 2
Fore
SplineSet
524 633 m 1
 465 508 l 1
 519 469 548 405 547 322 c 1
 547 176 473 -17 250 -17 c 0
 238 -17 227 -16 215 -15 c 1
 162 -135 l 1
 52 -101 l 1
 109 23 l 1
 56 61 26 125 26 209 c 0
 26 357 100 548 324 548 c 0
 336 548 348 547 359 546 c 1
 414 667 l 1
 524 633 l 1
313 432 m 0
 208 432 180 280 180 199 c 0
 180 174 184 155 192 143 c 1
 326 431 l 1
 322 432 317 432 313 432 c 0
249 100 m 1
 253 100 258 99 263 99 c 0
 365 99 393 251 394 332 c 0
 394 356 390 374 383 385 c 1
 249 100 l 1
EndSplineSet
Substitution2: "'smcp' Lowercase to Small Capitals lookup 24 subtable" oslash.sc
Substitution2: "'aalt' Access All Alternates lookup 0 subtable" oslash.sc
EndChar
StartChar: ugrave
Encoding: 249 249 670
Width: 562
GlyphClass: 2
Flags: MW
HStem: -17 126<115.5 252.5> 0 21G<330 464 330 330> 511 20G<93 248 248 248 383 538 538 538> 684 20G<491 491>
VStem: 36.32 162.68
AnchorPoint: "Anchor-14" 0 0 basechar 0
AnchorPoint: "Anchor-13" 548 531 basechar 0
AnchorPoint: "Anchor-12" 356 835 basechar 0
AnchorPoint: "Anchor-11" 473 0 basechar 0
AnchorPoint: "Anchor-10" 251 0 basechar 0
LayerCount: 2
Back
Fore
SplineSet
290 839 m 1x78
 491 704 l 1
 442 624 l 1
 218 717 l 1
 290 839 l 1x78
538 531 m 1
 464 0 l 1
 330 0 l 1x78
 333 79 l 1
 288 21 233 -17 165 -17 c 0
 66 -17 25 49 39 151 c 2
 93 531 l 1
 248 531 l 1
 199 177 l 2
 192 123 205 109 234 109 c 0
 271 109 307 148 336 195 c 1xb8
 383 531 l 1
 538 531 l 1
EndSplineSet
Substitution2: "'smcp' Lowercase to Small Capitals lookup 28 subtable" ugrave.sc
Substitution2: "'aalt' Access All Alternates lookup 0 subtable" ugrave.sc
EndChar
StartChar: uacute
Encoding: 250 250 658
Width: 562
GlyphClass: 2
Flags: MW
HStem: -17 126<115.5 252.5> 0 21G<330 464 330 330> 511 20G<93 248 248 248 383 538 538 538>
VStem: 36.32 162.68
AnchorPoint: "Anchor-14" 0 0 basechar 0
AnchorPoint: "Anchor-13" 548 531 basechar 0
AnchorPoint: "Anchor-12" 346 835 basechar 0
AnchorPoint: "Anchor-11" 473 0 basechar 0
AnchorPoint: "Anchor-10" 251 0 basechar 0
LayerCount: 2
Back
Fore
SplineSet
437 835 m 1x70
 482 717 l 1
 237 622 l 1
 206 703 l 1
 437 835 l 1x70
538 531 m 1
 464 0 l 1
 330 0 l 1x70
 333 79 l 1
 288 21 233 -17 165 -17 c 0
 66 -17 25 49 39 151 c 2
 93 531 l 1
 248 531 l 1
 199 177 l 2
 192 123 205 109 234 109 c 0
 271 109 307 148 336 195 c 1xb0
 383 531 l 1
 538 531 l 1
EndSplineSet
Substitution2: "'smcp' Lowercase to Small Capitals lookup 28 subtable" uacute.sc
Substitution2: "'aalt' Access All Alternates lookup 0 subtable" uacute.sc
EndChar
StartChar: ucircumflex
Encoding: 251 251 662
Width: 562
GlyphClass: 2
Flags: MW
HStem: -17 126<115.5 252.5> 0 21G<330 464 330 330> 511 20G<93 248 248 248 383 538 538 538>
VStem: 36.32 162.68
AnchorPoint: "Anchor-14" 0 0 basechar 0
AnchorPoint: "Anchor-13" 548 531 basechar 0
AnchorPoint: "Anchor-12" 353 822 basechar 0
AnchorPoint: "Anchor-11" 473 0 basechar 0
AnchorPoint: "Anchor-10" 251 0 basechar 0
LayerCount: 2
Back
Fore
SplineSet
199 620 m 1x70
 149 685 l 1
 307 822 l 1
 402 822 l 1
 522 685 l 1
 459 620 l 1
 341 712 l 1
 199 620 l 1x70
538 531 m 1
 464 0 l 1
 330 0 l 1x70
 333 79 l 1
 288 21 233 -17 165 -17 c 0
 66 -17 25 49 39 151 c 2
 93 531 l 1
 248 531 l 1
 199 177 l 2
 192 123 205 109 234 109 c 0
 271 109 307 148 336 195 c 1xb0
 383 531 l 1
 538 531 l 1
EndSplineSet
Substitution2: "'smcp' Lowercase to Small Capitals lookup 28 subtable" ucircumflex.sc
Substitution2: "'aalt' Access All Alternates lookup 0 subtable" ucircumflex.sc
EndChar
StartChar: udieresis
Encoding: 252 252 664
Width: 562
GlyphClass: 2
Flags: MW
HStem: -17 126<115.5 252.5> 0 21G<330 464 330 330> 511 20G<93 248 248 248 383 538 538 538> 641 158<214.5 243 443 471>
VStem: 36.32 162.68 150 158 378 158
AnchorPoint: "Anchor-14" 0 0 basechar 0
AnchorPoint: "Anchor-13" 548 531 basechar 0
AnchorPoint: "Anchor-12" 345 799 basechar 0
AnchorPoint: "Anchor-11" 473 0 basechar 0
AnchorPoint: "Anchor-10" 251 0 basechar 0
LayerCount: 2
Back
Fore
SplineSet
237 799 m 0xb6
 283 799 315 762 308 717 c 0
 302 674 266 641 220 641 c 0
 175 641 143 678 150 724 c 0
 155 766 192 799 237 799 c 0xb6
465 799 m 0
 512 799 543 762 536 717 c 0
 530 674 494 641 448 641 c 0
 403 641 371 678 378 724 c 0
 383 766 421 799 465 799 c 0
538 531 m 1
 464 0 l 1
 330 0 l 1x7a
 333 79 l 1
 288 21 233 -17 165 -17 c 0
 66 -17 25 49 39 151 c 2
 93 531 l 1
 248 531 l 1
 199 177 l 2
 192 123 205 109 234 109 c 0xba
 271 109 307 148 336 195 c 1
 383 531 l 1
 538 531 l 1
EndSplineSet
Substitution2: "'smcp' Lowercase to Small Capitals lookup 28 subtable" udieresis.sc
Substitution2: "'aalt' Access All Alternates lookup 0 subtable" udieresis.sc
EndChar

StartChar: yacute
Encoding: 253 253 258
Width: 507
GlyphClass: 2
Flags: MW
HStem: -222 21G<-13 -13> 1 21G<167 167> 511 20G<31 193 193 193 388 551 551 551>
VStem: -17 568
AnchorPoint: "Anchor-11" 0 0 basechar 0
AnchorPoint: "Anchor-10" 0 0 basechar 0
AnchorPoint: "Anchor-9" 291 531 basechar 0
AnchorPoint: "Anchor-8" 0 0 basechar 0
LayerCount: 2
Fore
SplineSet
445 717 m 1
 200 622 l 1
 169 703 l 1
 400 835 l 1
 445 717 l 1
316 -2 m 2
 257 -136 152 -213 -13 -222 c 1
 -17 -111 l 1
 88 -98 130 -67 167 1 c 1
 116 0 l 1
 31 531 l 1
 193 531 l 1
 228 102 l 1
 388 531 l 1
 551 531 l 1
 316 -2 l 2
EndSplineSet
Substitution2: "'smcp' Lowercase to Small Capitals lookup 24 subtable" yacute.sc
Substitution2: "'aalt' Access All Alternates lookup 0 subtable" yacute.sc
EndChar
StartChar: thorn
Encoding: 254 254 598
Width: 586
GlyphClass: 2
Flags: MW
HStem: -223 21G<-8 -8> -17 115<252 310.5 247.5 379.5> -2 21G<178 178> 432 116<312 445> 739 20G<284 284>
VStem: 395 160<288 375>
LayerCount: 2
Back
Fore
SplineSet
391 548 m 0xdc
 499 548 555 473 555 341 c 0
 555 188 489 -17 270 -17 c 0xdc
 234 -17 200 -10 178 -2 c 1xbc
 149 -206 l 1
 -8 -223 l 1
 127 742 l 1
 284 759 l 1
 246 487 l 1
 286 525 341 548 391 548 c 0xdc
261 98 m 0
 360 98 395 238 395 338 c 0
 395 412 367 432 331 432 c 0
 293 432 260 409 230 371 c 1
 194 111 l 1
 215 103 234 98 261 98 c 0
EndSplineSet
Substitution2: "'smcp' Lowercase to Small Capitals lookup 28 subtable" thorn.sc
Substitution2: "'aalt' Access All Alternates lookup 0 subtable" thorn.sc
EndChar

StartChar: ydieresis
Encoding: 255 255 260
Width: 507
GlyphClass: 2
Flags: MW
HStem: -222 21G<-13 -13> 1 21G<167 167> 511 20G<31 193 193 193 388 551 551 551> 641 158<184.5 211 413 439.5>
VStem: 119 158 347 158
AnchorPoint: "Anchor-11" 0 0 basechar 0
AnchorPoint: "Anchor-10" 0 0 basechar 0
AnchorPoint: "Anchor-9" 312 731 basechar 0
AnchorPoint: "Anchor-8" 0 0 basechar 0
LayerCount: 2
Fore
SplineSet
206 799 m 0
 252 799 284 762 277 717 c 0
 271 674 233 641 189 641 c 0
 144 641 112 678 119 724 c 1
 124 766 163 799 206 799 c 0
434 799 m 0
 481 799 512 762 505 717 c 0
 499 674 462 641 417 641 c 0
 372 641 340 678 347 724 c 1
 352 766 392 799 434 799 c 0
316 -2 m 2
 257 -136 152 -213 -13 -222 c 1
 -17 -111 l 1
 88 -98 130 -67 167 1 c 1
 116 0 l 1
 31 531 l 1
 193 531 l 1
 228 102 l 1
 388 531 l 1
 551 531 l 1
 316 -2 l 2
EndSplineSet
Substitution2: "'smcp' Lowercase to Small Capitals lookup 24 subtable" ydieresis.sc
Substitution2: "'aalt' Access All Alternates lookup 0 subtable" ydieresis.sc
EndChar
StartChar: amacron
Encoding: 257 257 361
Width: 572
GlyphClass: 2
Flags: MW
HStem: -17 116<230 234> -14 21G<479 479> 436 112<274.5 338> 655 110<226 511 210 526>
VStem: 26 161<157.5 246.5 157.5 270>
AnchorPoint: "Anchor-14" 0 0 basechar 0
AnchorPoint: "Anchor-13" 0 0 basechar 0
AnchorPoint: "Anchor-12" 370 765 basechar 0
AnchorPoint: "Anchor-11" 487 -14 basechar 0
AnchorPoint: "Anchor-10" 277 0 basechar 0
LayerCount: 2
Back
Fore
SplineSet
511 655 m 1x78
 210 655 l 1
 226 765 l 1
 526 765 l 1
 511 655 l 1x78
330 548 m 0
 401 548 476 532 548 492 c 1
 498 152 l 2
 497 144 496 136 496 130 c 0
 496 105 505 95 524 88 c 1
 479 -14 l 1x78
 421 -9 372 17 356 74 c 1
 320 21 269 -17 199 -17 c 0xb8
 84 -17 26 66 26 194 c 0
 26 346 106 548 330 548 c 0
326 436 m 0
 223 436 187 298 187 195 c 0
 187 120 212 99 248 99 c 0
 285 99 318 127 348 173 c 1xb8
 386 426 l 1
 365 433 350 436 326 436 c 0
EndSplineSet
Substitution2: "'smcp' Lowercase to Small Capitals lookup 28 subtable" amacron.sc
Substitution2: "'aalt' Access All Alternates lookup 0 subtable" amacron.sc
EndChar

StartChar: Abreve
Encoding: 258 258 3
Width: 581
GlyphClass: 2
Flags: MW
HStem: 0 21G<-51 117 -51 -51 387 387 387 557> 149 119<216 362 216 373 172 362> 583 110<332 332> 673 20G<253 448 448 448> 751 109<338 383 338 402.5>
VStem: -51 608<0 0>
AnchorPoint: "Anchor-11" 0 0 basechar 0
AnchorPoint: "Anchor-10" 95 531 basechar 0
AnchorPoint: "Anchor-9" 351 693 basechar 0
AnchorPoint: "Anchor-8" 491 0 basechar 0
LayerCount: 2
Fore
SplineSet
351 751 m 0xdc
 247 751 199 829 203 915 c 1
 288 927 l 1
 294 889 316 860 360 860 c 0
 406 860 438 891 455 930 c 1
 541 911 l 1
 522 826 454 751 351 751 c 0xdc
373 149 m 1
 172 149 l 1
 117 0 l 1
 -51 0 l 1
 253 693 l 1
 448 693 l 1
 557 0 l 1
 387 0 l 1
 373 149 l 1
362 268 m 1
 332 583 l 1xec
 216 268 l 1
 362 268 l 1
EndSplineSet
Substitution2: "'c2sc' Capitals to Small Capitals lookup 23 subtable" abreve.sc
Substitution2: "'aalt' Access All Alternates lookup 0 subtable" abreve.sc
Position2: "'cpsp' Capital Spacing lookup 0 subtable" dx=5 dy=0 dh=10 dv=0
EndChar

StartChar: abreve
Encoding: 259 259 136
Width: 572
GlyphClass: 2
Flags: MW
HStem: -17 116<229.5 233.5> -14 21G<479 479> 436 112<274 337.5> 632 110<345 390 345 408.5>
VStem: 25 161<157.5 246.5 157.5 270> 209 87<806 819>
AnchorPoint: "Anchor-11" 0 0 basechar 0
AnchorPoint: "Anchor-10" 0 0 basechar 0
AnchorPoint: "Anchor-9" 341 531 basechar 0
AnchorPoint: "Anchor-8" 487 -14 basechar 0
LayerCount: 2
Fore
SplineSet
357 632 m 0x7c
 253 632 205 711 209 806 c 1
 296 819 l 1
 301 771 323 742 367 742 c 0
 413 742 446 773 464 822 c 1
 548 803 l 1
 528 708 460 632 357 632 c 0x7c
330 548 m 0
 400 548 475 532 548 492 c 1
 497 152 l 2
 496 144 495 136 495 130 c 0
 495 105 505 95 523 88 c 1
 479 -14 l 1x78
 420 -9 371 17 356 74 c 1
 319 21 268 -17 199 -17 c 0
 84 -17 25 66 25 194 c 0xb8
 25 346 105 548 330 548 c 0
326 436 m 0xb8
 222 436 186 298 186 195 c 0
 186 120 212 99 247 99 c 0
 285 99 317 127 347 173 c 1
 385 426 l 1
 365 433 349 436 326 436 c 0xb8
EndSplineSet
Substitution2: "'smcp' Lowercase to Small Capitals lookup 24 subtable" abreve.sc
Substitution2: "'aalt' Access All Alternates lookup 0 subtable" abreve.sc
EndChar

StartChar: Aogonek
Encoding: 260 260 8
Width: 581
GlyphClass: 2
Flags: MW
HStem: -245 98<326.5 403.5> 0 21G<-51 117 -51 -51 483 557 483 483> 149 119<216 362 216 373 172 362> 583 110<332 332> 673 20G<253 448 448 448>
VStem: 233 116<-125 -108.5>
AnchorPoint: "Anchor-11" 0 0 basechar 0
AnchorPoint: "Anchor-10" 95 531 basechar 0
AnchorPoint: "Anchor-9" 351 693 basechar 0
AnchorPoint: "Anchor-8" 491 0 basechar 0
LayerCount: 2
Fore
SplineSet
483 0 m 1xec
 366 -42 349 -87 349 -114 c 0
 349 -136 365 -147 393 -147 c 0
 414 -147 433 -144 456 -139 c 1
 434 -238 l 1
 413 -243 391 -245 366 -245 c 0
 287 -245 233 -205 233 -141 c 0
 233 -76 275 -18 385 26 c 1
 373 149 l 1
 172 149 l 1
 117 0 l 1
 -51 0 l 1
 253 693 l 1
 448 693 l 1
 557 0 l 1
 483 0 l 1xec
362 268 m 1
 332 583 l 1xf4
 216 268 l 1
 362 268 l 1
EndSplineSet
Substitution2: "'c2sc' Capitals to Small Capitals lookup 23 subtable" aogonek.sc
Substitution2: "'aalt' Access All Alternates lookup 0 subtable" aogonek.sc
Position2: "'cpsp' Capital Spacing lookup 0 subtable" dx=5 dy=0 dh=10 dv=0
EndChar

StartChar: aogonek
Encoding: 261 261 141
Width: 572
GlyphClass: 2
Flags: MW
HStem: -259 98<322.5 399.5> -17 116<229.5 233.5> 436 112<274 337.5>
VStem: 25 161<157.5 246.5 157.5 270> 229 116<-139 -121>
AnchorPoint: "Anchor-11" 0 0 basechar 0
AnchorPoint: "Anchor-10" 0 0 basechar 0
AnchorPoint: "Anchor-9" 341 531 basechar 0
AnchorPoint: "Anchor-8" 487 -14 basechar 0
LayerCount: 2
Fore
SplineSet
495 130 m 0
 495 105 505 95 523 88 c 1
 479 -14 l 1
 362 -56 345 -101 345 -128 c 0
 345 -150 361 -161 389 -161 c 0
 410 -161 429 -158 452 -153 c 1
 430 -252 l 1
 409 -257 387 -259 362 -259 c 0
 283 -259 229 -219 229 -155 c 0
 229 -87 274 -28 393 16 c 1
 375 30 363 49 356 74 c 1
 319 21 268 -17 199 -17 c 0
 84 -17 25 66 25 194 c 0
 25 346 105 548 330 548 c 0
 400 548 475 532 548 492 c 1
 497 152 l 2
 496 144 495 136 495 130 c 0
385 426 m 1
 365 433 349 436 326 436 c 0
 222 436 186 298 186 195 c 0
 186 120 212 99 247 99 c 0
 285 99 317 127 347 173 c 1
 385 426 l 1
EndSplineSet
Substitution2: "'smcp' Lowercase to Small Capitals lookup 24 subtable" aogonek.sc
Substitution2: "'aalt' Access All Alternates lookup 0 subtable" aogonek.sc
EndChar

StartChar: Cacute
Encoding: 262 262 15
Width: 565
GlyphClass: 2
Flags: MW
HStem: -17 127<290.5 353.5> 589 121<324.5 421>
VStem: 39 167<213 330 213 364>
AnchorPoint: "Anchor-11" 299 0 basechar 0
AnchorPoint: "Anchor-10" 0 0 basechar 0
AnchorPoint: "Anchor-9" 408 693 basechar 0
AnchorPoint: "Anchor-8" 0 0 basechar 0
LayerCount: 2
Fore
SplineSet
570 838 m 1
 329 747 l 1
 290 827 l 1
 513 957 l 1
 570 838 l 1
395 710 m 0
 485 710 552 681 600 628 c 1
 511 540 l 1
 478 572 444 589 398 589 c 0
 251 589 206 391 206 269 c 0
 206 157 253 110 328 110 c 0
 383 110 426 138 469 169 c 1
 531 71 l 1
 479 25 400 -17 307 -17 c 0
 142 -17 39 83 39 269 c 0
 39 459 134 710 395 710 c 0
EndSplineSet
Substitution2: "'c2sc' Capitals to Small Capitals lookup 23 subtable" cacute.sc
Substitution2: "'locl' Localized Forms in Latin lookup 7 subtable" Cacute.loclPLK
AlternateSubs2: "'aalt' Access All Alternates lookup 1 subtable" Cacute.loclPLK cacute.sc
Position2: "'cpsp' Capital Spacing lookup 0 subtable" dx=5 dy=0 dh=10 dv=0
EndChar

StartChar: cacute
Encoding: 263 263 148
Width: 469
GlyphClass: 2
Flags: MW
HStem: -17 125<247 288> 427 121<270 341.5>
VStem: 26 163<168.5 251 168.5 281>
AnchorPoint: "Anchor-11" 238 0 basechar 0
AnchorPoint: "Anchor-10" 0 0 basechar 0
AnchorPoint: "Anchor-9" 322 531 basechar 0
AnchorPoint: "Anchor-8" 0 0 basechar 0
LayerCount: 2
Fore
SplineSet
476 717 m 1
 231 622 l 1
 200 703 l 1
 431 835 l 1
 476 717 l 1
323 548 m 0
 391 548 449 525 493 480 c 1
 417 390 l 1
 387 417 359 427 324 427 c 0
 216 427 189 296 189 206 c 0
 189 131 222 108 272 108 c 0
 310 108 339 121 378 145 c 1
 435 44 l 1
 382 5 323 -17 253 -17 c 0
 109 -17 26 72 26 212 c 0
 26 350 108 548 323 548 c 0
EndSplineSet
Substitution2: "'smcp' Lowercase to Small Capitals lookup 24 subtable" cacute.sc
Substitution2: "'locl' Localized Forms in Latin lookup 7 subtable" cacute.loclPLK
AlternateSubs2: "'aalt' Access All Alternates lookup 1 subtable" cacute.loclPLK cacute.sc
EndChar

StartChar: Ccircumflex
Encoding: 264 264 18
Width: 565
GlyphClass: 2
Flags: MW
HStem: -17 127<290.5 353.5> 589 121<324.5 421>
VStem: 39 167<213 330 213 364>
AnchorPoint: "Anchor-11" 299 0 basechar 0
AnchorPoint: "Anchor-10" 0 0 basechar 0
AnchorPoint: "Anchor-9" 408 693 basechar 0
AnchorPoint: "Anchor-8" 0 0 basechar 0
LayerCount: 2
Fore
SplineSet
437 839 m 1
 295 755 l 1
 244 820 l 1
 401 949 l 1
 496 949 l 1
 617 820 l 1
 556 755 l 1
 437 839 l 1
395 710 m 0
 485 710 552 681 600 628 c 1
 511 540 l 1
 478 572 444 589 398 589 c 0
 251 589 206 391 206 269 c 0
 206 157 253 110 328 110 c 0
 383 110 426 138 469 169 c 1
 531 71 l 1
 479 25 400 -17 307 -17 c 0
 142 -17 39 83 39 269 c 0
 39 459 134 710 395 710 c 0
EndSplineSet
Substitution2: "'c2sc' Capitals to Small Capitals lookup 23 subtable" ccircumflex.sc
Substitution2: "'aalt' Access All Alternates lookup 0 subtable" ccircumflex.sc
Position2: "'cpsp' Capital Spacing lookup 0 subtable" dx=5 dy=0 dh=10 dv=0
EndChar
StartChar: ccircumflex
Encoding: 265 265 384
Width: 470
GlyphClass: 2
Flags: MW
HStem: -17 125<248 288.5> 427 121<271 342>
VStem: 27 163<168.5 251 168.5 281>
AnchorPoint: "Anchor-14" 0 0 basechar 0
AnchorPoint: "Anchor-13" 0 0 basechar 0
AnchorPoint: "Anchor-12" 360 822 basechar 0
AnchorPoint: "Anchor-11" 0 0 basechar 0
AnchorPoint: "Anchor-10" 238 0 basechar 0
LayerCount: 2
Back
Fore
SplineSet
206 620 m 1
 156 685 l 1
 314 822 l 1
 409 822 l 1
 529 685 l 1
 466 620 l 1
 348 712 l 1
 206 620 l 1
324 548 m 0
 392 548 450 525 494 480 c 1
 417 390 l 1
 388 417 359 427 325 427 c 0
 217 427 190 296 190 206 c 0
 190 131 223 108 273 108 c 0
 311 108 339 121 378 145 c 1
 436 44 l 1
 383 5 324 -17 253 -17 c 0
 110 -17 27 72 27 212 c 0
 27 350 108 548 324 548 c 0
EndSplineSet
Substitution2: "'smcp' Lowercase to Small Capitals lookup 28 subtable" ccircumflex.sc
Substitution2: "'aalt' Access All Alternates lookup 0 subtable" ccircumflex.sc
EndChar
StartChar: Cdotaccent
Encoding: 266 266 47
Width: 565
GlyphClass: 2
Flags: MW
HStem: -17 127<290.5 353.5> 589 121<324 420.5> 757 180<416 449.5>
VStem: 39 167<213 330 213 364> 341 183
AnchorPoint: "Anchor-14" 0 0 basechar 0
AnchorPoint: "Anchor-13" 0 0 basechar 0
AnchorPoint: "Anchor-12" 442 937 basechar 0
AnchorPoint: "Anchor-11" 0 0 basechar 0
AnchorPoint: "Anchor-10" 299 0 basechar 0
LayerCount: 2
Back
Fore
SplineSet
442 937 m 0
 498 937 531 896 524 843 c 0
 517 794 476 757 423 757 c 0
 367 757 334 798 341 850 c 0
 348 899 390 937 442 937 c 0
395 710 m 0
 485 710 552 681 600 628 c 1
 511 541 l 1
 478 572 444 589 397 589 c 0
 251 589 206 391 206 269 c 0
 206 157 253 110 328 110 c 0
 383 110 426 138 469 169 c 1
 531 71 l 1
 479 25 400 -17 307 -17 c 0
 142 -17 39 83 39 269 c 0
 39 459 134 710 395 710 c 0
EndSplineSet
Substitution2: "'c2sc' Capitals to Small Capitals lookup 27 subtable" cdotaccent.sc
Substitution2: "'aalt' Access All Alternates lookup 0 subtable" cdotaccent.sc
Position2: "'cpsp' Capital Spacing lookup 0 subtable" dx=5 dy=0 dh=10 dv=0
EndChar
StartChar: cdotaccent
Encoding: 267 267 386
Width: 470
GlyphClass: 2
Flags: MW
HStem: -17 125<248 288.5> 427 121<271 342> 631 180<334 367>
VStem: 27 163<168.5 251 168.5 281> 259 183
AnchorPoint: "Anchor-14" 0 0 basechar 0
AnchorPoint: "Anchor-13" 0 0 basechar 0
AnchorPoint: "Anchor-12" 362 811 basechar 0
AnchorPoint: "Anchor-11" 0 0 basechar 0
AnchorPoint: "Anchor-10" 238 0 basechar 0
LayerCount: 2
Back
Fore
SplineSet
360 811 m 0
 416 811 449 770 442 717 c 0
 435 668 394 631 340 631 c 0
 285 631 252 672 259 724 c 0
 266 773 308 811 360 811 c 0
324 548 m 0
 392 548 450 525 494 480 c 1
 417 390 l 1
 388 417 359 427 325 427 c 0
 217 427 190 296 190 206 c 0
 190 131 223 108 273 108 c 0
 311 108 339 121 378 145 c 1
 436 44 l 1
 383 5 324 -17 253 -17 c 0
 110 -17 27 72 27 212 c 0
 27 350 108 548 324 548 c 0
EndSplineSet
Substitution2: "'smcp' Lowercase to Small Capitals lookup 28 subtable" cdotaccent.sc
Substitution2: "'aalt' Access All Alternates lookup 0 subtable" cdotaccent.sc
EndChar
StartChar: ccaron
Encoding: 269 269 382
Width: 470
GlyphClass: 2
Flags: MW
HStem: -17 125<248 288.5> 427 121<271 342> 728 20G<165 165 538 538>
VStem: 27 163<168.5 251 168.5 281>
AnchorPoint: "Anchor-14" 0 0 basechar 0
AnchorPoint: "Anchor-13" 0 0 basechar 0
AnchorPoint: "Anchor-12" 353 813 basechar 0
AnchorPoint: "Anchor-11" 0 0 basechar 0
AnchorPoint: "Anchor-10" 238 0 basechar 0
LayerCount: 2
Back
Fore
SplineSet
488 813 m 1
 538 748 l 1
 381 611 l 1
 286 611 l 1
 165 748 l 1
 225 813 l 1
 343 722 l 1
 488 813 l 1
324 548 m 0
 392 548 450 525 494 480 c 1
 417 390 l 1
 388 417 359 427 325 427 c 0
 217 427 190 296 190 206 c 0
 190 131 223 108 273 108 c 0
 311 108 339 121 378 145 c 1
 436 44 l 1
 383 5 324 -17 253 -17 c 0
 110 -17 27 72 27 212 c 0
 27 350 108 548 324 548 c 0
EndSplineSet
Substitution2: "'smcp' Lowercase to Small Capitals lookup 28 subtable" ccaron.sc
Substitution2: "'aalt' Access All Alternates lookup 0 subtable" ccaron.sc
EndChar

StartChar: Dcaron
Encoding: 270 270 22
Width: 642
GlyphClass: 2
Flags: MW
HStem: 0 119<205 234> 574 119<269 269 269 312 312 322>
VStem: 461 166<363 489.5>
AnchorPoint: "Anchor-11" 0 0 basechar 0
AnchorPoint: "Anchor-10" 0 0 basechar 0
AnchorPoint: "Anchor-9" 351 693 basechar 0
AnchorPoint: "Anchor-8" 0 0 basechar 0
LayerCount: 2
Fore
SplineSet
559 879 m 1
 403 750 l 1
 308 750 l 1
 186 879 l 1
 249 943 l 1
 367 859 l 1
 510 943 l 1
 559 879 l 1
312 693 m 2
 477 693 627 644 627 430 c 0
 627 205 530 0 234 0 c 2
 27 0 l 1
 124 693 l 1
 312 693 l 2
269 574 m 1
 205 119 l 1
 258 119 l 2
 421 119 461 296 461 430 c 0
 461 549 402 574 322 574 c 2
 269 574 l 1
EndSplineSet
Substitution2: "'c2sc' Capitals to Small Capitals lookup 23 subtable" dcaron.sc
Substitution2: "'aalt' Access All Alternates lookup 0 subtable" dcaron.sc
Position2: "'cpsp' Capital Spacing lookup 0 subtable" dx=5 dy=0 dh=10 dv=0
EndChar

StartChar: dcaron
Encoding: 271 271 155
Width: 709
GlyphClass: 2
Flags: MW
HStem: -17 116<231.5 232> 0 21G<353 491 353 353> 433 115<267.5 312.5 192 333.5> 515 20G<626 626> 528 20G<192 312.5> 722 20G<595 595 782 782> 736 20G<667 667> 739 20G<441 441>
VStem: 29 161<158.5 240 158.5 269.5>
LayerCount: 2
Fore
SplineSet
595 742 m 1x6480
 491 0 l 1
 353 0 l 1x6480
 354 76 l 1
 320 25 268 -17 196 -17 c 0
 83 -17 29 64 29 197 c 0
 29 342 96 548 288 548 c 0
 337 548 377 527 405 497 c 1
 441 759 l 1xa180
 595 742 l 1x6480
782 742 m 1
 706 527 l 1x4980
 626 535 l 1
 667 756 l 1x5280
 782 742 l 1
317 433 m 0xa180
 218 433 190 284 190 196 c 0
 190 121 214 99 249 99 c 0
 293 99 330 144 362 197 c 1
 390 394 l 1
 371 420 350 433 317 433 c 0xa180
EndSplineSet
Substitution2: "'smcp' Lowercase to Small Capitals lookup 24 subtable" dcaron.sc
Substitution2: "'aalt' Access All Alternates lookup 0 subtable" dcaron.sc
EndChar

StartChar: Dcroat
Encoding: 272 272 23
Width: 652
GlyphClass: 2
Flags: MW
HStem: 0 119<214 243> 304 98<33 80 20 93 254 377> 574 119<278 322 322 331 278 278>
VStem: 470 166<363 489.5>
AnchorPoint: "Anchor-11" 0 0 basechar 0
AnchorPoint: "Anchor-10" 0 0 basechar 0
AnchorPoint: "Anchor-9" 361 693 basechar 0
AnchorPoint: "Anchor-8" 0 0 basechar 0
LayerCount: 2
Fore
SplineSet
322 693 m 2
 486 693 636 644 636 430 c 0
 636 205 539 0 243 0 c 2
 37 0 l 1
 80 304 l 1
 20 304 l 1
 33 402 l 1
 93 402 l 1
 134 693 l 1
 322 693 l 2
267 119 m 2
 430 119 470 296 470 430 c 0
 470 549 411 574 331 574 c 2
 278 574 l 1
 254 402 l 1
 390 402 l 1
 377 304 l 1
 240 304 l 1
 214 119 l 1
 267 119 l 2
EndSplineSet
Substitution2: "'c2sc' Capitals to Small Capitals lookup 23 subtable" dcroat.sc
Substitution2: "'aalt' Access All Alternates lookup 0 subtable" dcroat.sc
Position2: "'cpsp' Capital Spacing lookup 0 subtable" dx=5 dy=0 dh=10 dv=0
EndChar
StartChar: dcroat
Encoding: 273 273 395
Width: 600
GlyphClass: 2
Flags: MW
HStem: -17 116<141.5 273> 0 21G<355 493 355 355> 433 115<269.5 314.5 194.5 335.5> 596 92<293 421 292 434 589 637> 722 20G<597 597> 738 20G<443 443>
VStem: 31 161<158.5 240 158.5 269.5>
AnchorPoint: "Anchor-14" 298 266 basechar 0
AnchorPoint: "Anchor-13" 609 742 basechar 0
AnchorPoint: "Anchor-12" 344 742 basechar 0
AnchorPoint: "Anchor-11" 0 0 basechar 0
AnchorPoint: "Anchor-10" 258 0 basechar 0
LayerCount: 2
Back
Fore
SplineSet
650 688 m 1x76
 637 596 l 1
 576 596 l 1
 493 0 l 1
 355 0 l 1x76
 356 76 l 1
 322 25 270 -17 198 -17 c 0
 85 -17 31 64 31 197 c 0
 31 342 99 548 290 548 c 0
 339 548 380 527 407 497 c 1
 421 596 l 1
 292 596 l 1
 293 688 l 1
 434 688 l 1
 443 758 l 1xb6
 597 742 l 1x7a
 589 688 l 1
 650 688 l 1x76
365 197 m 1xb6
 393 394 l 1
 373 420 352 433 319 433 c 0
 220 433 192 284 192 196 c 0
 192 121 217 99 251 99 c 0
 295 99 332 144 365 197 c 1xb6
EndSplineSet
Substitution2: "'smcp' Lowercase to Small Capitals lookup 28 subtable" dcroat.sc
Substitution2: "'aalt' Access All Alternates lookup 0 subtable" dcroat.sc
EndChar

StartChar: Emacron
Encoding: 274 274 32
Width: 517
GlyphClass: 2
Flags: MW
HStem: 0 118<205 446> 295 115<245 440 230 455> 576 117<269 509 269 269> 781 110<197 513 212 498>
VStem: 27 516
AnchorPoint: "Anchor-11" 237 0 basechar 0
AnchorPoint: "Anchor-10" -12 534 basechar 0
AnchorPoint: "Anchor-9" 335 693 basechar 0
AnchorPoint: "Anchor-8" 416 0 basechar 0
LayerCount: 2
Fore
SplineSet
197 781 m 1
 212 891 l 1
 513 891 l 1
 498 781 l 1
 197 781 l 1
509 576 m 1
 269 576 l 1
 245 410 l 1
 455 410 l 1
 440 295 l 1
 230 295 l 1
 205 118 l 1
 462 118 l 1
 446 0 l 1
 27 0 l 1
 124 693 l 1
 543 693 l 1
 509 576 l 1
EndSplineSet
Substitution2: "'c2sc' Capitals to Small Capitals lookup 23 subtable" emacron.sc
Substitution2: "'aalt' Access All Alternates lookup 0 subtable" emacron.sc
Position2: "'cpsp' Capital Spacing lookup 0 subtable" dx=5 dy=0 dh=10 dv=0
EndChar

StartChar: emacron
Encoding: 275 275 165
Width: 535
GlyphClass: 2
Flags: MW
HStem: -17 116<252 299> 443 105<276 334> 655 110<197 483 182 498>
VStem: 27 156 367 157<371.5 406>
AnchorPoint: "Anchor-11" 252 0 basechar 0
AnchorPoint: "Anchor-10" 0 0 basechar 0
AnchorPoint: "Anchor-9" 315 531 basechar 0
AnchorPoint: "Anchor-8" 392 9 basechar 0
LayerCount: 2
Fore
SplineSet
483 655 m 1
 182 655 l 1
 197 765 l 1
 498 765 l 1
 483 655 l 1
524 403 m 0
 524 254 350 210 183 193 c 1
 187 122 226 99 278 99 c 0
 323 99 364 115 413 148 c 1
 469 54 l 1
 411 12 340 -17 258 -17 c 0
 103 -17 27 73 27 208 c 0
 27 352 105 548 328 548 c 0
 457 548 524 483 524 403 c 0
190 289 m 1
 323 299 367 349 367 394 c 0
 367 418 355 443 313 443 c 0
 239 443 204 365 190 289 c 1
EndSplineSet
Substitution2: "'smcp' Lowercase to Small Capitals lookup 24 subtable" emacron.sc
Substitution2: "'aalt' Access All Alternates lookup 0 subtable" emacron.sc
EndChar
StartChar: Ebreve
Encoding: 276 276 67
Width: 518
GlyphClass: 2
Flags: MW
HStem: 0 118<206 446> 295 115<246 441 231 456> 576 117<269 510 269 269> 751 109<332 377 332 396.5>
VStem: 197 85<915 927>
AnchorPoint: "Anchor-14" 0 0 basechar 0
AnchorPoint: "Anchor-13" 0 0 basechar 0
AnchorPoint: "Anchor-12" 368 930 basechar 0
AnchorPoint: "Anchor-11" 416 0 basechar 0
AnchorPoint: "Anchor-10" 237 0 basechar 0
LayerCount: 2
Back
Fore
SplineSet
345 751 m 0
 241 751 192 829 197 915 c 1
 282 927 l 1
 287 889 310 860 354 860 c 0
 400 860 432 891 448 930 c 1
 535 911 l 1
 516 826 448 751 345 751 c 0
544 693 m 1
 510 576 l 1
 269 576 l 1
 246 410 l 1
 456 410 l 1
 441 295 l 1
 231 295 l 1
 206 118 l 1
 463 118 l 1
 446 0 l 1
 28 0 l 1
 125 693 l 1
 544 693 l 1
EndSplineSet
Substitution2: "'c2sc' Capitals to Small Capitals lookup 27 subtable" ebreve.sc
Substitution2: "'aalt' Access All Alternates lookup 0 subtable" ebreve.sc
Position2: "'cpsp' Capital Spacing lookup 0 subtable" dx=5 dy=0 dh=10 dv=0
EndChar
StartChar: Edotaccent
Encoding: 278 278 78
Width: 518
GlyphClass: 2
Flags: MW
HStem: 0 118<206 446> 295 115<246 441 231 456> 576 117<269 510 269 269> 757 180<344 377.5>
VStem: 269 183
AnchorPoint: "Anchor-14" 0 0 basechar 0
AnchorPoint: "Anchor-13" 0 0 basechar 0
AnchorPoint: "Anchor-12" 370 937 basechar 0
AnchorPoint: "Anchor-11" 416 0 basechar 0
AnchorPoint: "Anchor-10" 237 0 basechar 0
LayerCount: 2
Back
Fore
SplineSet
370 937 m 0
 426 937 459 896 452 843 c 0
 445 794 404 757 351 757 c 0
 295 757 262 798 269 850 c 0
 276 899 318 937 370 937 c 0
544 693 m 1
 510 576 l 1
 269 576 l 1
 246 410 l 1
 456 410 l 1
 441 295 l 1
 231 295 l 1
 206 118 l 1
 463 118 l 1
 446 0 l 1
 28 0 l 1
 125 693 l 1
 544 693 l 1
EndSplineSet
Substitution2: "'c2sc' Capitals to Small Capitals lookup 27 subtable" edotaccent.sc
Substitution2: "'aalt' Access All Alternates lookup 0 subtable" edotaccent.sc
Position2: "'cpsp' Capital Spacing lookup 0 subtable" dx=5 dy=0 dh=10 dv=0
EndChar

StartChar: Eogonek
Encoding: 280 280 33
Width: 517
GlyphClass: 2
Flags: MW
HStem: -245 98<251.5 328.5> 0 118<205 255 408 446 408 408> 295 115<245 440 230 455> 576 117<269 269 269 509>
VStem: 158 116<-125 -114.5>
AnchorPoint: "Anchor-11" 237 0 basechar 0
AnchorPoint: "Anchor-10" -12 534 basechar 0
AnchorPoint: "Anchor-9" 335 693 basechar 0
AnchorPoint: "Anchor-8" 416 0 basechar 0
LayerCount: 2
Fore
SplineSet
269 576 m 1
 245 410 l 1
 455 410 l 1
 440 295 l 1
 230 295 l 1
 205 118 l 1
 462 118 l 1
 446 0 l 1
 408 0 l 1
 291 -42 274 -87 274 -114 c 0
 274 -136 290 -147 318 -147 c 0
 339 -147 358 -144 381 -139 c 1
 359 -238 l 1
 338 -243 316 -245 291 -245 c 0
 212 -245 158 -205 158 -141 c 0
 158 -88 186 -40 255 0 c 1
 27 0 l 1
 124 693 l 1
 543 693 l 1
 509 576 l 1
 269 576 l 1
EndSplineSet
Substitution2: "'c2sc' Capitals to Small Capitals lookup 23 subtable" eogonek.sc
Substitution2: "'aalt' Access All Alternates lookup 0 subtable" eogonek.sc
Position2: "'cpsp' Capital Spacing lookup 0 subtable" dx=5 dy=0 dh=10 dv=0
EndChar

StartChar: eogonek
Encoding: 281 281 166
Width: 535
GlyphClass: 2
Flags: MW
HStem: -237 98<286 289> -15 21G 443 105<276 334>
VStem: 27 156 139 116 367 157<371.5 406>
AnchorPoint: "Anchor-11" 252 0 basechar 0
AnchorPoint: "Anchor-10" 0 0 basechar 0
AnchorPoint: "Anchor-9" 315 531 basechar 0
AnchorPoint: "Anchor-8" 392 9 basechar 0
LayerCount: 2
Fore
SplineSet
524 403 m 0xf4
 524 254 350 210 183 193 c 1
 187 122 226 99 278 99 c 0xf4
 323 99 364 115 413 148 c 1
 469 54 l 1
 434 28 394 8 349 -5 c 1
 276 -37 258 -69 255 -95 c 1
 253 -124 269 -139 303 -139 c 0
 324 -139 343 -136 366 -131 c 1
 346 -229 l 1
 325 -234 302 -237 276 -237 c 0
 190 -237 132 -191 139 -118 c 0xec
 143 -73 173 -39 216 -15 c 1
 89 0 27 86 27 208 c 0
 27 352 105 548 328 548 c 0
 457 548 524 483 524 403 c 0xf4
190 289 m 1
 323 299 367 349 367 394 c 0
 367 418 355 443 313 443 c 0
 239 443 204 365 190 289 c 1
EndSplineSet
Substitution2: "'smcp' Lowercase to Small Capitals lookup 24 subtable" eogonek.sc
Substitution2: "'aalt' Access All Alternates lookup 0 subtable" eogonek.sc
EndChar

StartChar: Ecaron
Encoding: 282 282 27
Width: 517
GlyphClass: 2
Flags: MW
HStem: 0 118<205 446> 295 115<245 440 230 455> 576 117<269 509 269 269>
VStem: 27 516
AnchorPoint: "Anchor-11" 237 0 basechar 0
AnchorPoint: "Anchor-10" -12 534 basechar 0
AnchorPoint: "Anchor-9" 335 693 basechar 0
AnchorPoint: "Anchor-8" 416 0 basechar 0
LayerCount: 2
Fore
SplineSet
543 879 m 1
 387 750 l 1
 292 750 l 1
 170 879 l 1
 233 943 l 1
 351 859 l 1
 494 943 l 1
 543 879 l 1
509 576 m 1
 269 576 l 1
 245 410 l 1
 455 410 l 1
 440 295 l 1
 230 295 l 1
 205 118 l 1
 462 118 l 1
 446 0 l 1
 27 0 l 1
 124 693 l 1
 543 693 l 1
 509 576 l 1
EndSplineSet
Substitution2: "'c2sc' Capitals to Small Capitals lookup 23 subtable" ecaron.sc
Substitution2: "'aalt' Access All Alternates lookup 0 subtable" ecaron.sc
Position2: "'cpsp' Capital Spacing lookup 0 subtable" dx=5 dy=0 dh=10 dv=0
EndChar
StartChar: ecaron
Encoding: 283 283 412
Width: 535
GlyphClass: 2
Flags: MW
HStem: -17 116<252 299> 443 105<276 334> 728 20G<157 157 530 530>
VStem: 27 157 367 157<371.5 406>
AnchorPoint: "Anchor-14" 0 0 basechar 0
AnchorPoint: "Anchor-13" 0 0 basechar 0
AnchorPoint: "Anchor-12" 345 813 basechar 0
AnchorPoint: "Anchor-11" 392 9 basechar 0
AnchorPoint: "Anchor-10" 252 0 basechar 0
LayerCount: 2
Back
Fore
SplineSet
373 611 m 1
 278 611 l 1
 157 748 l 1
 217 813 l 1
 335 722 l 1
 480 813 l 1
 530 748 l 1
 373 611 l 1
328 548 m 0
 457 548 524 483 524 403 c 0
 524 254 350 209 184 193 c 1
 188 123 226 99 278 99 c 0
 323 99 364 115 413 148 c 1
 469 54 l 1
 411 12 340 -17 258 -17 c 0
 103 -17 27 73 27 208 c 0
 27 352 105 548 328 548 c 0
191 289 m 1
 323 299 367 349 367 394 c 0
 367 418 355 443 313 443 c 0
 239 443 204 365 191 289 c 1
EndSplineSet
Substitution2: "'smcp' Lowercase to Small Capitals lookup 28 subtable" ecaron.sc
Substitution2: "'aalt' Access All Alternates lookup 0 subtable" ecaron.sc
EndChar
StartChar: gcircumflex
Encoding: 285 285 455
Width: 577
GlyphClass: 2
Flags: MW
HStem: -223 120<182.5 234 182.5 291.5> 0 117<143.5 270> 436 112<278 343>
VStem: 27 161<174 257 174 279.5>
AnchorPoint: "Anchor-14" 0 0 basechar 0
AnchorPoint: "Anchor-13" 0 0 basechar 0
AnchorPoint: "Anchor-12" 370 822 basechar 0
AnchorPoint: "Anchor-11" 0 0 basechar 0
AnchorPoint: "Anchor-10" 208 -210 basechar 0
LayerCount: 2
Back
Fore
SplineSet
216 620 m 1
 166 685 l 1
 324 822 l 1
 419 822 l 1
 539 685 l 1
 476 620 l 1
 358 712 l 1
 216 620 l 1
335 548 m 0
 405 548 480 532 553 492 c 1
 487 41 l 2
 460 -146 375 -223 208 -223 c 0
 142 -223 66 -200 8 -164 c 1
 61 -61 l 1
 110 -88 160 -103 205 -103 c 0
 263 -103 319 -85 334 18 c 2
 341 69 l 1
 306 29 258 0 201 0 c 0
 86 0 27 84 27 206 c 0
 27 353 108 548 335 548 c 0
331 436 m 0
 225 436 188 304 188 210 c 0
 188 138 216 117 250 117 c 0
 290 117 324 148 354 191 c 1
 391 426 l 1
 370 433 355 436 331 436 c 0
EndSplineSet
Substitution2: "'smcp' Lowercase to Small Capitals lookup 28 subtable" gcircumflex.sc
Substitution2: "'aalt' Access All Alternates lookup 0 subtable" gcircumflex.sc
EndChar
StartChar: Gbreve
Encoding: 286 286 99
Width: 634
GlyphClass: 2
Flags: MW
HStem: -17 120<280 334.5 280 351> 283 116<349 436 348 609> 591 119<333 442> 751 109<403 448 403 467.5>
VStem: 38 166<193 319.5 193 362.5> 268 85<915 927>
AnchorPoint: "Anchor-14" 0 0 basechar 0
AnchorPoint: "Anchor-13" 0 0 basechar 0
AnchorPoint: "Anchor-12" 439 930 basechar 0
AnchorPoint: "Anchor-11" 0 0 basechar 0
AnchorPoint: "Anchor-10" 305 0 basechar 0
LayerCount: 2
Back
Fore
SplineSet
416 751 m 0
 312 751 263 829 268 915 c 1
 353 927 l 1
 358 889 381 860 425 860 c 0
 471 860 503 891 519 930 c 1
 606 911 l 1
 587 826 519 751 416 751 c 0
417 710 m 0
 516 710 587 674 636 622 c 1
 542 538 l 1
 503 575 469 591 415 591 c 0
 251 591 204 394 204 245 c 0
 204 141 243 103 317 103 c 0
 352 103 383 111 414 127 c 1
 436 283 l 1
 348 283 l 1
 349 399 l 1
 609 399 l 1
 562 56 l 1
 487 9 395 -17 307 -17 c 0
 128 -17 38 79 38 259 c 0
 38 466 143 710 417 710 c 0
EndSplineSet
Substitution2: "'c2sc' Capitals to Small Capitals lookup 27 subtable" gbreve.sc
Substitution2: "'aalt' Access All Alternates lookup 0 subtable" gbreve.sc
Position2: "'cpsp' Capital Spacing lookup 0 subtable" dx=5 dy=0 dh=10 dv=0
EndChar
StartChar: gbreve
Encoding: 287 287 453
Width: 577
GlyphClass: 2
Flags: MW
HStem: -223 120<182.5 234 182.5 291.5> 0 117<143.5 270> 436 112<278 343> 632 110<331 376 331 394.5>
VStem: 27 161<174 257 174 279.5> 195 87<806 819>
AnchorPoint: "Anchor-14" 0 0 basechar 0
AnchorPoint: "Anchor-13" 0 0 basechar 0
AnchorPoint: "Anchor-12" 367 822 basechar 0
AnchorPoint: "Anchor-11" 0 0 basechar 0
AnchorPoint: "Anchor-10" 208 -210 basechar 0
LayerCount: 2
Back
Fore
SplineSet
343 632 m 0
 239 632 191 711 195 806 c 1
 282 819 l 1
 287 771 309 742 353 742 c 0
 399 742 432 773 450 822 c 1
 534 803 l 1
 514 708 446 632 343 632 c 0
335 548 m 0
 405 548 480 532 553 492 c 1
 487 41 l 2
 460 -146 375 -223 208 -223 c 0
 142 -223 66 -200 8 -164 c 1
 61 -61 l 1
 110 -88 160 -103 205 -103 c 0
 263 -103 319 -85 334 18 c 2
 341 69 l 1
 306 29 258 0 201 0 c 0
 86 0 27 84 27 206 c 0xf8
 27 353 108 548 335 548 c 0
331 436 m 0xf8
 225 436 188 304 188 210 c 0
 188 138 216 117 250 117 c 0
 290 117 324 148 354 191 c 1
 391 426 l 1
 370 433 355 436 331 436 c 0xf8
EndSplineSet
Substitution2: "'smcp' Lowercase to Small Capitals lookup 28 subtable" gbreve.sc
Substitution2: "'aalt' Access All Alternates lookup 0 subtable" gbreve.sc
EndChar
StartChar: Gdotaccent
Encoding: 288 288 103
Width: 634
GlyphClass: 2
Flags: MW
HStem: -17 120<280 334.5 280 351> 283 116<349 436 348 609> 591 119<333 442> 757 180<414 447.5>
VStem: 38 166<193 319.5 193 362.5> 339 183
AnchorPoint: "Anchor-14" 0 0 basechar 0
AnchorPoint: "Anchor-13" 0 0 basechar 0
AnchorPoint: "Anchor-12" 440 937 basechar 0
AnchorPoint: "Anchor-11" 0 0 basechar 0
AnchorPoint: "Anchor-10" 305 0 basechar 0
LayerCount: 2
Back
Fore
SplineSet
440 937 m 0
 496 937 529 896 522 843 c 0
 515 794 474 757 421 757 c 0
 365 757 332 798 339 850 c 0
 346 899 388 937 440 937 c 0
417 710 m 0
 516 710 587 674 636 622 c 1
 542 538 l 1
 503 575 469 591 415 591 c 0
 251 591 204 394 204 245 c 0
 204 141 243 103 317 103 c 0
 352 103 383 111 414 127 c 1
 436 283 l 1
 348 283 l 1
 349 399 l 1
 609 399 l 1
 562 56 l 1
 487 9 395 -17 307 -17 c 0
 128 -17 38 79 38 259 c 0
 38 466 143 710 417 710 c 0
EndSplineSet
Substitution2: "'c2sc' Capitals to Small Capitals lookup 27 subtable" gdotaccent.sc
Substitution2: "'aalt' Access All Alternates lookup 0 subtable" gdotaccent.sc
Position2: "'cpsp' Capital Spacing lookup 0 subtable" dx=5 dy=0 dh=10 dv=0
EndChar
StartChar: Hcircumflex
Encoding: 292 292 110
Width: 656
GlyphClass: 2
Flags: MW
HStem: 0 21G<27 188 27 27 394 555 394 394> 297 128<247 434 230 453> 673 20G<125 285 285 285 491 652 652 652>
VStem: 27 625
AnchorPoint: "Anchor-14" 340 347 basechar 0
AnchorPoint: "Anchor-13" 510 830 basechar 0
AnchorPoint: "Anchor-12" 417 949 basechar 0
AnchorPoint: "Anchor-11" 0 0 basechar 0
AnchorPoint: "Anchor-10" 294 0 basechar 0
LayerCount: 2
Back
Fore
SplineSet
525 755 m 1
 406 839 l 1
 264 755 l 1
 213 820 l 1
 370 949 l 1
 465 949 l 1
 586 820 l 1
 525 755 l 1
394 0 m 1
 434 297 l 1
 230 297 l 1
 188 0 l 1
 27 0 l 1
 125 693 l 1
 285 693 l 1
 247 425 l 1
 453 425 l 1
 491 693 l 1
 652 693 l 1
 555 0 l 1
 394 0 l 1
EndSplineSet
Substitution2: "'c2sc' Capitals to Small Capitals lookup 27 subtable" hcircumflex.sc
Substitution2: "'aalt' Access All Alternates lookup 0 subtable" hcircumflex.sc
Position2: "'cpsp' Capital Spacing lookup 0 subtable" dx=5 dy=0 dh=10 dv=0
EndChar

StartChar: hcircumflex
Encoding: 293 293 175
Width: 568
GlyphClass: 2
Flags: MW
HStem: 0 21G<24 179 24 24 319 475 319 319> 419 129<318 452> 528 20G<377 452> 738 20G<285 285>
VStem: 373.18 158.24
AnchorPoint: "Anchor-11" 247 0 basechar 0
AnchorPoint: "Anchor-10" 0 0 basechar 0
AnchorPoint: "Anchor-9" 350 742 basechar 0
AnchorPoint: "Anchor-8" 0 0 basechar 0
LayerCount: 2
Fore
SplineSet
379 888 m 1xb8
 237 804 l 1
 186 869 l 1
 343 998 l 1
 438 998 l 1
 559 869 l 1
 498 804 l 1
 379 888 l 1xb8
408 548 m 0
 496 548 543 487 529 386 c 2
 475 0 l 1
 319 0 l 1
 371 351 l 2
 380 407 363 419 336 419 c 0xd8
 300 419 258 367 220 292 c 1
 179 0 l 1
 24 0 l 1
 128 742 l 1
 285 758 l 1
 239 440 l 1
 278 505 346 548 408 548 c 0
EndSplineSet
Substitution2: "'smcp' Lowercase to Small Capitals lookup 24 subtable" hcircumflex.sc
Substitution2: "'aalt' Access All Alternates lookup 0 subtable" hcircumflex.sc
EndChar

StartChar: Hbar
Encoding: 294 294 41
Width: 674
GlyphClass: 2
Flags: MW
HStem: 0 21G<34 196 34 34 401 562 401 401> 297 128<255 442 237 460> 500 92<62 104 48 117 279 471 645 688> 500 193<48 293 48 293 266 266 266 293 131 471 632 659 632 632>
VStem: 34 668<0 592>
AnchorPoint: "Anchor-11" 0 0 basechar 0
AnchorPoint: "Anchor-10" -6 534 basechar 0
AnchorPoint: "Anchor-9" 396 693 basechar 0
AnchorPoint: "Anchor-8" 0 0 basechar 0
LayerCount: 2
Fore
SplineSet
688 500 m 1xd8
 632 500 l 1
 562 0 l 1
 401 0 l 1
 442 297 l 1
 237 297 l 1
 196 0 l 1
 34 0 l 1
 104 500 l 1
 48 500 l 1xd8
 62 592 l 1
 117 592 l 1xe8
 131 693 l 1
 293 693 l 1xd8
 279 592 l 1
 484 592 l 1xe8
 498 693 l 1
 659 693 l 1xd8
 645 592 l 1
 702 592 l 1xe8
 688 500 l 1xd8
471 500 m 1
 266 500 l 1
 255 425 l 1
 460 425 l 1
 471 500 l 1
EndSplineSet
Substitution2: "'c2sc' Capitals to Small Capitals lookup 23 subtable" hbar.sc
Substitution2: "'aalt' Access All Alternates lookup 0 subtable" hbar.sc
Position2: "'cpsp' Capital Spacing lookup 0 subtable" dx=5 dy=0 dh=10 dv=0
EndChar
StartChar: Itilde
Encoding: 296 296 133
Width: 290
GlyphClass: 2
Flags: MW
HStem: 0 21G<27 188 27 27> 673 20G<124 285 285 285> 761 112<269 295.5 269 305> 806 112<156.5 184>
VStem: 27 390
AnchorPoint: "Anchor-14" 0 0 basechar 0
AnchorPoint: "Anchor-13" 0 0 basechar 0
AnchorPoint: "Anchor-12" 228 919 basechar 0
AnchorPoint: "Anchor-11" 162 0 basechar 0
AnchorPoint: "Anchor-10" 107 0 basechar 0
LayerCount: 2
Back
Fore
SplineSet
278 761 m 0xe8
 226 761 199 806 169 806 c 0
 144 806 128 789 108 760 c 1
 36 802 l 1
 69 865 118 918 176 918 c 0xd8
 233 918 254 873 284 873 c 0
 307 873 323 889 344 918 c 1
 417 877 l 1
 382 810 332 761 278 761 c 0xe8
285 693 m 1xd8
 188 0 l 1
 27 0 l 1
 124 693 l 1
 285 693 l 1xd8
EndSplineSet
Substitution2: "'c2sc' Capitals to Small Capitals lookup 27 subtable" itilde.sc
Substitution2: "'aalt' Access All Alternates lookup 0 subtable" itilde.sc
Position2: "'cpsp' Capital Spacing lookup 0 subtable" dx=5 dy=0 dh=10 dv=0
EndChar
StartChar: itilde
Encoding: 297 297 496
Width: 277
GlyphClass: 2
Flags: MW
HStem: 0 21G<24 179 24 24> 511 20G<98 253 253 253> 635 112<244 270.5 244 280> 680 112<131.5 159> 731 20G<392 392>
VStem: 11 381<676 751>
AnchorPoint: "Anchor-14" 0 0 basechar 0
AnchorPoint: "Anchor-13" 0 0 basechar 0
AnchorPoint: "Anchor-12" 204 793 basechar 0
AnchorPoint: "Anchor-11" 153 0 basechar 0
AnchorPoint: "Anchor-10" 101 0 basechar 0
LayerCount: 2
Back
Fore
SplineSet
253 635 m 0xe4
 201 635 174 680 144 680 c 0
 119 680 103 663 83 634 c 1
 11 676 l 1xd4
 44 739 93 792 151 792 c 0
 208 792 229 747 259 747 c 0
 282 747 298 763 319 792 c 1xe4
 392 751 l 1xcc
 357 684 307 635 253 635 c 0xe4
253 531 m 1xcc
 179 0 l 1
 24 0 l 1
 98 531 l 1
 253 531 l 1xcc
EndSplineSet
Substitution2: "'smcp' Lowercase to Small Capitals lookup 28 subtable" itilde.sc
Substitution2: "'aalt' Access All Alternates lookup 0 subtable" itilde.sc
EndChar

StartChar: Imacron
Encoding: 298 298 51
Width: 290
GlyphClass: 2
Flags: MW
HStem: 0 21G<27 189 27 27> 673 20G<124 286 286 286> 781 110<67 383 82 368>
VStem: 27 356
AnchorPoint: "Anchor-11" 0 0 basechar 0
AnchorPoint: "Anchor-10" -12 534 basechar 0
AnchorPoint: "Anchor-9" 205 693 basechar 0
AnchorPoint: "Anchor-8" 171 0 basechar 0
LayerCount: 2
Fore
SplineSet
67 781 m 1
 82 891 l 1
 383 891 l 1
 368 781 l 1
 67 781 l 1
189 0 m 1
 27 0 l 1
 124 693 l 1
 286 693 l 1
 189 0 l 1
EndSplineSet
Substitution2: "'c2sc' Capitals to Small Capitals lookup 23 subtable" imacron.sc
Substitution2: "'aalt' Access All Alternates lookup 0 subtable" imacron.sc
Position2: "'cpsp' Capital Spacing lookup 0 subtable" dx=5 dy=0 dh=10 dv=0
EndChar

StartChar: imacron
Encoding: 299 299 185
Width: 278
GlyphClass: 2
Flags: MW
HStem: 0 21G<24 180 24 24> 511 20G<98 254 254 254> 655 110<42 358 57 343>
VStem: 24 334
AnchorPoint: "Anchor-11" 0 0 basechar 0
AnchorPoint: "Anchor-10" 0 0 basechar 0
AnchorPoint: "Anchor-9" 176 531 basechar 0
AnchorPoint: "Anchor-8" 165 0 basechar 0
LayerCount: 2
Fore
SplineSet
42 655 m 1
 57 765 l 1
 358 765 l 1
 343 655 l 1
 42 655 l 1
180 0 m 1
 24 0 l 1
 98 531 l 1
 254 531 l 1
 180 0 l 1
EndSplineSet
Substitution2: "'smcp' Lowercase to Small Capitals lookup 24 subtable" imacron.sc
Substitution2: "'aalt' Access All Alternates lookup 0 subtable" imacron.sc
EndChar

StartChar: Ibreve
Encoding: 300 300 46
Width: 290
GlyphClass: 2
Flags: MW
HStem: 0 21G<27 189 27 27> 673 20G<124 286 286 286> 751 109<192 237 192 256.5>
VStem: 27 368
AnchorPoint: "Anchor-11" 0 0 basechar 0
AnchorPoint: "Anchor-10" -12 534 basechar 0
AnchorPoint: "Anchor-9" 205 693 basechar 0
AnchorPoint: "Anchor-8" 171 0 basechar 0
LayerCount: 2
Fore
SplineSet
205 751 m 0
 101 751 53 829 57 915 c 1
 142 927 l 1
 148 889 170 860 214 860 c 0
 260 860 292 891 309 930 c 1
 395 911 l 1
 376 826 308 751 205 751 c 0
189 0 m 1
 27 0 l 1
 124 693 l 1
 286 693 l 1
 189 0 l 1
EndSplineSet
Substitution2: "'c2sc' Capitals to Small Capitals lookup 23 subtable" ibreve.sc
Substitution2: "'aalt' Access All Alternates lookup 0 subtable" ibreve.sc
Position2: "'cpsp' Capital Spacing lookup 0 subtable" dx=5 dy=0 dh=10 dv=0
EndChar

StartChar: ibreve
Encoding: 301 301 179
Width: 278
GlyphClass: 2
Flags: MW
HStem: 0 21G<24 180 24 24> 511 20G<98 254 254 254> 632 110<180 225 180 243.5>
VStem: 44 87<806 819>
AnchorPoint: "Anchor-11" 0 0 basechar 0
AnchorPoint: "Anchor-10" 0 0 basechar 0
AnchorPoint: "Anchor-9" 176 531 basechar 0
AnchorPoint: "Anchor-8" 165 0 basechar 0
LayerCount: 2
Fore
SplineSet
192 632 m 0
 88 632 40 711 44 806 c 1
 131 819 l 1
 136 771 158 742 202 742 c 0
 248 742 281 773 299 822 c 1
 383 803 l 1
 363 708 295 632 192 632 c 0
180 0 m 1
 24 0 l 1
 98 531 l 1
 254 531 l 1
 180 0 l 1
EndSplineSet
Substitution2: "'smcp' Lowercase to Small Capitals lookup 24 subtable" ibreve.sc
Substitution2: "'aalt' Access All Alternates lookup 0 subtable" ibreve.sc
EndChar

StartChar: Iogonek
Encoding: 302 302 52
Width: 290
GlyphClass: 2
Flags: MW
HStem: -245 98<6.5 83.5> 0 21G<163 189 163 163> 673 20G<124 286 286 286>
VStem: -87 116<-125 -112>
AnchorPoint: "Anchor-11" 0 0 basechar 0
AnchorPoint: "Anchor-10" -12 534 basechar 0
AnchorPoint: "Anchor-9" 205 693 basechar 0
AnchorPoint: "Anchor-8" 171 0 basechar 0
LayerCount: 2
Fore
SplineSet
286 693 m 1
 189 0 l 1
 163 0 l 1
 46 -42 29 -87 29 -114 c 0
 29 -136 45 -147 73 -147 c 0
 94 -147 113 -144 136 -139 c 1
 114 -238 l 1
 93 -243 71 -245 46 -245 c 0
 -33 -245 -87 -205 -87 -141 c 0
 -87 -83 -55 -32 28 10 c 1
 124 693 l 1
 286 693 l 1
EndSplineSet
Substitution2: "'c2sc' Capitals to Small Capitals lookup 23 subtable" iogonek.sc
Substitution2: "'aalt' Access All Alternates lookup 0 subtable" iogonek.sc
Position2: "'cpsp' Capital Spacing lookup 0 subtable" dx=5 dy=0 dh=10 dv=0
EndChar
StartChar: iogonek
Encoding: 303 303 493
Width: 277
GlyphClass: 2
Flags: MW
HStem: -245 98<-11.5 65.5> 0 21G<145 179 145 145> 511 20G<98 253 253 253> 631 180<186 219>
VStem: -105 116<-125 -110.5> 111 183
AnchorPoint: "Anchor-14" 0 0 basechar 0
AnchorPoint: "Anchor-13" 0 0 basechar 0
AnchorPoint: "Anchor-12" 214 811 basechar 0
AnchorPoint: "Anchor-11" 153 0 basechar 0
AnchorPoint: "Anchor-10" 101 0 basechar 0
LayerCount: 2
Back
Fore
SplineSet
212 811 m 0
 268 811 301 770 294 717 c 0
 287 668 246 631 192 631 c 0
 137 631 104 672 111 724 c 0
 118 773 160 811 212 811 c 0
26 17 m 1
 98 531 l 1
 253 531 l 1
 179 0 l 1
 145 0 l 1
 28 -42 11 -87 11 -114 c 0
 11 -136 27 -147 55 -147 c 0
 76 -147 95 -144 118 -139 c 1
 96 -238 l 1
 75 -243 53 -245 28 -245 c 0
 -51 -245 -105 -205 -105 -141 c 0
 -105 -80 -68 -25 26 17 c 1
EndSplineSet
Substitution2: "'smcp' Lowercase to Small Capitals lookup 28 subtable" iogonek.sc
Substitution2: "'aalt' Access All Alternates lookup 0 subtable" iogonek.sc
EndChar

StartChar: Idotaccent
Encoding: 304 304 49
Width: 290
GlyphClass: 2
Flags: MW
HStem: 0 21G<27 189 27 27> 673 20G<124 286 286 286> 757 180<211 244>
VStem: 136 183
AnchorPoint: "Anchor-11" 0 0 basechar 0
AnchorPoint: "Anchor-10" -12 534 basechar 0
AnchorPoint: "Anchor-9" 205 693 basechar 0
AnchorPoint: "Anchor-8" 171 0 basechar 0
LayerCount: 2
Fore
SplineSet
237 937 m 0
 293 937 326 896 319 843 c 0
 312 794 271 757 217 757 c 0
 162 757 129 798 136 850 c 0
 143 899 185 937 237 937 c 0
189 0 m 1
 27 0 l 1
 124 693 l 1
 286 693 l 1
 189 0 l 1
EndSplineSet
Substitution2: "'c2sc' Capitals to Small Capitals lookup 23 subtable" i.sc.loclTRK
Substitution2: "'aalt' Access All Alternates lookup 0 subtable" i.sc.loclTRK
Position2: "'cpsp' Capital Spacing lookup 0 subtable" dx=5 dy=0 dh=10 dv=0
EndChar
StartChar: dotlessi
Encoding: 305 305 478
Width: 277
GlyphClass: 2
Flags: MW
HStem: 0 21G<24 179 24 24> 511 20G<98 253 253 253>
VStem: 24 229
AnchorPoint: "Anchor-14" 0 0 basechar 0
AnchorPoint: "Anchor-13" 0 0 basechar 0
AnchorPoint: "Anchor-12" 175 531 basechar 0
AnchorPoint: "Anchor-11" 153 0 basechar 0
AnchorPoint: "Anchor-10" 101 0 basechar 0
LayerCount: 2
Back
Fore
SplineSet
253 531 m 1
 179 0 l 1
 24 0 l 1
 98 531 l 1
 253 531 l 1
EndSplineSet
Substitution2: "'smcp' Lowercase to Small Capitals lookup 28 subtable" dotlessi.sc
Substitution2: "'aalt' Access All Alternates lookup 0 subtable" dotlessi.sc
EndChar

StartChar: IJ
Encoding: 306 306 44
Width: 601
GlyphClass: 2
Flags: MW
HStem: 0 21G<27 189 27 27> 673 20G<124 286 286 286 438 599 599 599>
VStem: 27 572
AnchorPoint: "Anchor-11" 0 0 basechar 0
AnchorPoint: "Anchor-10" -12 534 basechar 0
AnchorPoint: "Anchor-9" 518 693 basechar 0
AnchorPoint: "Anchor-8" 171 0 basechar 0
LayerCount: 2
Fore
SplineSet
189 0 m 1
 27 0 l 1
 124 693 l 1
 286 693 l 1
 189 0 l 1
517 104 m 2
 492 -72 380 -132 260 -170 c 1
 231 -53 l 1
 324 -18 345 30 356 113 c 2
 438 693 l 1
 599 693 l 1
 517 104 l 2
EndSplineSet
Substitution2: "'c2sc' Capitals to Small Capitals lookup 23 subtable" ij.sc
Substitution2: "'aalt' Access All Alternates lookup 0 subtable" ij.sc
Position2: "'cpsp' Capital Spacing lookup 0 subtable" dx=5 dy=0 dh=10 dv=0
EndChar
StartChar: ij
Encoding: 307 307 491
Width: 550
GlyphClass: 2
Flags: MW
HStem: -222 21G<212 212> 0 21G<24 179 24 24> 511 20G<98 253 253 253 371 526 526 526> 631 180<186 219 459 492>
VStem: 111 183 384 183
AnchorPoint: "Anchor-14" 0 0 basechar 0
AnchorPoint: "Anchor-13" 0 0 basechar 0
AnchorPoint: "Anchor-12" 487 811 basechar 0
AnchorPoint: "Anchor-11" 153 0 basechar 0
AnchorPoint: "Anchor-10" 340 -210 basechar 0
LayerCount: 2
Back
Fore
SplineSet
212 811 m 0
 268 811 301 770 294 717 c 0
 287 668 246 631 192 631 c 0
 137 631 104 672 111 724 c 0
 118 773 160 811 212 811 c 0
485 811 m 0
 541 811 574 770 567 717 c 0
 560 668 519 631 465 631 c 0
 410 631 377 672 384 724 c 0
 391 773 433 811 485 811 c 0
253 531 m 1
 179 0 l 1
 24 0 l 1
 98 531 l 1
 253 531 l 1
526 531 m 1
 460 58 l 2
 436 -115 341 -176 212 -222 c 1
 173 -108 l 1
 249 -79 291 -45 304 52 c 2
 371 531 l 1
 526 531 l 1
EndSplineSet
Substitution2: "'smcp' Lowercase to Small Capitals lookup 28 subtable" ij.sc
Substitution2: "'aalt' Access All Alternates lookup 0 subtable" ij.sc
EndChar
StartChar: Jcircumflex
Encoding: 308 308 135
Width: 310
GlyphClass: 2
Flags: MW
HStem: 673 20G<148 309 309 309>
VStem: -59 485
AnchorPoint: "Anchor-14" 0 0 basechar 0
AnchorPoint: "Anchor-13" 350 830 basechar 0
AnchorPoint: "Anchor-12" 257 949 basechar 0
AnchorPoint: "Anchor-11" 0 0 basechar 0
AnchorPoint: "Anchor-10" 0 0 basechar 0
LayerCount: 2
Back
Fore
SplineSet
365 755 m 1
 246 839 l 1
 104 755 l 1
 53 820 l 1
 210 949 l 1
 305 949 l 1
 426 820 l 1
 365 755 l 1
309 693 m 1
 227 104 l 2
 202 -72 90 -132 -30 -170 c 1
 -59 -53 l 1
 34 -18 55 30 66 113 c 2
 148 693 l 1
 309 693 l 1
EndSplineSet
Substitution2: "'c2sc' Capitals to Small Capitals lookup 27 subtable" jcircumflex.sc
Substitution2: "'aalt' Access All Alternates lookup 0 subtable" jcircumflex.sc
Position2: "'cpsp' Capital Spacing lookup 0 subtable" dx=5 dy=0 dh=10 dv=0
EndChar

StartChar: jcircumflex
Encoding: 309 309 190
Width: 273
GlyphClass: 2
Flags: MW
HStem: -222 21G<-65 -65> 511 20G<94 249 249 249>
VStem: -104 484
AnchorPoint: "Anchor-11" 0 0 basechar 0
AnchorPoint: "Anchor-10" 0 0 basechar 0
AnchorPoint: "Anchor-9" 172 531 basechar 0
AnchorPoint: "Anchor-8" 0 0 basechar 0
LayerCount: 2
Fore
SplineSet
7 685 m 1
 165 822 l 1
 260 822 l 1
 380 685 l 1
 317 620 l 1
 199 712 l 1
 57 620 l 1
 7 685 l 1
183 58 m 2
 159 -115 64 -176 -65 -222 c 1
 -104 -108 l 1
 -28 -79 14 -45 27 52 c 2
 94 531 l 1
 249 531 l 1
 183 58 l 2
EndSplineSet
Substitution2: "'smcp' Lowercase to Small Capitals lookup 24 subtable" jcircumflex.sc
Substitution2: "'aalt' Access All Alternates lookup 0 subtable" jcircumflex.sc
EndChar
StartChar: Kcommaaccent
Encoding: 310 310 139
Width: 623
GlyphClass: 2
Flags: MW
HStem: -208 21G<214 214> 0 21G<27 189 27 27 414 414 414 598> 673 20G<124 286 286 286 505 678 678 678>
VStem: 27 651 187 156<-153 -128.5>
AnchorPoint: "Anchor-14" 0 0 basechar 0
AnchorPoint: "Anchor-13" 0 0 basechar 0
AnchorPoint: "Anchor-12" 385 693 basechar 0
AnchorPoint: "Anchor-11" 0 0 basechar 0
AnchorPoint: "Anchor-10" 283 0 basechar 0
LayerCount: 2
Back
Fore
SplineSet
286 693 m 1xf0
 189 0 l 1
 27 0 l 1
 124 693 l 1
 286 693 l 1xf0
678 693 m 1
 414 372 l 1
 598 0 l 1
 414 0 l 1
 246 370 l 1
 505 693 l 1
 678 693 l 1
271 -68 m 0xe8
 314 -68 343 -98 343 -137 c 0
 343 -169 332 -192 305 -233 c 2
 246 -325 l 1
 169 -325 l 1
 214 -208 l 1
 198 -195 187 -178 187 -154 c 0
 187 -103 225 -68 271 -68 c 0xe8
EndSplineSet
Substitution2: "'c2sc' Capitals to Small Capitals lookup 27 subtable" kcommaaccent.sc
Substitution2: "'aalt' Access All Alternates lookup 0 subtable" kcommaaccent.sc
Position2: "'cpsp' Capital Spacing lookup 0 subtable" dx=5 dy=0 dh=10 dv=0
EndChar
StartChar: kcommaaccent
Encoding: 311 311 507
Width: 566
GlyphClass: 2
Flags: MW
HStem: -208 21G<188 188> 0 21G<23 179 23 23 345 516 345 345> 438 110<337.5 463> 739 20G<285 285>
VStem: 161 156<-153 -128.5> 403 159<380 408.5>
AnchorPoint: "Anchor-14" 0 0 basechar 0
AnchorPoint: "Anchor-13" 0 0 basechar 0
AnchorPoint: "Anchor-12" 372 742 basechar 0
AnchorPoint: "Anchor-11" 0 0 basechar 0
AnchorPoint: "Anchor-10" 259 0 basechar 0
LayerCount: 2
Back
Fore
SplineSet
285 759 m 1
 243 462 l 1
 296 523 355 548 419 548 c 0
 507 548 562 496 562 421 c 0
 562 339 515 275 418 236 c 1
 516 0 l 1
 345 0 l 1
 249 256 l 1
 366 294 403 338 403 394 c 0
 403 423 387 438 358 438 c 0
 317 438 268 406 224 329 c 1
 179 0 l 1
 23 0 l 1
 127 742 l 1
 285 759 l 1
245 -68 m 0
 288 -68 317 -98 317 -137 c 0
 317 -169 306 -192 279 -233 c 2
 220 -325 l 1
 143 -325 l 1
 188 -208 l 1
 172 -195 161 -178 161 -154 c 0
 161 -103 199 -68 245 -68 c 0
EndSplineSet
Substitution2: "'smcp' Lowercase to Small Capitals lookup 28 subtable" kcommaaccent.sc
Substitution2: "'aalt' Access All Alternates lookup 0 subtable" kcommaaccent.sc
EndChar
StartChar: kgreenlandic
Encoding: 312 312 508
Width: 540
GlyphClass: 2
Flags: MW
HStem: 0 21G<24 180 24 24 344 344 344 514> 511 20G<98 254 254 254 407 575 575 575>
VStem: 24 551<0 531>
LayerCount: 2
Back
Fore
SplineSet
254 531 m 1
 180 0 l 1
 24 0 l 1
 98 531 l 1
 254 531 l 1
575 531 m 1
 384 282 l 1
 514 0 l 1
 344 0 l 1
 222 280 l 1
 407 531 l 1
 575 531 l 1
EndSplineSet
Substitution2: "'smcp' Lowercase to Small Capitals lookup 28 subtable" kgreenlandic.sc
Substitution2: "'aalt' Access All Alternates lookup 0 subtable" kgreenlandic.sc
EndChar

StartChar: Lacute
Encoding: 313 313 59
Width: 506
GlyphClass: 2
Flags: MW
HStem: 0 130<207 438> 673 20G<124 285 285 285>
VStem: 27 445<0 130>
AnchorPoint: "Anchor-11" 232 0 basechar 0
AnchorPoint: "Anchor-10" 0 0 basechar 0
AnchorPoint: "Anchor-9" 205 693 basechar 0
AnchorPoint: "Anchor-8" 0 0 basechar 0
LayerCount: 2
Fore
SplineSet
366 838 m 1
 125 747 l 1
 86 827 l 1
 309 957 l 1
 366 838 l 1
207 130 m 1
 472 130 l 1
 438 0 l 1
 27 0 l 1
 124 693 l 1
 285 693 l 1
 207 130 l 1
EndSplineSet
Substitution2: "'c2sc' Capitals to Small Capitals lookup 23 subtable" lacute.sc
Substitution2: "'aalt' Access All Alternates lookup 0 subtable" lacute.sc
Position2: "'cpsp' Capital Spacing lookup 0 subtable" dx=5 dy=0 dh=10 dv=0
EndChar

StartChar: lacute
Encoding: 314 314 195
Width: 289
GlyphClass: 2
Flags: MW
HStem: -17 21G<114.5 176> 739 20G<280 280>
VStem: 35.52 158.48
AnchorPoint: "Anchor-11" 135 0 basechar 0
AnchorPoint: "Anchor-10" 0 0 basechar 0
AnchorPoint: "Anchor-9" 200 742 basechar 0
AnchorPoint: "Anchor-8" 0 0 basechar 0
LayerCount: 2
Fore
SplineSet
362 887 m 1
 121 796 l 1
 82 876 l 1
 305 1006 l 1
 362 887 l 1
194 145 m 2
 190 117 198 108 215 108 c 0
 222 108 232 111 241 114 c 1
 259 3 l 1
 230 -10 193 -17 159 -17 c 0
 70 -17 24 37 38 139 c 2
 123 742 l 1
 280 759 l 1
 194 145 l 2
EndSplineSet
Substitution2: "'smcp' Lowercase to Small Capitals lookup 24 subtable" lacute.sc
Substitution2: "'aalt' Access All Alternates lookup 0 subtable" lacute.sc
EndChar
StartChar: Lcommaaccent
Encoding: 315 315 147
Width: 506
GlyphClass: 2
Flags: MW
HStem: -208 21G<164 164> 0 130<207 438> 673 20G<124 285 285 285>
VStem: 27 445<0 130> 137 156<-153 -128.5>
AnchorPoint: "Anchor-14" 411 399 basechar 0
AnchorPoint: "Anchor-13" 307 693 basechar 0
AnchorPoint: "Anchor-12" 205 693 basechar 0
AnchorPoint: "Anchor-11" 0 0 basechar 0
AnchorPoint: "Anchor-10" 233 0 basechar 0
LayerCount: 2
Back
Fore
SplineSet
285 693 m 1xf0
 207 130 l 1
 472 130 l 1
 438 0 l 1
 27 0 l 1
 124 693 l 1
 285 693 l 1xf0
221 -68 m 0xe8
 264 -68 293 -98 293 -137 c 0
 293 -169 282 -192 255 -233 c 2
 196 -325 l 1
 119 -325 l 1
 164 -208 l 1
 148 -195 137 -178 137 -154 c 0
 137 -103 175 -68 221 -68 c 0xe8
EndSplineSet
Substitution2: "'c2sc' Capitals to Small Capitals lookup 27 subtable" lcommaaccent.sc
Substitution2: "'aalt' Access All Alternates lookup 0 subtable" lcommaaccent.sc
Position2: "'cpsp' Capital Spacing lookup 0 subtable" dx=5 dy=0 dh=10 dv=0
EndChar

StartChar: lcommaaccent
Encoding: 316 316 197
Width: 289
GlyphClass: 2
Flags: MW
HStem: -208 21G<64 64> -17 21G<114.5 176> 739 20G<280 280>
VStem: 35.52 158.48
AnchorPoint: "Anchor-11" 135 0 basechar 0
AnchorPoint: "Anchor-10" 0 0 basechar 0
AnchorPoint: "Anchor-9" 200 742 basechar 0
AnchorPoint: "Anchor-8" 0 0 basechar 0
LayerCount: 2
Fore
SplineSet
194 145 m 2
 190 117 198 108 215 108 c 0
 222 108 232 111 241 114 c 1
 259 3 l 1
 230 -10 193 -17 159 -17 c 0
 70 -17 24 37 38 139 c 2
 123 742 l 1
 280 759 l 1
 194 145 l 2
124 -68 m 0
 166 -68 193 -98 193 -137 c 0
 193 -169 182 -192 155 -233 c 2
 96 -325 l 1
 19 -325 l 1
 64 -208 l 1
 48 -195 37 -178 37 -154 c 0
 37 -102 77 -68 124 -68 c 0
EndSplineSet
Substitution2: "'smcp' Lowercase to Small Capitals lookup 24 subtable" lcommaaccent.sc
Substitution2: "'aalt' Access All Alternates lookup 0 subtable" lcommaaccent.sc
EndChar
StartChar: Lcaron
Encoding: 317 317 145
Width: 506
GlyphClass: 2
Flags: MW
HStem: 0 130<207 438> 673 20G<124 285 285 285 459 459> 687 20G<344 344>
VStem: 27 445<0 130>
AnchorPoint: "Anchor-14" 411 399 basechar 0
AnchorPoint: "Anchor-13" 307 693 basechar 0
AnchorPoint: "Anchor-12" 205 693 basechar 0
AnchorPoint: "Anchor-11" 0 0 basechar 0
AnchorPoint: "Anchor-10" 233 0 basechar 0
LayerCount: 2
Back
Fore
SplineSet
344 707 m 1xb0
 459 693 l 1xd0
 383 478 l 1
 303 486 l 1
 344 707 l 1xb0
285 693 m 1
 207 130 l 1
 472 130 l 1
 438 0 l 1
 27 0 l 1
 124 693 l 1
 285 693 l 1
EndSplineSet
Substitution2: "'c2sc' Capitals to Small Capitals lookup 27 subtable" lcaron.sc
Substitution2: "'aalt' Access All Alternates lookup 0 subtable" lcaron.sc
Position2: "'cpsp' Capital Spacing lookup 0 subtable" dx=5 dy=0 dh=10 dv=0
EndChar

StartChar: lcaron
Encoding: 318 318 196
Width: 375
GlyphClass: 2
Flags: MW
HStem: -17 21G<87.5 149.5> 515 20G<288 288> 722 20G<96 96 444 444> 736 20G<329 329> 739 20G<253 253>
VStem: 8.52 158.48
AnchorPoint: "Anchor-11" 108 0 basechar 0
AnchorPoint: "Anchor-10" 0 0 basechar 0
AnchorPoint: "Anchor-9" 174 742 basechar 0
AnchorPoint: "Anchor-8" 0 0 basechar 0
LayerCount: 2
Fore
SplineSet
167 145 m 2xcc
 163 117 171 108 188 108 c 0
 195 108 205 111 214 114 c 1
 232 3 l 1
 203 -10 167 -17 132 -17 c 0
 43 -17 -3 37 11 139 c 2
 96 742 l 1
 253 759 l 1
 167 145 l 2xcc
444 742 m 1xe4
 368 527 l 1
 288 535 l 1
 329 756 l 1xd4
 444 742 l 1xe4
EndSplineSet
Substitution2: "'smcp' Lowercase to Small Capitals lookup 24 subtable" lcaron.sc
Substitution2: "'aalt' Access All Alternates lookup 0 subtable" lcaron.sc
EndChar

StartChar: Ldot
Encoding: 319 319 62
Width: 506
GlyphClass: 2
Flags: MW
HStem: 0 130<207 438> 308 180<394 427> 673 20G<124 285 285 285>
VStem: 27 475.77 319 183
AnchorPoint: "Anchor-11" 232 0 basechar 0
AnchorPoint: "Anchor-10" 0 0 basechar 0
AnchorPoint: "Anchor-9" 205 693 basechar 0
AnchorPoint: "Anchor-8" 0 0 basechar 0
LayerCount: 2
Fore
SplineSet
207 130 m 1xf0
 472 130 l 1
 438 0 l 1
 27 0 l 1
 124 693 l 1
 285 693 l 1
 207 130 l 1xf0
420 488 m 0xe8
 476 488 509 447 502 394 c 0
 495 345 454 308 400 308 c 0
 345 308 312 349 319 401 c 0
 326 450 368 488 420 488 c 0xe8
EndSplineSet
Ligature2: "Ligature Substitution lookup 29 subtable" L periodcentered
Substitution2: "'c2sc' Capitals to Small Capitals lookup 23 subtable" ldot.sc
Substitution2: "'aalt' Access All Alternates lookup 0 subtable" ldot.sc
Position2: "'cpsp' Capital Spacing lookup 0 subtable" dx=5 dy=0 dh=10 dv=0
EndChar
StartChar: ldot
Encoding: 320 320 520
Width: 433
GlyphClass: 2
Flags: MW
HStem: -17 21G<114.5 176> 285 180<346 379> 739 20G<280 280>
VStem: 35.23 157.77 35.23 419.54 271 183
AnchorPoint: "Anchor-14" 363 376 basechar 0
AnchorPoint: "Anchor-13" 293 742 basechar 0
AnchorPoint: "Anchor-12" 374 465 basechar 0
AnchorPoint: "Anchor-11" 0 0 basechar 0
AnchorPoint: "Anchor-10" 150 0 basechar 0
LayerCount: 2
Back
Fore
SplineSet
280 759 m 1xe8
 193 145 l 2
 190 117 198 108 214 108 c 0
 222 108 232 111 240 114 c 1
 259 3 l 1
 230 -10 193 -17 159 -17 c 0xf4
 70 -17 23 37 38 139 c 2
 123 742 l 1
 280 759 l 1xe8
372 465 m 0
 428 465 461 424 454 371 c 0
 447 322 406 285 352 285 c 0
 297 285 264 326 271 378 c 0
 278 427 320 465 372 465 c 0
EndSplineSet
Ligature2: "Ligature Substitution lookup 40 subtable" l periodcentered
Substitution2: "'smcp' Lowercase to Small Capitals lookup 28 subtable" ldot.sc
Substitution2: "'aalt' Access All Alternates lookup 0 subtable" ldot.sc
EndChar

StartChar: Lslash
Encoding: 321 321 63
Width: 540
GlyphClass: 2
Flags: MW
HStem: 0 130<240 471> 673 20G<158 319 319 319>
VStem: 9 497<130 285>
LayerCount: 2
Fore
SplineSet
471 0 m 1
 61 0 l 1
 92 223 l 1
 49 198 l 1
 9 285 l 1
 109 343 l 1
 158 693 l 1
 319 693 l 1
 284 445 l 1
 422 525 l 1
 464 439 l 1
 267 325 l 1
 240 130 l 1
 506 130 l 1
 471 0 l 1
EndSplineSet
Substitution2: "'c2sc' Capitals to Small Capitals lookup 23 subtable" lslash.sc
Substitution2: "'aalt' Access All Alternates lookup 0 subtable" lslash.sc
Position2: "'cpsp' Capital Spacing lookup 0 subtable" dx=5 dy=0 dh=10 dv=0
EndChar

StartChar: lslash
Encoding: 322 322 199
Width: 335
GlyphClass: 2
Flags: MW
HStem: -17 21G<137 199> 510 20G<332 332> 739 20G<302 302>
VStem: 58.19 157.81
AnchorPoint: "Anchor-11" 157 0 basechar 0
AnchorPoint: "Anchor-10" 0 0 basechar 0
AnchorPoint: "Anchor-9" 223 742 basechar 0
AnchorPoint: "Anchor-8" 0 0 basechar 0
LayerCount: 2
Fore
SplineSet
237 108 m 0
 245 108 254 111 263 114 c 1
 281 3 l 1
 253 -10 216 -17 182 -17 c 0
 92 -17 46 37 61 139 c 2
 80 272 l 1
 32 245 l 1
 7 342 l 1
 96 394 l 1
 145 742 l 1
 302 759 l 1
 264 491 l 1
 332 530 l 1
 356 431 l 1
 247 369 l 1
 216 145 l 2
 213 117 221 108 237 108 c 0
EndSplineSet
Substitution2: "'smcp' Lowercase to Small Capitals lookup 24 subtable" lslash.sc
Substitution2: "'aalt' Access All Alternates lookup 0 subtable" lslash.sc
EndChar
StartChar: nacute
Encoding: 324 324 536
Width: 568
GlyphClass: 2
Flags: MW
HStem: 0 21G<24 179 24 24 319 475 319 319> 419 129<318 453.5> 511 20G<98 233 233 233> 528 20G<375.5 453.5>
VStem: 24 506.75 369 161.75
AnchorPoint: "Anchor-14" 0 0 basechar 0
AnchorPoint: "Anchor-13" 0 0 basechar 0
AnchorPoint: "Anchor-12" 354 835 basechar 0
AnchorPoint: "Anchor-11" 0 0 basechar 0
AnchorPoint: "Anchor-10" 250 0 basechar 0
LayerCount: 2
Back
Fore
SplineSet
445 835 m 1x98
 490 717 l 1
 245 622 l 1
 214 703 l 1
 445 835 l 1x98
411 548 m 0x94
 496 548 543 487 528 384 c 2
 475 0 l 1
 319 0 l 1
 369 351 l 2
 376 405 361 419 338 419 c 0xc4
 298 419 258 367 220 292 c 1
 179 0 l 1
 24 0 l 1
 98 531 l 1
 233 531 l 1xa8
 230 438 l 1
 275 504 340 548 411 548 c 0x94
EndSplineSet
Substitution2: "'smcp' Lowercase to Small Capitals lookup 28 subtable" nacute.sc
Substitution2: "'locl' Localized Forms in Latin lookup 7 subtable" nacute.loclPLK
AlternateSubs2: "'aalt' Access All Alternates lookup 1 subtable" nacute.loclPLK nacute.sc
EndChar

StartChar: Ncommaaccent
Encoding: 325 325 68
Width: 653
GlyphClass: 2
Flags: MW
HStem: -208 21G<221 221> 0 21G<27 170 27 27 348 552 348 348> 0 136<457 457 457 552 348 457> 557 136<220 220> 673 20G<124 327 327 327 506 649 649 649>
VStem: 27 622 194 156<-153 -128>
AnchorPoint: "Anchor-11" 291 0 basechar 0
AnchorPoint: "Anchor-10" 0 0 basechar 0
AnchorPoint: "Anchor-9" 391 693 basechar 0
AnchorPoint: "Anchor-8" 0 0 basechar 0
LayerCount: 2
Fore
SplineSet
552 0 m 1xcc
 348 0 l 1
 220 557 l 1xd4
 223 471 224 381 205 246 c 2
 170 0 l 1
 27 0 l 1
 124 693 l 1
 327 693 l 1
 457 136 l 1xac
 452 232 451 304 467 421 c 2
 506 693 l 1
 649 693 l 1
 552 0 l 1xcc
281 -68 m 0xca
 323 -68 350 -98 350 -137 c 0
 350 -169 339 -192 312 -233 c 2
 253 -325 l 1
 176 -325 l 1
 221 -208 l 1
 205 -195 194 -178 194 -154 c 0
 194 -102 234 -68 281 -68 c 0xca
EndSplineSet
Substitution2: "'c2sc' Capitals to Small Capitals lookup 23 subtable" ncommaaccent.sc
Substitution2: "'aalt' Access All Alternates lookup 0 subtable" ncommaaccent.sc
Position2: "'cpsp' Capital Spacing lookup 0 subtable" dx=5 dy=0 dh=10 dv=0
EndChar

StartChar: ncommaaccent
Encoding: 326 326 205
Width: 568
GlyphClass: 2
Flags: MW
HStem: -208 21G<176 176> 0 21G<24 179 24 24 319 475 319 319> 419 129<318 452> 511 20G<98 233 233 233> 528 20G<376.5 452>
VStem: 149 156<-153 -128> 373.18 158.24
AnchorPoint: "Anchor-11" 247 0 basechar 0
AnchorPoint: "Anchor-10" 89 531 basechar 0
AnchorPoint: "Anchor-9" 326 531 basechar 0
AnchorPoint: "Anchor-8" 0 0 basechar 0
LayerCount: 2
Fore
SplineSet
408 548 m 0xce
 496 548 543 487 529 386 c 2
 475 0 l 1
 319 0 l 1
 371 351 l 2
 380 407 363 419 336 419 c 0xe6
 300 419 258 367 220 292 c 1
 179 0 l 1
 24 0 l 1
 98 531 l 1
 233 531 l 1xd6
 230 438 l 1
 275 504 345 548 408 548 c 0xce
236 -68 m 0
 278 -68 305 -98 305 -137 c 0
 305 -169 294 -192 267 -233 c 2
 208 -325 l 1
 131 -325 l 1
 176 -208 l 1
 160 -195 149 -178 149 -154 c 0
 149 -102 189 -68 236 -68 c 0
EndSplineSet
Substitution2: "'smcp' Lowercase to Small Capitals lookup 24 subtable" ncommaaccent.sc
Substitution2: "'aalt' Access All Alternates lookup 0 subtable" ncommaaccent.sc
EndChar

StartChar: ncaron
Encoding: 328 328 204
Width: 568
GlyphClass: 2
Flags: MW
HStem: 0 21G<24 179 24 24 319 475 319 319> 419 129<318 452> 511 20G<98 233 233 233> 528 20G<376.5 452> 728 20G<170 170 543 543>
VStem: 373.18 158.24
AnchorPoint: "Anchor-11" 247 0 basechar 0
AnchorPoint: "Anchor-10" 89 531 basechar 0
AnchorPoint: "Anchor-9" 326 531 basechar 0
AnchorPoint: "Anchor-8" 0 0 basechar 0
LayerCount: 2
Fore
SplineSet
543 748 m 1x9c
 386 611 l 1
 291 611 l 1
 170 748 l 1
 230 813 l 1
 348 722 l 1
 493 813 l 1
 543 748 l 1x9c
408 548 m 0
 496 548 543 487 529 386 c 2
 475 0 l 1
 319 0 l 1
 371 351 l 2
 380 407 363 419 336 419 c 0xcc
 300 419 258 367 220 292 c 1
 179 0 l 1
 24 0 l 1
 98 531 l 1
 233 531 l 1xac
 230 438 l 1
 275 504 345 548 408 548 c 0
EndSplineSet
Substitution2: "'smcp' Lowercase to Small Capitals lookup 24 subtable" ncaron.sc
Substitution2: "'aalt' Access All Alternates lookup 0 subtable" ncaron.sc
EndChar
StartChar: napostrophe
Encoding: 329 329 537
Width: 692
GlyphClass: 2
Flags: MW
HStem: 0 21G<148 303 148 148 444 599 444 444> 419 129<442 577.5> 511 20G<222 357 357 357> 528 20G<499.5 577.5> 740 20G<148.5 187>
VStem: 75 580.42 93 136 493 162.42
AnchorPoint: "Anchor-14" 0 0 basechar 0
AnchorPoint: "Anchor-13" 0 0 basechar 0
AnchorPoint: "Anchor-12" 448 531 basechar 0
AnchorPoint: "Anchor-11" 0 0 basechar 0
AnchorPoint: "Anchor-10" 374 0 basechar 0
LayerCount: 2
Back
Fore
SplineSet
167 760 m 0x9b
 207 760 234 729 229 688 c 0
 226 668 217 650 195 616 c 2
 143 535 l 1
 75 535 l 1
 114 636 l 1
 100 650 89 669 93 696 c 0
 98 731 130 760 167 760 c 0x9b
535 548 m 0
 620 548 667 487 653 384 c 2
 599 0 l 1
 444 0 l 1
 493 351 l 2
 501 405 485 419 462 419 c 0xc9
 422 419 382 367 345 292 c 1
 303 0 l 1
 148 0 l 1
 222 531 l 1
 357 531 l 1xac
 355 438 l 1
 399 504 464 548 535 548 c 0
EndSplineSet
Substitution2: "'smcp' Lowercase to Small Capitals lookup 28 subtable" napostrophe.sc
Ligature2: "'locl' Localized Forms in Latin lookup 12 subtable" quoteright n
Ligature2: "'locl' Localized Forms in Latin lookup 12 subtable" quotesingle n
Substitution2: "'aalt' Access All Alternates lookup 0 subtable" napostrophe.sc
EndChar
StartChar: Eng
Encoding: 330 330 165
Width: 653
GlyphClass: 2
Flags: MW
HStem: -222 119<306 337.5 306 384.5> 0 21G<27 170 27 27 348 391 348 348 552 552> 557 136<220 220> 673 20G<124 327 327 327 506 649 649 649>
VStem: 27 622
AnchorPoint: "Anchor-14" 0 0 basechar 0
AnchorPoint: "Anchor-13" 0 0 basechar 0
AnchorPoint: "Anchor-12" 391 693 basechar 0
AnchorPoint: "Anchor-11" 0 0 basechar 0
AnchorPoint: "Anchor-10" 291 0 basechar 0
LayerCount: 2
Back
Fore
SplineSet
506 693 m 1xd8
 649 693 l 1
 552 0 l 1
 547 -34 l 2
 527 -161 443 -222 326 -222 c 0
 261 -222 220 -201 191 -178 c 1
 256 -83 l 1
 277 -95 292 -103 320 -103 c 0
 355 -103 379 -82 385 -40 c 2
 391 0 l 1
 348 0 l 1
 220 557 l 1xe8
 223 471 224 381 205 246 c 2
 170 0 l 1
 27 0 l 1
 124 693 l 1
 327 693 l 1
 457 136 l 1
 452 232 451 304 467 421 c 2
 506 693 l 1xd8
EndSplineSet
Substitution2: "'ss01' Style Set 1 lookup 34 subtable" Eng.ss01
Substitution2: "'salt' Stylistic Alternatives lookup 33 subtable" Eng.ss01
Substitution2: "'c2sc' Capitals to Small Capitals lookup 27 subtable" eng.sc
AlternateSubs2: "'aalt' Access All Alternates lookup 1 subtable" eng.sc Eng.ss01
Position2: "'cpsp' Capital Spacing lookup 0 subtable" dx=5 dy=0 dh=10 dv=0
EndChar

StartChar: eng
Encoding: 331 331 206
Width: 567
GlyphClass: 2
Flags: MW
HStem: -222 21G<235 235> 0 21G<24 179 24 24> 419 129<318 452> 511 20G<98 233 233 233> 528 20G<376.5 452>
VStem: 24 507.42 371 160.42
LayerCount: 2
Fore
SplineSet
408 548 m 0xca
 496 548 543 488 529 386 c 2
 482 58 l 2
 458 -115 363 -176 235 -222 c 1
 196 -108 l 1
 273 -80 314 -45 328 52 c 2
 371 351 l 2
 379 408 363 419 336 419 c 0xe2
 300 419 258 367 220 292 c 1
 179 0 l 1
 24 0 l 1
 98 531 l 1
 233 531 l 1xd4
 230 435 l 1
 273 502 345 548 408 548 c 0xca
EndSplineSet
Substitution2: "'smcp' Lowercase to Small Capitals lookup 24 subtable" eng.sc
Substitution2: "'aalt' Access All Alternates lookup 0 subtable" eng.sc
EndChar
StartChar: Omacron
Encoding: 332 332 199
Width: 681
GlyphClass: 2
Flags: MW
HStem: -17 120<280 390.5 280 442> 590 120<313.5 425> 781 110<279 564 263 579>
VStem: 39 166<200.5 312 200.5 359.5> 499 166<382 493.5>
AnchorPoint: "Anchor-14" 0 0 basechar 0
AnchorPoint: "Anchor-13" 629 693 basechar 0
AnchorPoint: "Anchor-12" 424 891 basechar 0
AnchorPoint: "Anchor-11" 0 0 basechar 0
AnchorPoint: "Anchor-10" 303 0 basechar 0
LayerCount: 2
Back
Fore
SplineSet
564 781 m 1
 263 781 l 1
 279 891 l 1
 579 891 l 1
 564 781 l 1
401 710 m 0
 569 710 665 607 665 426 c 0
 665 240 580 -17 304 -17 c 0
 135 -17 39 87 39 267 c 0
 39 452 125 710 401 710 c 0
389 590 m 0
 238 590 205 369 205 255 c 0
 205 146 245 103 315 103 c 0
 466 103 499 324 499 440 c 0
 499 547 461 590 389 590 c 0
EndSplineSet
Substitution2: "'c2sc' Capitals to Small Capitals lookup 27 subtable" omacron.sc
Substitution2: "'aalt' Access All Alternates lookup 0 subtable" omacron.sc
Position2: "'cpsp' Capital Spacing lookup 0 subtable" dx=5 dy=0 dh=10 dv=0
EndChar
StartChar: Obreve
Encoding: 334 334 173
Width: 681
GlyphClass: 2
Flags: MW
HStem: -17 120<280 390.5 280 442> 590 120<313.5 425> 751 109<399 444 399 463.5>
VStem: 39 166<200.5 312 200.5 359.5> 264 85<915 927> 499 166<382 493.5>
AnchorPoint: "Anchor-14" 0 0 basechar 0
AnchorPoint: "Anchor-13" 629 693 basechar 0
AnchorPoint: "Anchor-12" 435 930 basechar 0
AnchorPoint: "Anchor-11" 0 0 basechar 0
AnchorPoint: "Anchor-10" 303 0 basechar 0
LayerCount: 2
Back
Fore
SplineSet
412 751 m 0
 308 751 259 829 264 915 c 1
 349 927 l 1
 354 889 377 860 421 860 c 0
 467 860 499 891 515 930 c 1
 602 911 l 1
 583 826 515 751 412 751 c 0
401 710 m 0
 569 710 665 607 665 426 c 0
 665 240 580 -17 304 -17 c 0
 135 -17 39 87 39 267 c 0
 39 452 125 710 401 710 c 0
389 590 m 0
 238 590 205 369 205 255 c 0
 205 146 245 103 315 103 c 0
 466 103 499 324 499 440 c 0
 499 547 461 590 389 590 c 0
EndSplineSet
Substitution2: "'c2sc' Capitals to Small Capitals lookup 27 subtable" obreve.sc
Substitution2: "'aalt' Access All Alternates lookup 0 subtable" obreve.sc
Position2: "'cpsp' Capital Spacing lookup 0 subtable" dx=5 dy=0 dh=10 dv=0
EndChar

StartChar: obreve
Encoding: 335 335 210
Width: 574
GlyphClass: 2
Flags: MW
HStem: -17 116<236.5 313 236.5 361.5> 432 116<260.5 337.5> 632 110<323 368 323 386.5>
VStem: 28 159<164 239.5 164 283> 187 87<806 819> 386 160
AnchorPoint: "Anchor-11" 0 0 basechar 0
AnchorPoint: "Anchor-10" 0 0 basechar 0
AnchorPoint: "Anchor-9" 319 531 basechar 0
AnchorPoint: "Anchor-8" 0 0 basechar 0
LayerCount: 2
Fore
SplineSet
335 632 m 0xec
 231 632 183 711 187 806 c 1
 274 819 l 1
 279 771 301 742 345 742 c 0
 391 742 424 773 442 822 c 1
 526 803 l 1
 506 708 438 632 335 632 c 0xec
324 548 m 0
 465 548 547 461 546 322 c 0
 545 176 473 -17 250 -17 c 0
 109 -17 28 68 28 209 c 0xf4
 28 357 100 548 324 548 c 0
313 432 m 0xf4
 208 432 187 280 187 199 c 0
 187 129 212 99 261 99 c 0
 365 99 386 251 386 332 c 1
 387 402 362 432 313 432 c 0xf4
EndSplineSet
Substitution2: "'smcp' Lowercase to Small Capitals lookup 24 subtable" obreve.sc
Substitution2: "'aalt' Access All Alternates lookup 0 subtable" obreve.sc
EndChar

StartChar: ohungarumlaut
Encoding: 337 337 214
Width: 574
GlyphClass: 2
Flags: MW
HStem: -17 116<236.5 313 236.5 361.5> 432 116<260.5 337.5>
VStem: 28 159<164 239.5 164 283> 386 160
AnchorPoint: "Anchor-11" 0 0 basechar 0
AnchorPoint: "Anchor-10" 0 0 basechar 0
AnchorPoint: "Anchor-9" 319 531 basechar 0
AnchorPoint: "Anchor-8" 0 0 basechar 0
LayerCount: 2
Fore
SplineSet
415 810 m 1
 279 630 l 1
 201 663 l 1
 316 860 l 1
 415 810 l 1
586 807 m 1
 442 625 l 1
 366 663 l 1
 488 860 l 1
 586 807 l 1
324 548 m 0
 465 548 547 461 546 322 c 0
 545 176 473 -17 250 -17 c 0
 109 -17 28 68 28 209 c 0
 28 357 100 548 324 548 c 0
313 432 m 0
 208 432 187 280 187 199 c 0
 187 129 212 99 261 99 c 0
 365 99 386 251 386 332 c 1
 387 402 362 432 313 432 c 0
EndSplineSet
Substitution2: "'smcp' Lowercase to Small Capitals lookup 24 subtable" ohungarumlaut.sc
Substitution2: "'aalt' Access All Alternates lookup 0 subtable" ohungarumlaut.sc
EndChar

StartChar: OE
Encoding: 338 338 82
Width: 894
GlyphClass: 2
Flags: MW
HStem: -17 120<273 304.5> 0 103<273 819 273 384> 0 118<544 819> 295 115<641 813 630 828> 576 117<603 603 603 882> 590 120<309.5 401.5 255.5 409.5>
VStem: 39 165<196.5 320 196.5 357> 478 163<410 442 410 499>
LayerCount: 2
Fore
SplineSet
603 576 m 1x3b
 629 531 641 474 641 410 c 1
 828 410 l 1
 813 295 l 1
 630 295 l 1
 617 233 591 170 544 118 c 1
 835 118 l 1
 819 0 l 1
 384 0 l 1x3b
 354 -11 321 -17 288 -17 c 0
 132 -17 39 86 39 266 c 0
 39 448 127 710 384 710 c 0x97
 419 710 451 704 479 693 c 1
 915 693 l 1
 882 576 l 1
 603 576 l 1x3b
204 248 m 0x57
 204 145 242 103 304 103 c 0
 440 103 478 300 478 449 c 0
 478 549 441 590 378 590 c 0
 241 590 204 392 204 248 c 0x57
EndSplineSet
Substitution2: "'c2sc' Capitals to Small Capitals lookup 23 subtable" oe.sc
Substitution2: "'aalt' Access All Alternates lookup 0 subtable" oe.sc
Position2: "'cpsp' Capital Spacing lookup 0 subtable" dx=5 dy=0 dh=10 dv=0
EndChar

StartChar: oe
Encoding: 339 339 219
Width: 886
GlyphClass: 2
Flags: MW
HStem: -17 116<236.5 292.5 603 650.5> 432 116<260.5 337.5> 443 105<636 685.5>
VStem: 26 160<164 239.5 164 283> 718 157<371.5 406>
AnchorPoint: "Anchor-11" 0 0 basechar 0
AnchorPoint: "Anchor-10" 0 0 basechar 0
AnchorPoint: "Anchor-9" 493 531 basechar 0
AnchorPoint: "Anchor-8" 0 0 basechar 0
LayerCount: 2
Fore
SplineSet
875 403 m 0xd8
 875 254 702 210 535 194 c 1
 539 122 577 99 629 99 c 0
 675 99 715 115 764 148 c 1
 821 54 l 1
 762 12 692 -17 609 -17 c 0
 524 -17 470 13 434 61 c 1
 393 15 335 -17 250 -17 c 0
 109 -17 26 68 26 209 c 0
 26 357 100 548 324 548 c 0
 397 548 452 512 488 466 c 1
 532 515 593 548 679 548 c 0
 808 548 875 483 875 403 c 0xd8
542 289 m 1
 674 299 718 349 718 394 c 0
 718 418 707 443 664 443 c 0xb8
 590 443 556 365 542 289 c 1
261 99 m 0
 365 99 387 251 388 332 c 0
 388 402 362 432 313 432 c 0
 208 432 186 280 186 199 c 0
 186 129 212 99 261 99 c 0
EndSplineSet
Substitution2: "'smcp' Lowercase to Small Capitals lookup 24 subtable" oe.sc
Substitution2: "'aalt' Access All Alternates lookup 0 subtable" oe.sc
EndChar

StartChar: racute
Encoding: 341 341 224
Width: 392
GlyphClass: 2
Flags: MW
HStem: 0 21G<24 179 24 24> 393 138<98 353> 511 20G<98 233 233 233> 518 20G<434 434> 526 20G<353.5 391.5>
VStem: 24 410
AnchorPoint: "Anchor-11" 102 0 basechar 0
AnchorPoint: "Anchor-10" 0 0 basechar 0
AnchorPoint: "Anchor-9" 267 531 basechar 0
AnchorPoint: "Anchor-8" 0 0 basechar 0
LayerCount: 2
Fore
SplineSet
421 717 m 1x8c
 176 622 l 1
 145 703 l 1
 376 835 l 1
 421 717 l 1x8c
381 546 m 0
 402 546 417 543 434 538 c 1x94
 389 386 l 1
 373 390 361 393 345 393 c 0xc4
 279 393 243 330 214 246 c 1
 179 0 l 1
 24 0 l 1
 98 531 l 1
 233 531 l 1xa4
 231 432 l 1
 267 505 326 546 381 546 c 0
EndSplineSet
Substitution2: "'smcp' Lowercase to Small Capitals lookup 24 subtable" racute.sc
Substitution2: "'aalt' Access All Alternates lookup 0 subtable" racute.sc
EndChar

StartChar: Rcommaaccent
Encoding: 342 342 89
Width: 607
GlyphClass: 2
Flags: MW
HStem: -208 21G<201 201> 0 21G<27 188 27 27 397 573 397 397> 264.5 113.5 578 115<269 330 269 269>
VStem: 174 156<-153 -128> 434 167<479 531>
AnchorPoint: "Anchor-11" 270 0 basechar 0
AnchorPoint: "Anchor-10" 0 0 basechar 0
AnchorPoint: "Anchor-9" 363 693 basechar 0
AnchorPoint: "Anchor-8" 0 0 basechar 0
LayerCount: 2
Fore
SplineSet
601 518 m 0
 601 428 570 346 443 291 c 1
 573 0 l 1
 397 0 l 1
 292 264 l 1
 225 265 l 1
 188 0 l 1
 27 0 l 1
 124 693 l 1
 347 693 l 2
 515 693 601 637 601 518 c 0
241 378 m 1
 312 378 l 2
 411 378 434 452 434 506 c 0
 434 556 400 578 330 578 c 2
 269 578 l 1
 241 378 l 1
261 -68 m 0
 303 -68 330 -98 330 -137 c 0
 330 -169 319 -192 292 -233 c 2
 233 -325 l 1
 156 -325 l 1
 201 -208 l 1
 185 -195 174 -178 174 -154 c 0
 174 -102 214 -68 261 -68 c 0
EndSplineSet
Substitution2: "'c2sc' Capitals to Small Capitals lookup 23 subtable" rcommaaccent.sc
Substitution2: "'aalt' Access All Alternates lookup 0 subtable" rcommaaccent.sc
Position2: "'cpsp' Capital Spacing lookup 0 subtable" dx=5 dy=0 dh=10 dv=0
EndChar

StartChar: rcommaaccent
Encoding: 343 343 226
Width: 392
GlyphClass: 2
Flags: MW
HStem: -208 21G<31 31> 0 21G<24 179 24 24> 393 138<98 353> 511 20G<98 233 233 233> 518 20G<434 434> 526 20G<353.5 391.5>
VStem: -14 448 4 156<-153 -128>
AnchorPoint: "Anchor-11" 102 0 basechar 0
AnchorPoint: "Anchor-10" 0 0 basechar 0
AnchorPoint: "Anchor-9" 267 531 basechar 0
AnchorPoint: "Anchor-8" 0 0 basechar 0
LayerCount: 2
Fore
SplineSet
381 546 m 0xc6
 402 546 417 543 434 538 c 1xca
 389 386 l 1
 373 390 361 393 345 393 c 0xe2
 279 393 243 330 214 246 c 1
 179 0 l 1
 24 0 l 1
 98 531 l 1
 233 531 l 1xd2
 231 432 l 1
 267 505 326 546 381 546 c 0xc6
91 -68 m 0xc5
 133 -68 160 -98 160 -137 c 0
 160 -169 149 -192 122 -233 c 2
 63 -325 l 1
 -14 -325 l 1
 31 -208 l 1
 15 -195 4 -178 4 -154 c 0
 4 -102 44 -68 91 -68 c 0xc5
EndSplineSet
Substitution2: "'smcp' Lowercase to Small Capitals lookup 24 subtable" rcommaaccent.sc
Substitution2: "'aalt' Access All Alternates lookup 0 subtable" rcommaaccent.sc
EndChar

StartChar: Rcaron
Encoding: 344 344 88
Width: 607
GlyphClass: 2
Flags: MW
HStem: 0 21G<27 188 27 27 397 573 397 397> 264.5 113.5 578 115<269 330 269 269>
VStem: 434 167<479 531>
AnchorPoint: "Anchor-11" 270 0 basechar 0
AnchorPoint: "Anchor-10" 0 0 basechar 0
AnchorPoint: "Anchor-9" 363 693 basechar 0
AnchorPoint: "Anchor-8" 0 0 basechar 0
LayerCount: 2
Fore
SplineSet
319 750 m 1
 197 879 l 1
 260 943 l 1
 378 859 l 1
 521 943 l 1
 570 879 l 1
 414 750 l 1
 319 750 l 1
601 518 m 0
 601 428 570 346 443 291 c 1
 573 0 l 1
 397 0 l 1
 292 264 l 1
 225 265 l 1
 188 0 l 1
 27 0 l 1
 124 693 l 1
 347 693 l 2
 515 693 601 637 601 518 c 0
241 378 m 1
 312 378 l 2
 411 378 434 452 434 506 c 0
 434 556 400 578 330 578 c 2
 269 578 l 1
 241 378 l 1
EndSplineSet
Substitution2: "'c2sc' Capitals to Small Capitals lookup 23 subtable" rcaron.sc
Substitution2: "'aalt' Access All Alternates lookup 0 subtable" rcaron.sc
Position2: "'cpsp' Capital Spacing lookup 0 subtable" dx=5 dy=0 dh=10 dv=0
EndChar
StartChar: rcaron
Encoding: 345 345 606
Width: 392
GlyphClass: 2
Flags: MW
HStem: 0 21G<24 179 24 24> 393 138<98 353> 511 20G<98 233 233 233> 518 20G<434 434> 526 20G<353.5 391.5> 728 20G<108 108 481 481>
VStem: 24 457
AnchorPoint: "Anchor-14" 0 0 basechar 0
AnchorPoint: "Anchor-13" 0 0 basechar 0
AnchorPoint: "Anchor-12" 296 813 basechar 0
AnchorPoint: "Anchor-11" 0 0 basechar 0
AnchorPoint: "Anchor-10" 102 0 basechar 0
LayerCount: 2
Back
Fore
SplineSet
431 813 m 1x8e
 481 748 l 1
 324 611 l 1
 229 611 l 1
 108 748 l 1
 168 813 l 1
 286 722 l 1
 431 813 l 1x8e
381 546 m 0
 402 546 417 543 434 538 c 1x96
 389 386 l 1
 373 390 361 393 345 393 c 0xc6
 279 393 243 330 214 246 c 1
 179 0 l 1
 24 0 l 1
 98 531 l 1
 233 531 l 1xa6
 231 432 l 1
 267 505 326 546 381 546 c 0
EndSplineSet
Substitution2: "'smcp' Lowercase to Small Capitals lookup 28 subtable" rcaron.sc
Substitution2: "'aalt' Access All Alternates lookup 0 subtable" rcaron.sc
EndChar
StartChar: Sacute
Encoding: 346 346 228
Width: 562
GlyphClass: 2
Flags: MW
HStem: -17 125<203 273.5 203 348> 590 120<312 369.5>
VStem: 69 169<493 537 493 545.5> 362 170<173.5 223>
AnchorPoint: "Anchor-14" 0 0 basechar 0
AnchorPoint: "Anchor-13" 0 0 basechar 0
AnchorPoint: "Anchor-12" 375 957 basechar 0
AnchorPoint: "Anchor-11" 0 0 basechar 0
AnchorPoint: "Anchor-10" 241 0 basechar 0
LayerCount: 2
Back
Fore
SplineSet
456 957 m 1
 513 838 l 1
 272 747 l 1
 233 827 l 1
 456 957 l 1
342 710 m 0
 441 710 514 677 569 619 c 1
 483 533 l 1
 441 573 396 590 343 590 c 0
 281 590 238 561 238 513 c 0
 238 473 265 456 354 424 c 0
 465 388 532 333 532 227 c 0
 532 120 460 -17 236 -17 c 0
 117 -17 36 28 -16 84 c 1
 77 176 l 1
 119 133 170 108 236 108 c 0
 311 108 362 143 362 200 c 0
 362 246 335 271 253 300 c 0
 122 342 69 402 69 495 c 0
 69 596 149 710 342 710 c 0
EndSplineSet
Substitution2: "'c2sc' Capitals to Small Capitals lookup 27 subtable" sacute.sc
Substitution2: "'locl' Localized Forms in Latin lookup 7 subtable" Sacute.loclPLK
AlternateSubs2: "'aalt' Access All Alternates lookup 1 subtable" Sacute.loclPLK sacute.sc
Position2: "'cpsp' Capital Spacing lookup 0 subtable" dx=5 dy=0 dh=10 dv=0
EndChar

StartChar: sacute
Encoding: 347 347 228
Width: 473
GlyphClass: 2
Flags: MW
HStem: -17 113<174 231.5 174 285.5> 435 113<248.5 293>
VStem: 46 155<378 405.5 378 423> 286 155<134.5 166.5>
AnchorPoint: "Anchor-11" 200 0 basechar 0
AnchorPoint: "Anchor-10" 0 0 basechar 0
AnchorPoint: "Anchor-9" 279 531 basechar 0
AnchorPoint: "Anchor-8" 0 0 basechar 0
LayerCount: 2
Fore
SplineSet
433 717 m 1
 188 622 l 1
 157 703 l 1
 388 835 l 1
 433 717 l 1
273 548 m 0
 345 548 420 521 465 480 c 1
 395 392 l 1
 361 421 313 435 273 435 c 0
 224 435 201 419 201 392 c 0
 201 364 222 355 303 329 c 0
 393 300 441 252 441 167 c 0
 441 69 368 -17 203 -17 c 0
 108 -17 28 20 -18 70 c 1
 63 154 l 1
 96 121 145 96 203 96 c 0
 260 96 286 120 286 149 c 0
 286 184 265 194 181 223 c 0
 92 253 46 303 46 378 c 0
 46 468 124 548 273 548 c 0
EndSplineSet
Substitution2: "'smcp' Lowercase to Small Capitals lookup 24 subtable" sacute.sc
Substitution2: "'locl' Localized Forms in Latin lookup 7 subtable" sacute.loclPLK
AlternateSubs2: "'aalt' Access All Alternates lookup 1 subtable" sacute.loclPLK sacute.sc
EndChar

StartChar: scircumflex
Encoding: 349 349 231
Width: 473
GlyphClass: 2
Flags: MW
HStem: -17 113<174 231.5 174 285.5> 435 113<248.5 293>
VStem: 46 155<378 405.5 378 423> 286 155<134.5 166.5>
AnchorPoint: "Anchor-11" 200 0 basechar 0
AnchorPoint: "Anchor-10" 0 0 basechar 0
AnchorPoint: "Anchor-9" 279 531 basechar 0
AnchorPoint: "Anchor-8" 0 0 basechar 0
LayerCount: 2
Fore
SplineSet
115 685 m 1
 273 822 l 1
 368 822 l 1
 488 685 l 1
 425 620 l 1
 307 712 l 1
 165 620 l 1
 115 685 l 1
273 548 m 0
 345 548 420 521 465 480 c 1
 395 392 l 1
 361 421 313 435 273 435 c 0
 224 435 201 419 201 392 c 0
 201 364 222 355 303 329 c 0
 393 300 441 252 441 167 c 0
 441 69 368 -17 203 -17 c 0
 108 -17 28 20 -18 70 c 1
 63 154 l 1
 96 121 145 96 203 96 c 0
 260 96 286 120 286 149 c 0
 286 184 265 194 181 223 c 0
 92 253 46 303 46 378 c 0
 46 468 124 548 273 548 c 0
EndSplineSet
Substitution2: "'smcp' Lowercase to Small Capitals lookup 24 subtable" scircumflex.sc
Substitution2: "'aalt' Access All Alternates lookup 0 subtable" scircumflex.sc
EndChar
StartChar: Scedilla
Encoding: 350 350 231
Width: 562
GlyphClass: 2
Flags: MW
HStem: -262 86<194 221.5 194 269.5> -15 21G<196 196 286 286> -15 123<196 273.5 203 286> 590 120<312 369.5>
VStem: 69 169<493 537 493 545.5> 258 113 362 170<177.5 223>
AnchorPoint: "Anchor-14" 0 0 basechar 0
AnchorPoint: "Anchor-13" 0 0 basechar 0
AnchorPoint: "Anchor-12" 350 693 basechar 0
AnchorPoint: "Anchor-11" 0 0 basechar 0
AnchorPoint: "Anchor-10" 237 -262 basechar 0
LayerCount: 2
Back
Fore
SplineSet
354 424 m 0xda
 465 388 532 333 532 227 c 0xda
 532 128 471 4 286 -15 c 1
 280 -48 l 1
 342 -55 371 -89 371 -138 c 0
 371 -191 329 -262 210 -262 c 0
 163 -262 126 -247 102 -230 c 1
 147 -159 l 1
 164 -170 182 -176 206 -176 c 0
 237 -176 257 -166 258 -143 c 0
 259 -120 236 -112 173 -112 c 1
 196 -15 l 1xdc
 99 -6 30 35 -16 84 c 1
 77 176 l 1
 119 133 170 108 236 108 c 0
 311 108 362 143 362 200 c 0xba
 362 246 335 271 253 300 c 0
 122 342 69 402 69 495 c 0
 69 596 149 710 342 710 c 0
 441 710 514 677 569 619 c 1
 483 533 l 1
 441 573 396 590 343 590 c 0
 281 590 238 561 238 513 c 0
 238 473 265 456 354 424 c 0xda
EndSplineSet
Substitution2: "'c2sc' Capitals to Small Capitals lookup 27 subtable" scedilla.sc
Substitution2: "'locl' Localized Forms in Latin lookup 5 subtable" Scommaaccent
Substitution2: "'locl' Localized Forms in Latin lookup 4 subtable" Scommaaccent
AlternateSubs2: "'aalt' Access All Alternates lookup 1 subtable" Scommaaccent scedilla.sc
Position2: "'cpsp' Capital Spacing lookup 0 subtable" dx=5 dy=0 dh=10 dv=0
EndChar
StartChar: scedilla
Encoding: 351 351 623
Width: 473
GlyphClass: 2
Flags: MW
HStem: -262 86<148 175.5 148 223.5> -15 21G<240 240> -13 21G<152 152> 435 113<247.5 292>
VStem: 46 155<378 405 378 422.5> 213 112 286 155<134.5 166.5>
AnchorPoint: "Anchor-14" 0 0 basechar 0
AnchorPoint: "Anchor-13" 0 0 basechar 0
AnchorPoint: "Anchor-12" 279 531 basechar 0
AnchorPoint: "Anchor-11" 0 0 basechar 0
AnchorPoint: "Anchor-10" 183 -262 basechar 0
LayerCount: 2
Back
Fore
SplineSet
303 329 m 0xba
 393 300 441 251 441 168 c 0xda
 441 77 378 -3 240 -15 c 1
 234 -48 l 1xdc
 296 -55 325 -89 325 -138 c 0
 325 -191 283 -262 164 -262 c 0
 117 -262 80 -247 56 -230 c 1
 101 -159 l 1
 118 -170 136 -176 160 -176 c 0
 191 -176 212 -166 213 -143 c 0
 214 -120 190 -112 127 -112 c 1
 152 -13 l 1xbc
 80 -3 20 30 -18 70 c 1
 61 152 l 1
 96 121 144 96 204 96 c 0
 259 96 286 120 286 149 c 0
 286 184 265 194 181 223 c 0
 90 254 46 298 46 377 c 0
 46 468 124 548 270 548 c 0
 350 548 417 521 465 480 c 1
 396 395 l 1
 358 421 313 435 271 435 c 0
 224 435 201 418 201 392 c 0
 201 364 222 355 303 329 c 0xba
EndSplineSet
Substitution2: "'smcp' Lowercase to Small Capitals lookup 28 subtable" scedilla.sc
Substitution2: "'locl' Localized Forms in Latin lookup 5 subtable" scommaaccent
Substitution2: "'locl' Localized Forms in Latin lookup 4 subtable" scommaaccent
AlternateSubs2: "'aalt' Access All Alternates lookup 1 subtable" scommaaccent scedilla.sc
EndChar

StartChar: Tcedilla
Encoding: 354 354 99
Width: 530
GlyphClass: 2
Flags: MW
HStem: -262 86<213.5 239.5 213.5 290> 0 21G<147 221 147 147 309 309> 567 126<68 227 50 591 388 388 388 556>
VStem: 279 112
AnchorPoint: "Anchor-11" 228 0 basechar 0
AnchorPoint: "Anchor-10" 0 0 basechar 0
AnchorPoint: "Anchor-9" 325 693 basechar 0
AnchorPoint: "Anchor-8" 0 0 basechar 0
LayerCount: 2
Fore
SplineSet
309 0 m 1
 301 -48 l 1
 362 -55 391 -88 391 -137 c 0
 391 -189 350 -262 230 -262 c 0
 183 -262 146 -247 122 -230 c 1
 167 -159 l 1
 184 -170 202 -176 225 -176 c 0
 254 -176 278 -166 279 -143 c 0
 280 -120 256 -112 193 -112 c 1
 221 0 l 1
 147 0 l 1
 227 567 l 1
 50 567 l 1
 68 693 l 1
 591 693 l 1
 556 567 l 1
 388 567 l 1
 309 0 l 1
EndSplineSet
Substitution2: "'c2sc' Capitals to Small Capitals lookup 23 subtable" tcedilla.sc
Substitution2: "'locl' Localized Forms in Latin lookup 5 subtable" uni021A
Substitution2: "'locl' Localized Forms in Latin lookup 4 subtable" uni021A
AlternateSubs2: "'aalt' Access All Alternates lookup 1 subtable" uni021A tcedilla.sc
Position2: "'cpsp' Capital Spacing lookup 0 subtable" dx=5 dy=0 dh=10 dv=0
EndChar
